<ttFont>
    <TTGlyph name=".notdef" xMin="193" yMin="0" xMax="1034" yMax="1462">
      <contour>
        <pt x="193" y="1462" on="1"/>
        <pt x="1034" y="1462" on="1"/>
        <pt x="1034" y="0" on="1"/>
        <pt x="193" y="0" on="1"/>
      </contour>
      <contour>
        <pt x="297" y="104" on="1"/>
        <pt x="930" y="104" on="1"/>
        <pt x="930" y="1358" on="1"/>
        <pt x="297" y="1358" on="1"/>
      </contour>
    </TTGlyph>
    <TTGlyph name="afii301" xMin="-299" yMin="-338" xMax="299" yMax="1613">
      <contour>
        <pt x="74" y="1323" on="1"/>
        <pt x="299" y="1103" on="1"/>
        <pt x="224" y="1030" on="1"/>
        <pt x="54" y="1199" on="1"/>
        <pt x="54" y="-338" on="1"/>
        <pt x="-54" y="-338" on="1"/>
        <pt x="-54" y="1199" on="1"/>
        <pt x="-224" y="1030" on="1"/>
        <pt x="-299" y="1103" on="1"/>
        <pt x="-74" y="1323" on="1"/>
        <pt x="-299" y="1540" on="1"/>
        <pt x="-224" y="1613" on="1"/>
        <pt x="0" y="1393" on="1"/>
        <pt x="224" y="1613" on="1"/>
        <pt x="299" y="1539" on="1"/>
      </contour>
    </TTGlyph>
    <TTGlyph name="afii61664" xMin="-54" yMin="-339" xMax="54" yMax="1613">
      <contour>
        <pt x="-54" y="-339" on="1"/>
        <pt x="-54" y="1613" on="1"/>
        <pt x="54" y="1613" on="1"/>
        <pt x="54" y="-339" on="1"/>
      </contour>
    </TTGlyph>
    <TTGlyph name="asciicircum" xMin="45" yMin="520" xMax="1122" yMax="1470">
      <contour>
        <pt x="45" y="520" on="1"/>
        <pt x="483" y="1470" on="1"/>
        <pt x="627" y="1470" on="1"/>
        <pt x="1122" y="520" on="1"/>
        <pt x="883" y="520" on="1"/>
        <pt x="561" y="1163" on="1"/>
        <pt x="281" y="520" on="1"/>
      </contour>
    </TTGlyph>
    <TTGlyph name="asciitilde" xMin="108" yMin="451" xMax="1060" yMax="793">
      <contour>
        <pt x="108" y="451" on="1"/>
        <pt x="108" y="682" on="1"/>
        <pt x="211" y="791" on="0"/>
        <pt x="364" y="791" on="1"/>
        <pt x="423" y="791" on="0"/>
        <pt x="524" y="767" on="0"/>
        <pt x="620" y="727" on="1"/>
        <pt x="692" y="697" on="0"/>
        <pt x="779" y="672" on="0"/>
        <pt x="827" y="672" on="1"/>
        <pt x="877" y="672" on="0"/>
        <pt x="998" y="731" on="0"/>
        <pt x="1060" y="793" on="1"/>
        <pt x="1060" y="562" on="1"/>
        <pt x="959" y="453" on="0"/>
        <pt x="804" y="453" on="1"/>
        <pt x="733" y="453" on="0"/>
        <pt x="622" y="485" on="0"/>
        <pt x="548" y="516" on="1"/>
        <pt x="469" y="550" on="0"/>
        <pt x="390" y="572" on="0"/>
        <pt x="342" y="572" on="1"/>
        <pt x="235" y="572" on="0"/>
      </contour>
    </TTGlyph>
    <TTGlyph name="asterisk" xMin="117" yMin="567" xMax="1107" yMax="1525">
      <contour>
        <pt x="742" y="1525" on="1"/>
        <pt x="701" y="1157" on="1"/>
        <pt x="1074" y="1261" on="1"/>
        <pt x="1107" y="1009" on="1"/>
        <pt x="767" y="985" on="1"/>
        <pt x="990" y="688" on="1"/>
        <pt x="763" y="567" on="1"/>
        <pt x="607" y="880" on="1"/>
        <pt x="470" y="569" on="1"/>
        <pt x="234" y="688" on="1"/>
        <pt x="455" y="985" on="1"/>
        <pt x="117" y="1011" on="1"/>
        <pt x="156" y="1261" on="1"/>
        <pt x="521" y="1157" on="1"/>
        <pt x="480" y="1525" on="1"/>
      </contour>
    </TTGlyph>
    <TTGlyph name="backslash" xMin="72" yMin="-339" xMax="894" yMax="1705">
      <contour>
        <pt x="334" y="1705" on="1"/>
        <pt x="894" y="-339" on="1"/>
        <pt x="632" y="-339" on="1"/>
        <pt x="72" y="1705" on="1"/>
      </contour>
    </TTGlyph>
    <TTGlyph name="bar" xMin="443" yMin="-339" xMax="662" yMax="1703">
      <contour>
        <pt x="443" y="1703" on="1"/>
        <pt x="662" y="1703" on="1"/>
        <pt x="662" y="-339" on="1"/>
        <pt x="443" y="-339" on="1"/>
      </contour>
    </TTGlyph>
    <TTGlyph name="braceleft" xMin="78" yMin="-339" xMax="772" yMax="1703">
      <contour>
        <pt x="78" y="562" on="1"/>
        <pt x="78" y="801" on="1"/>
        <pt x="211" y="801" on="0"/>
        <pt x="334" y="899" on="0"/>
        <pt x="334" y="996" on="1"/>
        <pt x="334" y="1379" on="1"/>
        <pt x="334" y="1504" on="0"/>
        <pt x="411" y="1638" on="0"/>
        <pt x="599" y="1703" on="0"/>
        <pt x="772" y="1703" on="1"/>
        <pt x="772" y="1478" on="1"/>
        <pt x="676" y="1476" on="0"/>
        <pt x="598" y="1398" on="0"/>
        <pt x="598" y="1310" on="1"/>
        <pt x="598" y="953" on="1"/>
        <pt x="598" y="855" on="0"/>
        <pt x="489" y="712" on="0"/>
        <pt x="364" y="688" on="1"/>
        <pt x="364" y="676" on="1"/>
        <pt x="598" y="634" on="0"/>
        <pt x="598" y="422" on="1"/>
        <pt x="598" y="55" on="1"/>
        <pt x="598" y="-33" on="0"/>
        <pt x="676" y="-111" on="0"/>
        <pt x="772" y="-113" on="1"/>
        <pt x="772" y="-339" on="1"/>
        <pt x="598" y="-339" on="0"/>
        <pt x="409" y="-273" on="0"/>
        <pt x="334" y="-138" on="0"/>
        <pt x="334" y="-14" on="1"/>
        <pt x="334" y="353" on="1"/>
        <pt x="334" y="466" on="0"/>
        <pt x="203" y="562" on="0"/>
      </contour>
    </TTGlyph>
    <TTGlyph name="braceright" xMin="100" yMin="-339" xMax="794" yMax="1703">
      <contour>
        <pt x="794" y="563" on="1"/>
        <pt x="661" y="563" on="0"/>
        <pt x="538" y="465" on="0"/>
        <pt x="538" y="368" on="1"/>
        <pt x="538" y="-15" on="1"/>
        <pt x="538" y="-140" on="0"/>
        <pt x="461" y="-274" on="0"/>
        <pt x="273" y="-339" on="0"/>
        <pt x="100" y="-339" on="1"/>
        <pt x="100" y="-114" on="1"/>
        <pt x="196" y="-112" on="0"/>
        <pt x="274" y="-34" on="0"/>
        <pt x="274" y="54" on="1"/>
        <pt x="274" y="411" on="1"/>
        <pt x="274" y="509" on="0"/>
        <pt x="383" y="652" on="0"/>
        <pt x="508" y="676" on="1"/>
        <pt x="508" y="688" on="1"/>
        <pt x="274" y="730" on="0"/>
        <pt x="274" y="942" on="1"/>
        <pt x="274" y="1309" on="1"/>
        <pt x="274" y="1397" on="0"/>
        <pt x="196" y="1475" on="0"/>
        <pt x="100" y="1477" on="1"/>
        <pt x="100" y="1703" on="1"/>
        <pt x="274" y="1703" on="0"/>
        <pt x="463" y="1637" on="0"/>
        <pt x="538" y="1502" on="0"/>
        <pt x="538" y="1378" on="1"/>
        <pt x="538" y="1011" on="1"/>
        <pt x="538" y="898" on="0"/>
        <pt x="669" y="802" on="0"/>
        <pt x="794" y="802" on="1"/>
      </contour>
    </TTGlyph>
    <TTGlyph name="bracketleft" xMin="214" yMin="-339" xMax="698" yMax="1704">
      <contour>
        <pt x="698" y="-339" on="1"/>
        <pt x="214" y="-339" on="1"/>
        <pt x="214" y="1704" on="1"/>
        <pt x="698" y="1704" on="1"/>
        <pt x="698" y="1493" on="1"/>
        <pt x="474" y="1493" on="1"/>
        <pt x="474" y="-128" on="1"/>
        <pt x="698" y="-128" on="1"/>
      </contour>
    </TTGlyph>
    <TTGlyph name="bracketright" xMin="100" yMin="-339" xMax="584" yMax="1704">
      <contour>
        <pt x="100" y="1704" on="1"/>
        <pt x="584" y="1704" on="1"/>
        <pt x="584" y="-339" on="1"/>
        <pt x="100" y="-339" on="1"/>
        <pt x="100" y="-128" on="1"/>
        <pt x="324" y="-128" on="1"/>
        <pt x="324" y="1493" on="1"/>
        <pt x="100" y="1493" on="1"/>
      </contour>
    </TTGlyph>
    <TTGlyph name="colon" xMin="156" yMin="-27" xMax="506" yMax="1139">
      <contour>
        <pt x="332" y="1139" on="1"/>
        <pt x="413" y="1139" on="0"/>
        <pt x="506" y="1053" on="0"/>
        <pt x="506" y="969" on="1"/>
        <pt x="506" y="887" on="0"/>
        <pt x="412" y="799" on="0"/>
        <pt x="332" y="799" on="1"/>
        <pt x="249" y="799" on="0"/>
        <pt x="156" y="886" on="0"/>
        <pt x="156" y="969" on="1"/>
        <pt x="156" y="1054" on="0"/>
        <pt x="248" y="1139" on="0"/>
      </contour>
      <contour>
        <pt x="332" y="313" on="1"/>
        <pt x="413" y="313" on="0"/>
        <pt x="506" y="227" on="0"/>
        <pt x="506" y="143" on="1"/>
        <pt x="506" y="63" on="0"/>
        <pt x="412" y="-27" on="0"/>
        <pt x="332" y="-27" on="1"/>
        <pt x="249" y="-27" on="0"/>
        <pt x="156" y="62" on="0"/>
        <pt x="156" y="143" on="1"/>
        <pt x="156" y="228" on="0"/>
        <pt x="248" y="313" on="0"/>
      </contour>
    </TTGlyph>
    <TTGlyph name="comma" xMin="103" yMin="-244" xMax="499" yMax="288">
      <contour>
        <pt x="484" y="288" on="1"/>
        <pt x="499" y="264" on="1"/>
        <pt x="450" y="58" on="0"/>
        <pt x="323" y="-244" on="1"/>
        <pt x="103" y="-244" on="1"/>
        <pt x="178" y="88" on="0"/>
        <pt x="203" y="288" on="1"/>
      </contour>
    </TTGlyph>
    <TTGlyph name="divide" xMin="108" yMin="121" xMax="1060" yMax="1123">
      <contour>
        <pt x="583" y="1123" on="1"/>
        <pt x="649" y="1123" on="0"/>
        <pt x="722" y="1044" on="0"/>
        <pt x="722" y="971" on="1"/>
        <pt x="722" y="901" on="0"/>
        <pt x="647" y="820" on="0"/>
        <pt x="583" y="820" on="1"/>
        <pt x="519" y="820" on="0"/>
        <pt x="444" y="899" on="0"/>
        <pt x="444" y="971" on="1"/>
        <pt x="444" y="1046" on="0"/>
        <pt x="517" y="1123" on="0"/>
      </contour>
      <contour>
        <pt x="108" y="512" on="1"/>
        <pt x="108" y="731" on="1"/>
        <pt x="1060" y="731" on="1"/>
        <pt x="1060" y="512" on="1"/>
      </contour>
      <contour>
        <pt x="583" y="424" on="1"/>
        <pt x="648" y="424" on="0"/>
        <pt x="722" y="347" on="0"/>
        <pt x="722" y="273" on="1"/>
        <pt x="722" y="202" on="0"/>
        <pt x="648" y="121" on="0"/>
        <pt x="583" y="121" on="1"/>
        <pt x="518" y="121" on="0"/>
        <pt x="444" y="200" on="0"/>
        <pt x="444" y="273" on="1"/>
        <pt x="444" y="349" on="0"/>
        <pt x="518" y="424" on="0"/>
      </contour>
    </TTGlyph>
    <TTGlyph name="eight" xMin="72" yMin="-20" xMax="1057" yMax="1481">
      <contour>
        <pt x="750" y="772" on="1"/>
        <pt x="913" y="685" on="0"/>
        <pt x="1057" y="495" on="0"/>
        <pt x="1057" y="379" on="1"/>
        <pt x="1057" y="200" on="0"/>
        <pt x="787" y="-20" on="0"/>
        <pt x="565" y="-20" on="1"/>
        <pt x="333" y="-20" on="0"/>
        <pt x="72" y="185" on="0"/>
        <pt x="72" y="371" on="1"/>
        <pt x="72" y="628" on="0"/>
        <pt x="352" y="764" on="1"/>
        <pt x="227" y="843" on="0"/>
        <pt x="117" y="1023" on="0"/>
        <pt x="117" y="1130" on="1"/>
        <pt x="117" y="1290" on="0"/>
        <pt x="369" y="1481" on="0"/>
        <pt x="565" y="1481" on="1"/>
        <pt x="763" y="1481" on="0"/>
        <pt x="1012" y="1291" on="0"/>
        <pt x="1012" y="1128" on="1"/>
        <pt x="1012" y="1017" on="0"/>
        <pt x="888" y="841" on="0"/>
      </contour>
      <contour>
        <pt x="565" y="901" on="1"/>
        <pt x="648" y="944" on="0"/>
        <pt x="721" y="1043" on="0"/>
        <pt x="721" y="1106" on="1"/>
        <pt x="721" y="1174" on="0"/>
        <pt x="634" y="1255" on="0"/>
        <pt x="563" y="1255" on="1"/>
        <pt x="493" y="1255" on="0"/>
        <pt x="408" y="1173" on="0"/>
        <pt x="408" y="1106" on="1"/>
        <pt x="408" y="1044" on="0"/>
        <pt x="470" y="953" on="0"/>
      </contour>
      <contour>
        <pt x="553" y="637" on="1"/>
        <pt x="358" y="541" on="0"/>
        <pt x="358" y="389" on="1"/>
        <pt x="358" y="305" on="0"/>
        <pt x="466" y="207" on="0"/>
        <pt x="561" y="207" on="1"/>
        <pt x="666" y="207" on="0"/>
        <pt x="770" y="306" on="0"/>
        <pt x="770" y="387" on="1"/>
        <pt x="770" y="431" on="0"/>
        <pt x="728" y="508" on="0"/>
        <pt x="655" y="573" on="0"/>
        <pt x="575" y="623" on="1"/>
      </contour>
    </TTGlyph>
    <TTGlyph name="ellipsis" xMin="117" yMin="-27" xMax="1634" yMax="313">
      <contour>
        <pt x="293" y="313" on="1"/>
        <pt x="374" y="313" on="0"/>
        <pt x="467" y="227" on="0"/>
        <pt x="467" y="143" on="1"/>
        <pt x="467" y="63" on="0"/>
        <pt x="373" y="-27" on="0"/>
        <pt x="293" y="-27" on="1"/>
        <pt x="210" y="-27" on="0"/>
        <pt x="117" y="62" on="0"/>
        <pt x="117" y="143" on="1"/>
        <pt x="117" y="228" on="0"/>
        <pt x="209" y="313" on="0"/>
      </contour>
      <contour>
        <pt x="877" y="313" on="1"/>
        <pt x="958" y="313" on="0"/>
        <pt x="1051" y="227" on="0"/>
        <pt x="1051" y="143" on="1"/>
        <pt x="1051" y="63" on="0"/>
        <pt x="957" y="-27" on="0"/>
        <pt x="877" y="-27" on="1"/>
        <pt x="793" y="-27" on="0"/>
        <pt x="700" y="61" on="0"/>
        <pt x="700" y="143" on="1"/>
        <pt x="700" y="228" on="0"/>
        <pt x="792" y="313" on="0"/>
      </contour>
      <contour>
        <pt x="1460" y="313" on="1"/>
        <pt x="1541" y="313" on="0"/>
        <pt x="1634" y="227" on="0"/>
        <pt x="1634" y="143" on="1"/>
        <pt x="1634" y="63" on="0"/>
        <pt x="1540" y="-27" on="0"/>
        <pt x="1460" y="-27" on="1"/>
        <pt x="1377" y="-27" on="0"/>
        <pt x="1284" y="62" on="0"/>
        <pt x="1284" y="143" on="1"/>
        <pt x="1284" y="228" on="0"/>
        <pt x="1376" y="313" on="0"/>
      </contour>
    </TTGlyph>
    <TTGlyph name="emdash" xMin="82" yMin="496" xMax="1966" yMax="726">
      <contour>
        <pt x="82" y="496" on="1"/>
        <pt x="82" y="726" on="1"/>
        <pt x="1966" y="726" on="1"/>
        <pt x="1966" y="496" on="1"/>
      </contour>
    </TTGlyph>
    <TTGlyph name="endash" xMin="82" yMin="496" xMax="942" yMax="726">
      <contour>
        <pt x="82" y="496" on="1"/>
        <pt x="82" y="726" on="1"/>
        <pt x="942" y="726" on="1"/>
        <pt x="942" y="496" on="1"/>
      </contour>
    </TTGlyph>
    <TTGlyph name="equal" xMin="108" yMin="318" xMax="1060" yMax="924">
      <contour>
        <pt x="108" y="707" on="1"/>
        <pt x="108" y="924" on="1"/>
        <pt x="1060" y="924" on="1"/>
        <pt x="1060" y="707" on="1"/>
      </contour>
      <contour>
        <pt x="108" y="318" on="1"/>
        <pt x="108" y="537" on="1"/>
        <pt x="1060" y="537" on="1"/>
        <pt x="1060" y="318" on="1"/>
      </contour>
    </TTGlyph>
    <TTGlyph name="exclam" xMin="204" yMin="-27" xMax="554" yMax="1462">
      <contour>
        <pt x="503" y="485" on="1"/>
        <pt x="259" y="485" on="1"/>
        <pt x="208" y="1462" on="1"/>
        <pt x="554" y="1462" on="1"/>
      </contour>
      <contour>
        <pt x="380" y="313" on="1"/>
        <pt x="461" y="313" on="0"/>
        <pt x="554" y="227" on="0"/>
        <pt x="554" y="143" on="1"/>
        <pt x="554" y="63" on="0"/>
        <pt x="460" y="-27" on="0"/>
        <pt x="380" y="-27" on="1"/>
        <pt x="297" y="-27" on="0"/>
        <pt x="204" y="62" on="0"/>
        <pt x="204" y="143" on="1"/>
        <pt x="204" y="228" on="0"/>
        <pt x="296" y="313" on="0"/>
      </contour>
    </TTGlyph>
    <TTGlyph name="five" xMin="86" yMin="-20" xMax="1042" yMax="1462">
      <contour>
        <pt x="86" y="59" on="1"/>
        <pt x="86" y="326" on="1"/>
        <pt x="161" y="284" on="0"/>
        <pt x="373" y="231" on="0"/>
        <pt x="457" y="231" on="1"/>
        <pt x="591" y="231" on="0"/>
        <pt x="731" y="342" on="0"/>
        <pt x="731" y="463" on="1"/>
        <pt x="731" y="684" on="0"/>
        <pt x="451" y="684" on="1"/>
        <pt x="400" y="684" on="0"/>
        <pt x="269" y="661" on="0"/>
        <pt x="238" y="651" on="1"/>
        <pt x="115" y="717" on="1"/>
        <pt x="170" y="1462" on="1"/>
        <pt x="942" y="1462" on="1"/>
        <pt x="942" y="1200" on="1"/>
        <pt x="438" y="1200" on="1"/>
        <pt x="414" y="913" on="1"/>
        <pt x="447" y="920" on="0"/>
        <pt x="531" y="934" on="0"/>
        <pt x="598" y="934" on="1"/>
        <pt x="795" y="934" on="0"/>
        <pt x="1042" y="696" on="0"/>
        <pt x="1042" y="489" on="1"/>
        <pt x="1042" y="247" on="0"/>
        <pt x="744" y="-20" on="0"/>
        <pt x="473" y="-20" on="1"/>
        <pt x="362" y="-20" on="0"/>
        <pt x="158" y="19" on="0"/>
      </contour>
    </TTGlyph>
    <TTGlyph name="four" xMin="4" yMin="0" xMax="1085" yMax="1462">
      <contour>
        <pt x="1085" y="303" on="1"/>
        <pt x="909" y="303" on="1"/>
        <pt x="909" y="0" on="1"/>
        <pt x="608" y="0" on="1"/>
        <pt x="608" y="303" on="1"/>
        <pt x="4" y="303" on="1"/>
        <pt x="4" y="518" on="1"/>
        <pt x="625" y="1462" on="1"/>
        <pt x="909" y="1462" on="1"/>
        <pt x="909" y="543" on="1"/>
        <pt x="1085" y="543" on="1"/>
      </contour>
      <contour>
        <pt x="608" y="543" on="1"/>
        <pt x="608" y="791" on="1"/>
        <pt x="608" y="843" on="0"/>
        <pt x="617" y="1053" on="0"/>
        <pt x="621" y="1096" on="1"/>
        <pt x="612" y="1096" on="1"/>
        <pt x="564" y="985" on="0"/>
        <pt x="520" y="913" on="1"/>
        <pt x="276" y="543" on="1"/>
      </contour>
    </TTGlyph>
    <TTGlyph name="glyph00063" xMin="-572" yMin="-806" xMax="177" yMax="82">
      <contour>
        <pt x="177" y="-735" on="1"/>
        <pt x="37" y="-806" on="0"/>
        <pt x="-130" y="-806" on="1"/>
        <pt x="-285" y="-806" on="0"/>
        <pt x="-484" y="-655" on="0"/>
        <pt x="-484" y="-537" on="1"/>
        <pt x="-484" y="-473" on="0"/>
        <pt x="-460" y="-422" on="1"/>
        <pt x="-572" y="-345" on="0"/>
        <pt x="-572" y="-219" on="1"/>
        <pt x="-572" y="-87" on="0"/>
        <pt x="-362" y="71" on="0"/>
        <pt x="-167" y="82" on="1"/>
        <pt x="-167" y="-115" on="1"/>
        <pt x="-251" y="-125" on="0"/>
        <pt x="-331" y="-171" on="0"/>
        <pt x="-331" y="-216" on="1"/>
        <pt x="-331" y="-297" on="0"/>
        <pt x="-206" y="-297" on="1"/>
        <pt x="-150" y="-297" on="0"/>
        <pt x="-49" y="-266" on="0"/>
        <pt x="16" y="-233" on="1"/>
        <pt x="89" y="-417" on="1"/>
        <pt x="-51" y="-488" on="0"/>
        <pt x="-218" y="-488" on="1"/>
        <pt x="-227" y="-488" on="1"/>
        <pt x="-243" y="-508" on="0"/>
        <pt x="-243" y="-534" on="1"/>
        <pt x="-243" y="-573" on="0"/>
        <pt x="-186" y="-615" on="0"/>
        <pt x="-118" y="-615" on="1"/>
        <pt x="-63" y="-615" on="0"/>
        <pt x="37" y="-585" on="0"/>
        <pt x="104" y="-551" on="1"/>
      </contour>
      <contour>
        <pt x="-442" y="0" on="1"/>
      </contour>
    </TTGlyph>
    <TTGlyph name="glyph00074" xMin="-1053" yMin="-806" xMax="194" yMax="19">
      <contour>
        <pt x="194" y="-751" on="1"/>
        <pt x="76" y="-806" on="0"/>
        <pt x="-57" y="-806" on="1"/>
        <pt x="-183" y="-806" on="0"/>
        <pt x="-345" y="-678" on="0"/>
        <pt x="-345" y="-577" on="1"/>
        <pt x="-345" y="-494" on="0"/>
        <pt x="-243" y="-375" on="0"/>
        <pt x="-146" y="-346" on="1"/>
        <pt x="-137" y="-314" on="0"/>
        <pt x="-137" y="-286" on="1"/>
        <pt x="-137" y="-230" on="0"/>
        <pt x="-188" y="-172" on="0"/>
        <pt x="-234" y="-172" on="1"/>
        <pt x="-293" y="-172" on="0"/>
        <pt x="-392" y="-276" on="0"/>
        <pt x="-419" y="-373" on="1"/>
        <pt x="-636" y="-313" on="1"/>
        <pt x="-620" y="-255" on="0"/>
        <pt x="-601" y="-215" on="1"/>
        <pt x="-656" y="-173" on="0"/>
        <pt x="-714" y="-173" on="1"/>
        <pt x="-762" y="-173" on="0"/>
        <pt x="-819" y="-228" on="0"/>
        <pt x="-819" y="-273" on="1"/>
        <pt x="-819" y="-315" on="0"/>
        <pt x="-785" y="-393" on="0"/>
        <pt x="-697" y="-492" on="0"/>
        <pt x="-619" y="-554" on="1"/>
        <pt x="-781" y="-705" on="1"/>
        <pt x="-924" y="-574" on="0"/>
        <pt x="-1053" y="-365" on="0"/>
        <pt x="-1053" y="-261" on="1"/>
        <pt x="-1053" y="-127" on="0"/>
        <pt x="-886" y="19" on="0"/>
        <pt x="-760" y="19" on="1"/>
        <pt x="-684" y="19" on="0"/>
        <pt x="-558" y="-20" on="0"/>
        <pt x="-489" y="-65" on="1"/>
        <pt x="-384" y="19" on="0"/>
        <pt x="-218" y="19" on="1"/>
        <pt x="-76" y="19" on="0"/>
        <pt x="95" y="-136" on="0"/>
        <pt x="95" y="-267" on="1"/>
        <pt x="95" y="-366" on="0"/>
        <pt x="47" y="-469" on="1"/>
        <pt x="-45" y="-476" on="0"/>
        <pt x="-140" y="-528" on="0"/>
        <pt x="-140" y="-565" on="1"/>
        <pt x="-140" y="-639" on="0"/>
        <pt x="-41" y="-639" on="1"/>
        <pt x="34" y="-639" on="0"/>
        <pt x="131" y="-590" on="1"/>
      </contour>
      <contour>
        <pt x="-442" y="0" on="1"/>
      </contour>
    </TTGlyph>
    <TTGlyph name="glyph00075" xMin="-1053" yMin="-806" xMax="365" yMax="19">
      <contour>
        <pt x="365" y="-756" on="1"/>
        <pt x="250" y="-806" on="0"/>
        <pt x="114" y="-806" on="1"/>
        <pt x="-13" y="-806" on="0"/>
        <pt x="-174" y="-695" on="0"/>
        <pt x="-174" y="-609" on="1"/>
        <pt x="-174" y="-575" on="0"/>
        <pt x="-162" y="-545" on="1"/>
        <pt x="-277" y="-489" on="0"/>
        <pt x="-277" y="-384" on="1"/>
        <pt x="-277" y="-272" on="0"/>
        <pt x="-155" y="-210" on="1"/>
        <pt x="-180" y="-172" on="0"/>
        <pt x="-234" y="-172" on="1"/>
        <pt x="-293" y="-172" on="0"/>
        <pt x="-392" y="-276" on="0"/>
        <pt x="-419" y="-373" on="1"/>
        <pt x="-636" y="-313" on="1"/>
        <pt x="-620" y="-255" on="0"/>
        <pt x="-601" y="-215" on="1"/>
        <pt x="-656" y="-173" on="0"/>
        <pt x="-714" y="-173" on="1"/>
        <pt x="-764" y="-173" on="0"/>
        <pt x="-819" y="-227" on="0"/>
        <pt x="-819" y="-273" on="1"/>
        <pt x="-819" y="-315" on="0"/>
        <pt x="-785" y="-393" on="0"/>
        <pt x="-697" y="-492" on="0"/>
        <pt x="-619" y="-554" on="1"/>
        <pt x="-781" y="-705" on="1"/>
        <pt x="-924" y="-574" on="0"/>
        <pt x="-1053" y="-365" on="0"/>
        <pt x="-1053" y="-262" on="1"/>
        <pt x="-1053" y="-127" on="0"/>
        <pt x="-886" y="19" on="0"/>
        <pt x="-759" y="19" on="1"/>
        <pt x="-683" y="19" on="0"/>
        <pt x="-558" y="-20" on="0"/>
        <pt x="-489" y="-65" on="1"/>
        <pt x="-384" y="19" on="0"/>
        <pt x="-218" y="19" on="1"/>
        <pt x="-76" y="19" on="0"/>
        <pt x="95" y="-136" on="0"/>
        <pt x="95" y="-267" on="1"/>
        <pt x="95" y="-278" on="1"/>
        <pt x="95" y="-284" on="0"/>
        <pt x="94" y="-290" on="1"/>
        <pt x="-72" y="-302" on="0"/>
        <pt x="-72" y="-371" on="1"/>
        <pt x="-72" y="-435" on="0"/>
        <pt x="27" y="-435" on="1"/>
        <pt x="102" y="-435" on="0"/>
        <pt x="199" y="-386" on="1"/>
        <pt x="262" y="-531" on="1"/>
        <pt x="150" y="-578" on="0"/>
        <pt x="33" y="-581" on="1"/>
        <pt x="31" y="-586" on="0"/>
        <pt x="31" y="-596" on="1"/>
        <pt x="31" y="-660" on="0"/>
        <pt x="130" y="-660" on="1"/>
        <pt x="205" y="-660" on="0"/>
        <pt x="302" y="-611" on="1"/>
      </contour>
      <contour>
        <pt x="-442" y="0" on="1"/>
      </contour>
    </TTGlyph>
    <TTGlyph name="glyph00092" xMin="38" yMin="-428" xMax="1082" yMax="1234">
      <component glyphName="uni0A95" x="0" y="0" flags="0x204"/>
      <component glyphName="uni0ABC" x="1063" y="0" flags="0x4"/>
    </TTGlyph>
    <TTGlyph name="glyph00093" xMin="13" yMin="-117" xMax="1653" yMax="1234">
      <component glyphName="uni0A96" x="0" y="0" flags="0x204"/>
      <component glyphName="uni0ABC" x="1117" y="311" flags="0x4"/>
    </TTGlyph>
    <TTGlyph name="glyph00094" xMin="11" yMin="-97" xMax="1454" yMax="1234">
      <component glyphName="uni0A97" x="0" y="0" flags="0x204"/>
      <component glyphName="uni0ABC" x="1010" y="331" flags="0x4"/>
    </TTGlyph>
    <TTGlyph name="glyph00095" xMin="70" yMin="-227" xMax="1341" yMax="1234">
      <component glyphName="uni0A98" x="0" y="0" flags="0x204"/>
      <component glyphName="uni0ABC" x="1020" y="201" flags="0x4"/>
    </TTGlyph>
    <TTGlyph name="glyph00096" xMin="11" yMin="-428" xMax="1084" yMax="1234">
      <component glyphName="uni0A99" x="0" y="0" flags="0x204"/>
      <component glyphName="uni0ABC" x="1065" y="0" flags="0x4"/>
    </TTGlyph>
    <TTGlyph name="glyph00097" xMin="50" yMin="-187" xMax="1442" yMax="1234">
      <component glyphName="uni0A9A" x="0" y="0" flags="0x204"/>
      <component glyphName="uni0ABC" x="1045" y="241" flags="0x4"/>
    </TTGlyph>
    <TTGlyph name="glyph00098" xMin="70" yMin="-428" xMax="1541" yMax="1234">
      <component glyphName="uni0A9B" x="0" y="0" flags="0x204"/>
      <component glyphName="uni0ABC" x="1310" y="0" flags="0x4"/>
    </TTGlyph>
    <TTGlyph name="glyph00099" xMin="55" yMin="-428" xMax="1926" yMax="1234">
      <component glyphName="uni0A9C" x="0" y="0" flags="0x204"/>
      <component glyphName="uni0ABC" x="1790" y="0" flags="0x4"/>
    </TTGlyph>
    <TTGlyph name="glyph00100" xMin="20" yMin="-428" xMax="1481" yMax="1234">
      <component glyphName="uni0A9D" x="0" y="0" flags="0x204"/>
      <component glyphName="uni0ABC" x="1281" y="0" flags="0x4"/>
    </TTGlyph>
    <TTGlyph name="glyph00101" xMin="11" yMin="-97" xMax="1512" yMax="1234">
      <component glyphName="uni0A9E" x="0" y="0" flags="0x204"/>
      <component glyphName="uni0ABC" x="1010" y="331" flags="0x4"/>
    </TTGlyph>
    <TTGlyph name="glyph00102" xMin="69" yMin="-428" xMax="1012" yMax="1234">
      <component glyphName="uni0A9F" x="0" y="0" flags="0x204"/>
      <component glyphName="uni0ABC" x="1008" y="0" flags="0x4"/>
    </TTGlyph>
    <TTGlyph name="glyph00103" xMin="67" yMin="-428" xMax="1076" yMax="1234">
      <component glyphName="uni0AA0" x="0" y="0" flags="0x204"/>
      <component glyphName="uni0ABC" x="1072" y="0" flags="0x4"/>
    </TTGlyph>
    <TTGlyph name="glyph00104" xMin="11" yMin="-428" xMax="1020" yMax="1234">
      <component glyphName="uni0AA1" x="0" y="0" flags="0x204"/>
      <component glyphName="uni0ABC" x="1044" y="0" flags="0x4"/>
    </TTGlyph>
    <TTGlyph name="glyph00105" xMin="70" yMin="-428" xMax="1097" yMax="1234">
      <component glyphName="uni0AA2" x="0" y="0" flags="0x204"/>
      <component glyphName="uni0ABC" x="1068" y="0" flags="0x4"/>
    </TTGlyph>
    <TTGlyph name="glyph00106" xMin="138" yMin="-428" xMax="1840" yMax="1234">
      <component glyphName="uni0AA3" x="0" y="0" flags="0x204"/>
      <component glyphName="uni0ABC" x="970" y="0" flags="0x4"/>
    </TTGlyph>
    <TTGlyph name="glyph00107" xMin="70" yMin="-400" xMax="1266" yMax="1234">
      <component glyphName="uni0AA4" x="0" y="0" flags="0x204"/>
      <component glyphName="uni0ABC" x="1025" y="28" flags="0x4"/>
    </TTGlyph>
    <TTGlyph name="glyph00108" xMin="74" yMin="-163" xMax="1403" yMax="1234">
      <component glyphName="uni0AA5" x="0" y="0" flags="0x204"/>
      <component glyphName="uni0ABC" x="1044" y="265" flags="0x4"/>
    </TTGlyph>
    <TTGlyph name="glyph00109" xMin="70" yMin="-428" xMax="1042" yMax="1234">
      <component glyphName="uni0AA6" x="0" y="0" flags="0x204"/>
      <component glyphName="uni0ABC" x="1027" y="0" flags="0x4"/>
    </TTGlyph>
    <TTGlyph name="glyph00110" xMin="70" yMin="-227" xMax="1321" yMax="1332">
      <component glyphName="uni0AA7" x="0" y="0" flags="0x204"/>
      <component glyphName="uni0ABC" x="1020" y="201" flags="0x4"/>
    </TTGlyph>
    <TTGlyph name="glyph00111" xMin="43" yMin="-67" xMax="1241" yMax="1234">
      <component glyphName="uni0AA8" x="0" y="0" flags="0x204"/>
      <component glyphName="uni0ABC" x="962" y="361" flags="0x4"/>
    </TTGlyph>
    <TTGlyph name="glyph00112" xMin="13" yMin="-128" xMax="1237" yMax="1234">
      <component glyphName="uni0AAA" x="0" y="0" flags="0x204"/>
      <component glyphName="uni0ABC" x="926" y="300" flags="0x4"/>
    </TTGlyph>
    <TTGlyph name="glyph00113" xMin="66" yMin="-537" xMax="1082" yMax="1234">
      <component glyphName="uni0AAB" x="0" y="0" flags="0x204"/>
      <component glyphName="uni0ABC" x="800" y="-109" flags="0x4"/>
    </TTGlyph>
    <TTGlyph name="glyph00114" xMin="70" yMin="-137" xMax="1625" yMax="1234">
      <component glyphName="uni0AAC" x="0" y="0" flags="0x204"/>
      <component glyphName="uni0ABC" x="1170" y="291" flags="0x4"/>
    </TTGlyph>
    <TTGlyph name="glyph00115" xMin="70" yMin="-137" xMax="1755" yMax="1234">
      <component glyphName="uni0AAD" x="0" y="0" flags="0x204"/>
      <component glyphName="uni0ABC" x="1424" y="291" flags="0x4"/>
    </TTGlyph>
    <TTGlyph name="glyph00116" xMin="77" yMin="-218" xMax="1283" yMax="1234">
      <component glyphName="uni0AAE" x="0" y="0" flags="0x204"/>
      <component glyphName="uni0ABC" x="987" y="210" flags="0x4"/>
    </TTGlyph>
    <TTGlyph name="glyph00117" xMin="28" yMin="-128" xMax="1320" yMax="1234">
      <component glyphName="uni0AAF" x="0" y="0" flags="0x204"/>
      <component glyphName="uni0ABC" x="971" y="300" flags="0x4"/>
    </TTGlyph>
    <TTGlyph name="glyph00118" xMin="58" yMin="-348" xMax="974" yMax="1234">
      <component glyphName="uni0AB0" x="0" y="0" flags="0x204"/>
      <component glyphName="uni0ABC" x="967" y="80" flags="0x4"/>
    </TTGlyph>
    <TTGlyph name="glyph00119" xMin="70" yMin="-267" xMax="1430" yMax="1234">
      <component glyphName="uni0AB2" x="0" y="0" flags="0x204"/>
      <component glyphName="uni0ABC" x="1078" y="161" flags="0x4"/>
    </TTGlyph>
    <TTGlyph name="glyph00120" xMin="70" yMin="-172" xMax="1631" yMax="1234">
      <component glyphName="uni0AB3" x="0" y="0" flags="0x204"/>
      <component glyphName="uni0ABC" x="1199" y="256" flags="0x4"/>
    </TTGlyph>
    <TTGlyph name="glyph00121" xMin="70" yMin="-128" xMax="1260" yMax="1234">
      <component glyphName="uni0AB5" x="0" y="0" flags="0x204"/>
      <component glyphName="uni0ABC" x="967" y="300" flags="0x4"/>
    </TTGlyph>
    <TTGlyph name="glyph00122" xMin="47" yMin="-348" xMax="1514" yMax="1234">
      <component glyphName="uni0AB6" x="0" y="0" flags="0x204"/>
      <component glyphName="uni0ABC" x="967" y="80" flags="0x4"/>
    </TTGlyph>
    <TTGlyph name="glyph00123" xMin="13" yMin="-128" xMax="1252" yMax="1234">
      <component glyphName="uni0AB7" x="0" y="0" flags="0x204"/>
      <component glyphName="uni0ABC" x="935" y="300" flags="0x4"/>
    </TTGlyph>
    <TTGlyph name="glyph00124" xMin="53" yMin="-348" xMax="1544" yMax="1234">
      <component glyphName="uni0AB8" x="0" y="0" flags="0x204"/>
      <component glyphName="uni0ABC" x="967" y="80" flags="0x4"/>
    </TTGlyph>
    <TTGlyph name="glyph00125" xMin="74" yMin="-428" xMax="1370" yMax="1234">
      <component glyphName="uni0AB9" x="0" y="0" flags="0x204"/>
      <component glyphName="uni0ABC" x="1189" y="0" flags="0x4"/>
    </TTGlyph>
    <TTGlyph name="glyph00126" xMin="75" yMin="-112" xMax="1592" yMax="1234">
      <contour>
        <pt x="1158" y="569" on="1"/>
        <pt x="1030" y="510" on="0"/>
        <pt x="823" y="510" on="1"/>
        <pt x="747" y="510" on="0"/>
        <pt x="590" y="539" on="0"/>
        <pt x="510" y="569" on="1"/>
        <pt x="436" y="535" on="0"/>
        <pt x="350" y="455" on="0"/>
        <pt x="350" y="399" on="1"/>
        <pt x="350" y="341" on="0"/>
        <pt x="453" y="279" on="0"/>
        <pt x="549" y="279" on="1"/>
        <pt x="580" y="279" on="0"/>
        <pt x="615" y="283" on="1"/>
        <pt x="615" y="293" on="1"/>
        <pt x="615" y="362" on="0"/>
        <pt x="699" y="441" on="0"/>
        <pt x="772" y="441" on="1"/>
        <pt x="844" y="441" on="0"/>
        <pt x="931" y="351" on="0"/>
        <pt x="931" y="285" on="1"/>
        <pt x="931" y="224" on="0"/>
        <pt x="899" y="176" on="1"/>
        <pt x="922" y="143" on="0"/>
        <pt x="978" y="114" on="0"/>
        <pt x="1035" y="114" on="1"/>
        <pt x="1071" y="114" on="1"/>
        <pt x="1044" y="-112" on="1"/>
        <pt x="1017" y="-112" on="1"/>
        <pt x="900" y="-112" on="0"/>
        <pt x="737" y="-28" on="0"/>
        <pt x="680" y="63" on="1"/>
        <pt x="627" y="53" on="0"/>
        <pt x="542" y="53" on="1"/>
        <pt x="320" y="53" on="0"/>
        <pt x="75" y="235" on="0"/>
        <pt x="75" y="387" on="1"/>
        <pt x="75" y="485" on="0"/>
        <pt x="176" y="622" on="0"/>
        <pt x="291" y="685" on="1"/>
        <pt x="216" y="742" on="0"/>
        <pt x="141" y="877" on="0"/>
        <pt x="141" y="956" on="1"/>
        <pt x="141" y="1078" on="0"/>
        <pt x="343" y="1234" on="0"/>
        <pt x="521" y="1234" on="1"/>
        <pt x="702" y="1234" on="0"/>
        <pt x="903" y="1095" on="0"/>
        <pt x="903" y="970" on="1"/>
        <pt x="903" y="906" on="0"/>
        <pt x="834" y="788" on="0"/>
        <pt x="765" y="733" on="1"/>
        <pt x="784" y="731" on="0"/>
        <pt x="828" y="731" on="1"/>
        <pt x="1015" y="731" on="0"/>
        <pt x="1158" y="815" on="1"/>
        <pt x="1158" y="1234" on="1"/>
        <pt x="1433" y="1212" on="1"/>
        <pt x="1433" y="383" on="1"/>
        <pt x="1433" y="332" on="0"/>
        <pt x="1449" y="273" on="0"/>
        <pt x="1485" y="242" on="0"/>
        <pt x="1533" y="233" on="0"/>
        <pt x="1592" y="233" on="1"/>
        <pt x="1572" y="0" on="1"/>
        <pt x="1517" y="0" on="1"/>
        <pt x="1409" y="0" on="0"/>
        <pt x="1269" y="43" on="0"/>
        <pt x="1189" y="138" on="0"/>
        <pt x="1158" y="252" on="0"/>
        <pt x="1158" y="350" on="1"/>
      </contour>
      <contour>
        <pt x="515" y="793" on="1"/>
        <pt x="578" y="825" on="0"/>
        <pt x="641" y="895" on="0"/>
        <pt x="641" y="933" on="1"/>
        <pt x="641" y="976" on="0"/>
        <pt x="581" y="1026" on="0"/>
        <pt x="524" y="1026" on="1"/>
        <pt x="469" y="1026" on="0"/>
        <pt x="403" y="972" on="0"/>
        <pt x="403" y="927" on="1"/>
        <pt x="403" y="892" on="0"/>
        <pt x="460" y="822" on="0"/>
      </contour>
    </TTGlyph>
    <TTGlyph name="glyph00127" xMin="57" yMin="-132" xMax="1529" yMax="1234">
      <contour>
        <pt x="1095" y="796" on="1"/>
        <pt x="1046" y="784" on="0"/>
        <pt x="989" y="784" on="1"/>
        <pt x="931" y="784" on="0"/>
        <pt x="824" y="807" on="0"/>
        <pt x="725" y="852" on="0"/>
        <pt x="619" y="912" on="1"/>
        <pt x="525" y="964" on="0"/>
        <pt x="467" y="964" on="1"/>
        <pt x="380" y="964" on="0"/>
        <pt x="380" y="895" on="1"/>
        <pt x="380" y="853" on="0"/>
        <pt x="453" y="803" on="0"/>
        <pt x="572" y="780" on="1"/>
        <pt x="766" y="743" on="0"/>
        <pt x="944" y="585" on="0"/>
        <pt x="944" y="454" on="1"/>
        <pt x="944" y="320" on="0"/>
        <pt x="761" y="149" on="0"/>
        <pt x="595" y="128" on="1"/>
        <pt x="661" y="84" on="0"/>
        <pt x="761" y="84" on="1"/>
        <pt x="816" y="84" on="1"/>
        <pt x="787" y="-132" on="1"/>
        <pt x="748" y="-132" on="1"/>
        <pt x="610" y="-132" on="0"/>
        <pt x="387" y="-4" on="0"/>
        <pt x="286" y="136" on="1"/>
        <pt x="57" y="175" on="0"/>
        <pt x="57" y="327" on="1"/>
        <pt x="57" y="382" on="0"/>
        <pt x="138" y="457" on="0"/>
        <pt x="202" y="457" on="1"/>
        <pt x="261" y="457" on="0"/>
        <pt x="365" y="408" on="0"/>
        <pt x="432" y="340" on="1"/>
        <pt x="459" y="337" on="0"/>
        <pt x="489" y="337" on="1"/>
        <pt x="578" y="337" on="0"/>
        <pt x="672" y="394" on="0"/>
        <pt x="672" y="445" on="1"/>
        <pt x="672" y="496" on="0"/>
        <pt x="593" y="545" on="0"/>
        <pt x="506" y="561" on="1"/>
        <pt x="298" y="598" on="0"/>
        <pt x="112" y="766" on="0"/>
        <pt x="112" y="907" on="1"/>
        <pt x="112" y="1030" on="0"/>
        <pt x="298" y="1196" on="0"/>
        <pt x="457" y="1196" on="1"/>
        <pt x="597" y="1196" on="0"/>
        <pt x="760" y="1106" on="1"/>
        <pt x="844" y="1060" on="0"/>
        <pt x="955" y="1016" on="0"/>
        <pt x="1008" y="1016" on="1"/>
        <pt x="1061" y="1016" on="0"/>
        <pt x="1095" y="1029" on="1"/>
        <pt x="1095" y="1234" on="1"/>
        <pt x="1370" y="1212" on="1"/>
        <pt x="1370" y="383" on="1"/>
        <pt x="1370" y="332" on="0"/>
        <pt x="1386" y="273" on="0"/>
        <pt x="1422" y="242" on="0"/>
        <pt x="1470" y="233" on="0"/>
        <pt x="1529" y="233" on="1"/>
        <pt x="1509" y="0" on="1"/>
        <pt x="1454" y="0" on="1"/>
        <pt x="1312" y="0" on="0"/>
        <pt x="1168" y="71" on="0"/>
        <pt x="1095" y="216" on="0"/>
        <pt x="1095" y="362" on="1"/>
      </contour>
    </TTGlyph>
    <TTGlyph name="glyph00128" xMin="-529" yMin="1234" xMax="77" yMax="1836">
      <contour>
        <pt x="-446" y="1277" on="1"/>
        <pt x="-529" y="1408" on="0"/>
        <pt x="-529" y="1527" on="1"/>
        <pt x="-529" y="1673" on="0"/>
        <pt x="-331" y="1836" on="0"/>
        <pt x="-162" y="1836" on="1"/>
        <pt x="-35" y="1836" on="0"/>
        <pt x="77" y="1805" on="1"/>
        <pt x="27" y="1609" on="1"/>
        <pt x="-33" y="1630" on="0"/>
        <pt x="-104" y="1630" on="1"/>
        <pt x="-177" y="1630" on="0"/>
        <pt x="-256" y="1557" on="0"/>
        <pt x="-256" y="1486" on="1"/>
        <pt x="-256" y="1403" on="0"/>
        <pt x="-201" y="1313" on="1"/>
      </contour>
      <contour>
        <pt x="-442" y="1234" on="1"/>
      </contour>
      <contour>
        <pt x="-382" y="1234" on="1"/>
      </contour>
    </TTGlyph>
    <TTGlyph name="glyph00129" xMin="-996" yMin="-526" xMax="-41" yMax="0">
      <contour>
        <pt x="-440" y="-254" on="1"/>
        <pt x="-853" y="-526" on="1"/>
        <pt x="-996" y="-309" on="1"/>
        <pt x="-513" y="-37" on="1"/>
        <pt x="-351" y="-37" on="1"/>
        <pt x="-41" y="-373" on="1"/>
        <pt x="-227" y="-500" on="1"/>
      </contour>
      <contour>
        <pt x="-518" y="0" on="1"/>
      </contour>
    </TTGlyph>
    <TTGlyph name="glyph00130" xMin="38" yMin="-21" xMax="1162" yMax="1234">
      <contour>
        <pt x="812" y="986" on="1"/>
        <pt x="723" y="1005" on="0"/>
        <pt x="632" y="1005" on="1"/>
        <pt x="457" y="1005" on="0"/>
        <pt x="457" y="906" on="1"/>
        <pt x="457" y="873" on="0"/>
        <pt x="509" y="813" on="0"/>
        <pt x="575" y="777" on="1"/>
        <pt x="576" y="778" on="1"/>
        <pt x="1162" y="778" on="1"/>
        <pt x="1162" y="550" on="1"/>
        <pt x="1009" y="550" on="1"/>
        <pt x="934" y="550" on="0"/>
        <pt x="896" y="554" on="1"/>
        <pt x="953" y="508" on="0"/>
        <pt x="1006" y="394" on="0"/>
        <pt x="1006" y="317" on="1"/>
        <pt x="1006" y="163" on="0"/>
        <pt x="765" y="-21" on="0"/>
        <pt x="533" y="-21" on="1"/>
        <pt x="254" y="-21" on="0"/>
        <pt x="38" y="112" on="1"/>
        <pt x="168" y="311" on="1"/>
        <pt x="272" y="257" on="0"/>
        <pt x="428" y="214" on="0"/>
        <pt x="509" y="214" on="1"/>
        <pt x="612" y="214" on="0"/>
        <pt x="725" y="281" on="0"/>
        <pt x="725" y="341" on="1"/>
        <pt x="725" y="400" on="0"/>
        <pt x="624" y="488" on="0"/>
        <pt x="543" y="523" on="1"/>
        <pt x="157" y="384" on="1"/>
        <pt x="66" y="604" on="1"/>
        <pt x="317" y="688" on="1"/>
        <pt x="247" y="743" on="0"/>
        <pt x="178" y="865" on="0"/>
        <pt x="178" y="932" on="1"/>
        <pt x="178" y="1069" on="0"/>
        <pt x="417" y="1234" on="0"/>
        <pt x="620" y="1234" on="1"/>
        <pt x="758" y="1234" on="0"/>
        <pt x="858" y="1209" on="1"/>
      </contour>
    </TTGlyph>
    <TTGlyph name="glyph00131" xMin="13" yMin="321" xMax="1271" yMax="1212">
      <contour>
        <pt x="1271" y="573" on="1"/>
        <pt x="1221" y="540" on="0"/>
        <pt x="1137" y="518" on="0"/>
        <pt x="1083" y="518" on="1"/>
        <pt x="1012" y="518" on="0"/>
        <pt x="962" y="544" on="1"/>
        <pt x="922" y="429" on="0"/>
        <pt x="734" y="321" on="0"/>
        <pt x="572" y="321" on="1"/>
        <pt x="470" y="321" on="0"/>
        <pt x="318" y="371" on="0"/>
        <pt x="212" y="481" on="0"/>
        <pt x="172" y="624" on="0"/>
        <pt x="172" y="743" on="1"/>
        <pt x="172" y="829" on="1"/>
        <pt x="172" y="880" on="0"/>
        <pt x="156" y="940" on="0"/>
        <pt x="119" y="971" on="0"/>
        <pt x="71" y="979" on="0"/>
        <pt x="13" y="979" on="1"/>
        <pt x="33" y="1212" on="1"/>
        <pt x="88" y="1212" on="1"/>
        <pt x="198" y="1212" on="0"/>
        <pt x="338" y="1167" on="0"/>
        <pt x="416" y="1070" on="0"/>
        <pt x="447" y="947" on="0"/>
        <pt x="447" y="849" on="1"/>
        <pt x="447" y="737" on="1"/>
        <pt x="447" y="654" on="0"/>
        <pt x="479" y="585" on="0"/>
        <pt x="540" y="554" on="0"/>
        <pt x="575" y="554" on="1"/>
        <pt x="633" y="554" on="0"/>
        <pt x="694" y="596" on="0"/>
        <pt x="726" y="676" on="0"/>
        <pt x="726" y="754" on="1"/>
        <pt x="726" y="998" on="1"/>
        <pt x="1001" y="976" on="1"/>
        <pt x="1001" y="795" on="1"/>
        <pt x="1025" y="751" on="0"/>
        <pt x="1084" y="751" on="1"/>
        <pt x="1142" y="751" on="0"/>
        <pt x="1188" y="782" on="1"/>
      </contour>
    </TTGlyph>
    <TTGlyph name="glyph00132" xMin="11" yMin="339" xMax="871" yMax="1234">
      <contour>
        <pt x="11" y="618" on="1"/>
        <pt x="213" y="738" on="1"/>
        <pt x="269" y="650" on="0"/>
        <pt x="376" y="575" on="0"/>
        <pt x="440" y="575" on="1"/>
        <pt x="522" y="575" on="0"/>
        <pt x="596" y="673" on="0"/>
        <pt x="596" y="776" on="1"/>
        <pt x="596" y="892" on="0"/>
        <pt x="505" y="1003" on="0"/>
        <pt x="401" y="1003" on="1"/>
        <pt x="293" y="1003" on="0"/>
        <pt x="184" y="955" on="1"/>
        <pt x="109" y="1165" on="1"/>
        <pt x="257" y="1234" on="0"/>
        <pt x="434" y="1234" on="1"/>
        <pt x="639" y="1234" on="0"/>
        <pt x="871" y="988" on="0"/>
        <pt x="871" y="771" on="1"/>
        <pt x="871" y="560" on="0"/>
        <pt x="655" y="339" on="0"/>
        <pt x="467" y="339" on="1"/>
        <pt x="327" y="339" on="0"/>
        <pt x="104" y="474" on="0"/>
      </contour>
    </TTGlyph>
    <TTGlyph name="glyph00133" xMin="70" yMin="210" xMax="979" yMax="1234">
      <contour>
        <pt x="979" y="332" on="1"/>
        <pt x="855" y="260" on="0"/>
        <pt x="671" y="210" on="0"/>
        <pt x="554" y="210" on="1"/>
        <pt x="381" y="210" on="0"/>
        <pt x="156" y="387" on="0"/>
        <pt x="156" y="534" on="1"/>
        <pt x="156" y="627" on="0"/>
        <pt x="203" y="698" on="1"/>
        <pt x="70" y="810" on="0"/>
        <pt x="70" y="958" on="1"/>
        <pt x="70" y="1086" on="0"/>
        <pt x="272" y="1234" on="0"/>
        <pt x="451" y="1234" on="1"/>
        <pt x="575" y="1234" on="0"/>
        <pt x="674" y="1211" on="1"/>
        <pt x="629" y="993" on="1"/>
        <pt x="577" y="1006" on="0"/>
        <pt x="486" y="1006" on="1"/>
        <pt x="412" y="1006" on="0"/>
        <pt x="341" y="962" on="0"/>
        <pt x="341" y="925" on="1"/>
        <pt x="341" y="870" on="0"/>
        <pt x="399" y="833" on="1"/>
        <pt x="469" y="852" on="0"/>
        <pt x="546" y="852" on="1"/>
        <pt x="628" y="852" on="0"/>
        <pt x="703" y="835" on="1"/>
        <pt x="668" y="613" on="1"/>
        <pt x="616" y="624" on="0"/>
        <pt x="555" y="624" on="1"/>
        <pt x="489" y="624" on="0"/>
        <pt x="424" y="577" on="0"/>
        <pt x="424" y="536" on="1"/>
        <pt x="424" y="441" on="0"/>
        <pt x="575" y="441" on="1"/>
        <pt x="658" y="441" on="0"/>
        <pt x="804" y="495" on="0"/>
        <pt x="881" y="553" on="1"/>
      </contour>
    </TTGlyph>
    <TTGlyph name="glyph00134" xMin="11" yMin="-548" xMax="1103" yMax="1234">
      <component glyphName="uni0A99" x="0" y="0" flags="0x204"/>
      <component glyphName="uni0ACD" x="750" y="0" flags="0x4"/>
    </TTGlyph>
    <TTGlyph name="glyph00135" xMin="50" yMin="236" xMax="1075" yMax="1234">
      <contour>
        <pt x="126" y="966" on="1"/>
        <pt x="50" y="1172" on="1"/>
        <pt x="204" y="1234" on="0"/>
        <pt x="348" y="1234" on="1"/>
        <pt x="551" y="1234" on="0"/>
        <pt x="778" y="1036" on="0"/>
        <pt x="778" y="864" on="1"/>
        <pt x="778" y="750" on="0"/>
        <pt x="669" y="569" on="0"/>
        <pt x="562" y="512" on="1"/>
        <pt x="629" y="466" on="0"/>
        <pt x="716" y="466" on="1"/>
        <pt x="789" y="466" on="0"/>
        <pt x="909" y="512" on="0"/>
        <pt x="966" y="557" on="1"/>
        <pt x="1075" y="351" on="1"/>
        <pt x="930" y="236" on="0"/>
        <pt x="717" y="236" on="1"/>
        <pt x="560" y="236" on="0"/>
        <pt x="365" y="343" on="0"/>
        <pt x="294" y="445" on="1"/>
        <pt x="262" y="445" on="1"/>
        <pt x="161" y="445" on="0"/>
        <pt x="54" y="528" on="0"/>
        <pt x="54" y="604" on="1"/>
        <pt x="54" y="671" on="0"/>
        <pt x="133" y="740" on="0"/>
        <pt x="209" y="740" on="1"/>
        <pt x="302" y="740" on="0"/>
        <pt x="382" y="670" on="1"/>
        <pt x="445" y="697" on="0"/>
        <pt x="513" y="789" on="0"/>
        <pt x="513" y="849" on="1"/>
        <pt x="513" y="926" on="0"/>
        <pt x="419" y="1007" on="0"/>
        <pt x="327" y="1007" on="1"/>
        <pt x="224" y="1007" on="0"/>
      </contour>
    </TTGlyph>
    <TTGlyph name="glyph00136" xMin="70" yMin="-548" xMax="1541" yMax="1234">
      <component glyphName="uni0A9B" x="0" y="0" flags="0x204"/>
      <component glyphName="uni0ACD" x="994" y="0" flags="0x4"/>
    </TTGlyph>
    <TTGlyph name="glyph00137" xMin="55" yMin="-21" xMax="1885" yMax="1234">
      <contour>
        <pt x="1437" y="877" on="1"/>
        <pt x="1532" y="894" on="0"/>
        <pt x="1694" y="894" on="1"/>
        <pt x="1885" y="894" on="1"/>
        <pt x="1885" y="666" on="1"/>
        <pt x="1617" y="666" on="1"/>
        <pt x="1604" y="666" on="1"/>
        <pt x="1598" y="665" on="0"/>
        <pt x="1592" y="665" on="1"/>
        <pt x="1638" y="594" on="0"/>
        <pt x="1684" y="445" on="0"/>
        <pt x="1684" y="366" on="1"/>
        <pt x="1684" y="184" on="0"/>
        <pt x="1467" y="-21" on="0"/>
        <pt x="1273" y="-21" on="1"/>
        <pt x="1083" y="-21" on="0"/>
        <pt x="872" y="188" on="0"/>
        <pt x="872" y="354" on="1"/>
        <pt x="872" y="500" on="0"/>
        <pt x="1018" y="721" on="0"/>
        <pt x="1159" y="791" on="1"/>
        <pt x="1086" y="854" on="0"/>
        <pt x="914" y="944" on="0"/>
        <pt x="815" y="970" on="1"/>
        <pt x="845" y="885" on="0"/>
        <pt x="845" y="810" on="1"/>
        <pt x="845" y="656" on="0"/>
        <pt x="641" y="473" on="0"/>
        <pt x="443" y="473" on="1"/>
        <pt x="265" y="473" on="0"/>
        <pt x="55" y="675" on="0"/>
        <pt x="55" y="840" on="1"/>
        <pt x="55" y="950" on="0"/>
        <pt x="182" y="1132" on="0"/>
        <pt x="419" y="1234" on="0"/>
        <pt x="576" y="1234" on="1"/>
        <pt x="831" y="1234" on="0"/>
        <pt x="1244" y="1064" on="0"/>
      </contour>
      <contour>
        <pt x="559" y="1012" on="1"/>
        <pt x="449" y="1012" on="0"/>
        <pt x="326" y="918" on="0"/>
        <pt x="326" y="841" on="1"/>
        <pt x="326" y="776" on="0"/>
        <pt x="393" y="703" on="0"/>
        <pt x="451" y="703" on="1"/>
        <pt x="521" y="703" on="0"/>
        <pt x="597" y="783" on="0"/>
        <pt x="597" y="848" on="1"/>
        <pt x="597" y="935" on="0"/>
      </contour>
      <contour>
        <pt x="1319" y="617" on="1"/>
        <pt x="1234" y="581" on="0"/>
        <pt x="1143" y="451" on="0"/>
        <pt x="1143" y="362" on="1"/>
        <pt x="1143" y="286" on="0"/>
        <pt x="1210" y="207" on="0"/>
        <pt x="1273" y="207" on="1"/>
        <pt x="1409" y="207" on="0"/>
        <pt x="1409" y="360" on="1"/>
        <pt x="1409" y="427" on="0"/>
        <pt x="1364" y="556" on="0"/>
      </contour>
    </TTGlyph>
    <TTGlyph name="glyph00138" xMin="20" yMin="-20" xMax="1453" yMax="1234">
      <contour>
        <pt x="20" y="265" on="1"/>
        <pt x="226" y="388" on="1"/>
        <pt x="300" y="286" on="0"/>
        <pt x="407" y="217" on="0"/>
        <pt x="476" y="217" on="1"/>
        <pt x="564" y="217" on="0"/>
        <pt x="651" y="347" on="0"/>
        <pt x="651" y="479" on="1"/>
        <pt x="651" y="626" on="0"/>
        <pt x="544" y="774" on="0"/>
        <pt x="437" y="774" on="1"/>
        <pt x="314" y="774" on="0"/>
        <pt x="201" y="722" on="1"/>
        <pt x="124" y="938" on="1"/>
        <pt x="281" y="1007" on="0"/>
        <pt x="466" y="1007" on="1"/>
        <pt x="593" y="1007" on="0"/>
        <pt x="783" y="909" on="0"/>
        <pt x="846" y="812" on="1"/>
        <pt x="903" y="830" on="0"/>
        <pt x="970" y="838" on="1"/>
        <pt x="970" y="1234" on="1"/>
        <pt x="1245" y="1212" on="1"/>
        <pt x="1245" y="814" on="1"/>
        <pt x="1304" y="793" on="0"/>
        <pt x="1408" y="715" on="0"/>
        <pt x="1453" y="658" on="1"/>
        <pt x="1219" y="502" on="1"/>
        <pt x="1173" y="562" on="0"/>
        <pt x="1094" y="613" on="0"/>
        <pt x="1031" y="613" on="1"/>
        <pt x="976" y="613" on="0"/>
        <pt x="922" y="587" on="1"/>
        <pt x="929" y="525" on="0"/>
        <pt x="929" y="476" on="1"/>
        <pt x="929" y="232" on="0"/>
        <pt x="702" y="-20" on="0"/>
        <pt x="499" y="-20" on="1"/>
        <pt x="349" y="-20" on="0"/>
        <pt x="121" y="116" on="0"/>
      </contour>
    </TTGlyph>
    <TTGlyph name="glyph00139" xMin="11" yMin="339" xMax="1112" yMax="1234">
      <contour>
        <pt x="1112" y="680" on="1"/>
        <pt x="1066" y="655" on="0"/>
        <pt x="969" y="632" on="0"/>
        <pt x="903" y="632" on="1"/>
        <pt x="874" y="632" on="0"/>
        <pt x="853" y="634" on="1"/>
        <pt x="821" y="487" on="0"/>
        <pt x="616" y="339" on="0"/>
        <pt x="467" y="339" on="1"/>
        <pt x="327" y="339" on="0"/>
        <pt x="104" y="474" on="0"/>
        <pt x="11" y="618" on="1"/>
        <pt x="213" y="738" on="1"/>
        <pt x="269" y="650" on="0"/>
        <pt x="376" y="575" on="0"/>
        <pt x="440" y="575" on="1"/>
        <pt x="522" y="575" on="0"/>
        <pt x="596" y="674" on="0"/>
        <pt x="596" y="776" on="1"/>
        <pt x="596" y="895" on="0"/>
        <pt x="504" y="1003" on="0"/>
        <pt x="401" y="1003" on="1"/>
        <pt x="293" y="1003" on="0"/>
        <pt x="184" y="955" on="1"/>
        <pt x="109" y="1165" on="1"/>
        <pt x="257" y="1234" on="0"/>
        <pt x="434" y="1234" on="1"/>
        <pt x="611" y="1234" on="0"/>
        <pt x="835" y="1044" on="0"/>
        <pt x="860" y="862" on="1"/>
        <pt x="875" y="861" on="1"/>
        <pt x="917" y="858" on="0"/>
        <pt x="1012" y="879" on="0"/>
        <pt x="1047" y="902" on="1"/>
      </contour>
    </TTGlyph>
    <TTGlyph name="glyph00140" xMin="69" yMin="-548" xMax="1057" yMax="1234">
      <component glyphName="uni0A9F" x="0" y="0" flags="0x204"/>
      <component glyphName="uni0ACD" x="704" y="0" flags="0x4"/>
    </TTGlyph>
    <TTGlyph name="glyph00141" xMin="67" yMin="-548" xMax="1092" yMax="1234">
      <component glyphName="uni0AA0" x="0" y="0" flags="0x204"/>
      <component glyphName="uni0ACD" x="739" y="0" flags="0x4"/>
    </TTGlyph>
    <TTGlyph name="glyph00142" xMin="11" yMin="-548" xMax="1103" yMax="1234">
      <component glyphName="uni0AA1" x="0" y="0" flags="0x204"/>
      <component glyphName="uni0ACD" x="750" y="0" flags="0x4"/>
    </TTGlyph>
    <TTGlyph name="glyph00143" xMin="70" yMin="-548" xMax="1114" yMax="1234">
      <component glyphName="uni0AA2" x="0" y="0" flags="0x204"/>
      <component glyphName="uni0ACD" x="761" y="0" flags="0x4"/>
    </TTGlyph>
    <TTGlyph name="glyph00144" xMin="138" yMin="-327" xMax="1278" yMax="1234">
      <contour>
        <pt x="138" y="1234" on="1"/>
        <pt x="413" y="1212" on="1"/>
        <pt x="413" y="638" on="1"/>
        <pt x="413" y="547" on="0"/>
        <pt x="421" y="479" on="0"/>
        <pt x="455" y="422" on="0"/>
        <pt x="540" y="371" on="0"/>
        <pt x="706" y="302" on="1"/>
        <pt x="816" y="256" on="0"/>
        <pt x="955" y="174" on="0"/>
        <pt x="1024" y="97" on="0"/>
        <pt x="1052" y="21" on="0"/>
        <pt x="1052" y="-37" on="1"/>
        <pt x="1052" y="-104" on="0"/>
        <pt x="996" y="-229" on="0"/>
        <pt x="905" y="-327" on="1"/>
        <pt x="697" y="-175" on="1"/>
        <pt x="730" y="-147" on="0"/>
        <pt x="761" y="-89" on="0"/>
        <pt x="761" y="-68" on="1"/>
        <pt x="761" y="-38" on="0"/>
        <pt x="731" y="8" on="0"/>
        <pt x="636" y="64" on="0"/>
        <pt x="517" y="115" on="1"/>
        <pt x="368" y="178" on="0"/>
        <pt x="228" y="259" on="0"/>
        <pt x="163" y="343" on="0"/>
        <pt x="138" y="455" on="0"/>
        <pt x="138" y="568" on="1"/>
      </contour>
      <contour>
        <pt x="495" y="664" on="1"/>
        <pt x="683" y="784" on="1"/>
        <pt x="734" y="704" on="0"/>
        <pt x="824" y="638" on="0"/>
        <pt x="875" y="638" on="1"/>
        <pt x="945" y="638" on="0"/>
        <pt x="1004" y="719" on="0"/>
        <pt x="1004" y="811" on="1"/>
        <pt x="1004" y="910" on="0"/>
        <pt x="927" y="1007" on="0"/>
        <pt x="846" y="1007" on="1"/>
        <pt x="801" y="1007" on="0"/>
        <pt x="723" y="991" on="0"/>
        <pt x="662" y="966" on="1"/>
        <pt x="583" y="1170" on="1"/>
        <pt x="729" y="1234" on="0"/>
        <pt x="886" y="1234" on="1"/>
        <pt x="1068" y="1234" on="0"/>
        <pt x="1278" y="1004" on="0"/>
        <pt x="1278" y="806" on="1"/>
        <pt x="1278" y="612" on="0"/>
        <pt x="1083" y="406" on="0"/>
        <pt x="912" y="406" on="1"/>
        <pt x="783" y="406" on="0"/>
        <pt x="571" y="537" on="0"/>
      </contour>
    </TTGlyph>
    <TTGlyph name="glyph00145" xMin="70" yMin="24" xMax="832" yMax="909">
      <contour>
        <pt x="832" y="676" on="1"/>
        <pt x="621" y="676" on="1"/>
        <pt x="515" y="676" on="0"/>
        <pt x="413" y="654" on="0"/>
        <pt x="348" y="588" on="0"/>
        <pt x="348" y="535" on="1"/>
        <pt x="348" y="464" on="0"/>
        <pt x="460" y="308" on="0"/>
        <pt x="589" y="198" on="1"/>
        <pt x="403" y="24" on="1"/>
        <pt x="226" y="181" on="0"/>
        <pt x="70" y="438" on="0"/>
        <pt x="70" y="569" on="1"/>
        <pt x="70" y="671" on="0"/>
        <pt x="168" y="824" on="0"/>
        <pt x="362" y="909" on="0"/>
        <pt x="566" y="909" on="1"/>
        <pt x="832" y="909" on="1"/>
      </contour>
    </TTGlyph>
    <TTGlyph name="glyph00146" xMin="74" yMin="277" xMax="1053" yMax="1234">
      <contour>
        <pt x="1053" y="417" on="1"/>
        <pt x="952" y="344" on="0"/>
        <pt x="749" y="277" on="0"/>
        <pt x="624" y="277" on="1"/>
        <pt x="429" y="277" on="0"/>
        <pt x="151" y="474" on="0"/>
        <pt x="83" y="663" on="1"/>
        <pt x="279" y="716" on="0"/>
        <pt x="503" y="872" on="0"/>
        <pt x="503" y="961" on="1"/>
        <pt x="503" y="998" on="0"/>
        <pt x="461" y="1044" on="0"/>
        <pt x="420" y="1044" on="1"/>
        <pt x="383" y="1044" on="0"/>
        <pt x="340" y="1005" on="0"/>
        <pt x="340" y="973" on="1"/>
        <pt x="340" y="922" on="0"/>
        <pt x="394" y="881" on="1"/>
        <pt x="178" y="771" on="1"/>
        <pt x="74" y="853" on="0"/>
        <pt x="74" y="985" on="1"/>
        <pt x="74" y="1090" on="0"/>
        <pt x="259" y="1234" on="0"/>
        <pt x="415" y="1234" on="1"/>
        <pt x="587" y="1234" on="0"/>
        <pt x="764" y="1083" on="0"/>
        <pt x="764" y="960" on="1"/>
        <pt x="764" y="707" on="0"/>
        <pt x="439" y="564" on="1"/>
        <pt x="517" y="510" on="0"/>
        <pt x="637" y="510" on="1"/>
        <pt x="801" y="510" on="0"/>
        <pt x="933" y="620" on="1"/>
      </contour>
    </TTGlyph>
    <TTGlyph name="glyph00147" xMin="70" yMin="-548" xMax="1135" yMax="1234">
      <component glyphName="uni0AA6" x="0" y="0" flags="0x204"/>
      <component glyphName="uni0ACD" x="782" y="0" flags="0x4"/>
    </TTGlyph>
    <TTGlyph name="glyph00148" xMin="70" yMin="210" xMax="955" yMax="1332">
      <contour>
        <pt x="955" y="319" on="1"/>
        <pt x="852" y="258" on="0"/>
        <pt x="663" y="210" on="0"/>
        <pt x="548" y="210" on="1"/>
        <pt x="380" y="210" on="0"/>
        <pt x="155" y="388" on="0"/>
        <pt x="155" y="534" on="1"/>
        <pt x="155" y="628" on="0"/>
        <pt x="202" y="699" on="1"/>
        <pt x="70" y="811" on="0"/>
        <pt x="70" y="959" on="1"/>
        <pt x="70" y="1219" on="0"/>
        <pt x="464" y="1332" on="1"/>
        <pt x="564" y="1107" on="1"/>
        <pt x="462" y="1081" on="0"/>
        <pt x="344" y="1010" on="0"/>
        <pt x="344" y="949" on="1"/>
        <pt x="344" y="880" on="0"/>
        <pt x="406" y="835" on="1"/>
        <pt x="469" y="852" on="0"/>
        <pt x="545" y="852" on="1"/>
        <pt x="627" y="852" on="0"/>
        <pt x="702" y="835" on="1"/>
        <pt x="667" y="613" on="1"/>
        <pt x="615" y="624" on="0"/>
        <pt x="554" y="624" on="1"/>
        <pt x="488" y="624" on="0"/>
        <pt x="423" y="577" on="0"/>
        <pt x="423" y="536" on="1"/>
        <pt x="423" y="441" on="0"/>
        <pt x="579" y="441" on="1"/>
        <pt x="730" y="441" on="0"/>
        <pt x="861" y="540" on="1"/>
      </contour>
    </TTGlyph>
    <TTGlyph name="glyph00149" xMin="43" yMin="386" xMax="807" yMax="841">
      <contour>
        <pt x="807" y="608" on="1"/>
        <pt x="482" y="608" on="1"/>
        <pt x="482" y="547" on="1"/>
        <pt x="482" y="465" on="0"/>
        <pt x="416" y="386" on="0"/>
        <pt x="347" y="386" on="1"/>
        <pt x="287" y="386" on="0"/>
        <pt x="140" y="487" on="0"/>
        <pt x="43" y="636" on="0"/>
        <pt x="43" y="699" on="1"/>
        <pt x="43" y="773" on="0"/>
        <pt x="116" y="841" on="0"/>
        <pt x="187" y="841" on="1"/>
        <pt x="807" y="841" on="1"/>
      </contour>
    </TTGlyph>
    <TTGlyph name="glyph00150" xMin="13" yMin="321" xMax="859" yMax="1212">
      <contour>
        <pt x="859" y="403" on="1"/>
        <pt x="777" y="359" on="0"/>
        <pt x="631" y="321" on="0"/>
        <pt x="550" y="321" on="1"/>
        <pt x="422" y="321" on="0"/>
        <pt x="251" y="416" on="0"/>
        <pt x="172" y="580" on="0"/>
        <pt x="172" y="743" on="1"/>
        <pt x="172" y="829" on="1"/>
        <pt x="172" y="880" on="0"/>
        <pt x="156" y="940" on="0"/>
        <pt x="119" y="971" on="0"/>
        <pt x="71" y="979" on="0"/>
        <pt x="13" y="979" on="1"/>
        <pt x="33" y="1212" on="1"/>
        <pt x="88" y="1212" on="1"/>
        <pt x="198" y="1212" on="0"/>
        <pt x="338" y="1167" on="0"/>
        <pt x="416" y="1070" on="0"/>
        <pt x="447" y="947" on="0"/>
        <pt x="447" y="849" on="1"/>
        <pt x="447" y="761" on="1"/>
        <pt x="447" y="676" on="0"/>
        <pt x="472" y="594" on="0"/>
        <pt x="535" y="554" on="0"/>
        <pt x="590" y="554" on="1"/>
        <pt x="687" y="554" on="0"/>
        <pt x="778" y="625" on="1"/>
      </contour>
    </TTGlyph>
    <TTGlyph name="glyph00151" xMin="66" yMin="-340" xMax="1162" yMax="1234">
      <contour>
        <pt x="66" y="604" on="1"/>
        <pt x="317" y="688" on="1"/>
        <pt x="247" y="743" on="0"/>
        <pt x="178" y="865" on="0"/>
        <pt x="178" y="932" on="1"/>
        <pt x="178" y="1069" on="0"/>
        <pt x="417" y="1234" on="0"/>
        <pt x="620" y="1234" on="1"/>
        <pt x="758" y="1234" on="0"/>
        <pt x="858" y="1209" on="1"/>
        <pt x="812" y="986" on="1"/>
        <pt x="723" y="1005" on="0"/>
        <pt x="632" y="1005" on="1"/>
        <pt x="457" y="1005" on="0"/>
        <pt x="457" y="906" on="1"/>
        <pt x="457" y="873" on="0"/>
        <pt x="509" y="813" on="0"/>
        <pt x="575" y="777" on="1"/>
        <pt x="576" y="778" on="1"/>
        <pt x="1162" y="778" on="1"/>
        <pt x="1162" y="550" on="1"/>
        <pt x="1009" y="550" on="1"/>
        <pt x="955" y="550" on="0"/>
        <pt x="908" y="553" on="1"/>
        <pt x="957" y="506" on="0"/>
        <pt x="1006" y="388" on="0"/>
        <pt x="1006" y="317" on="1"/>
        <pt x="1006" y="178" on="0"/>
        <pt x="808" y="2" on="0"/>
        <pt x="618" y="-15" on="1"/>
        <pt x="661" y="-53" on="0"/>
        <pt x="763" y="-90" on="0"/>
        <pt x="850" y="-90" on="1"/>
        <pt x="893" y="-90" on="1"/>
        <pt x="866" y="-340" on="1"/>
        <pt x="830" y="-340" on="1"/>
        <pt x="657" y="-340" on="0"/>
        <pt x="405" y="-177" on="0"/>
        <pt x="290" y="-5" on="1"/>
        <pt x="180" y="13" on="0"/>
        <pt x="69" y="105" on="0"/>
        <pt x="69" y="189" on="1"/>
        <pt x="69" y="244" on="0"/>
        <pt x="150" y="319" on="0"/>
        <pt x="214" y="319" on="1"/>
        <pt x="271" y="319" on="0"/>
        <pt x="372" y="272" on="0"/>
        <pt x="430" y="215" on="1"/>
        <pt x="461" y="210" on="0"/>
        <pt x="509" y="210" on="1"/>
        <pt x="610" y="210" on="0"/>
        <pt x="725" y="279" on="0"/>
        <pt x="725" y="341" on="1"/>
        <pt x="725" y="400" on="0"/>
        <pt x="624" y="488" on="0"/>
        <pt x="543" y="523" on="1"/>
        <pt x="157" y="384" on="1"/>
      </contour>
    </TTGlyph>
    <TTGlyph name="glyph00152" xMin="70" yMin="305" xMax="1243" yMax="1234">
      <contour>
        <pt x="1243" y="509" on="1"/>
        <pt x="1193" y="476" on="0"/>
        <pt x="1109" y="454" on="0"/>
        <pt x="1055" y="454" on="1"/>
        <pt x="969" y="454" on="0"/>
        <pt x="914" y="492" on="1"/>
        <pt x="866" y="398" on="0"/>
        <pt x="677" y="305" on="0"/>
        <pt x="527" y="305" on="1"/>
        <pt x="320" y="305" on="0"/>
        <pt x="70" y="536" on="0"/>
        <pt x="70" y="731" on="1"/>
        <pt x="70" y="916" on="0"/>
        <pt x="323" y="1181" on="0"/>
        <pt x="554" y="1234" on="1"/>
        <pt x="618" y="998" on="1"/>
        <pt x="348" y="931" on="0"/>
        <pt x="348" y="733" on="1"/>
        <pt x="348" y="636" on="0"/>
        <pt x="440" y="538" on="0"/>
        <pt x="530" y="538" on="1"/>
        <pt x="592" y="538" on="0"/>
        <pt x="667" y="587" on="0"/>
        <pt x="698" y="673" on="0"/>
        <pt x="698" y="780" on="1"/>
        <pt x="698" y="926" on="1"/>
        <pt x="973" y="904" on="1"/>
        <pt x="973" y="731" on="1"/>
        <pt x="997" y="687" on="0"/>
        <pt x="1056" y="687" on="1"/>
        <pt x="1114" y="687" on="0"/>
        <pt x="1160" y="718" on="1"/>
      </contour>
    </TTGlyph>
    <TTGlyph name="glyph00153" xMin="70" yMin="103" xMax="1321" yMax="1234">
      <contour>
        <pt x="751" y="770" on="1"/>
        <pt x="751" y="786" on="1"/>
        <pt x="751" y="1001" on="0"/>
        <pt x="578" y="1001" on="1"/>
        <pt x="468" y="1001" on="0"/>
        <pt x="348" y="866" on="0"/>
        <pt x="348" y="756" on="1"/>
        <pt x="348" y="625" on="0"/>
        <pt x="479" y="398" on="0"/>
        <pt x="621" y="277" on="1"/>
        <pt x="435" y="103" on="1"/>
        <pt x="244" y="277" on="0"/>
        <pt x="70" y="598" on="0"/>
        <pt x="70" y="767" on="1"/>
        <pt x="70" y="901" on="0"/>
        <pt x="195" y="1116" on="0"/>
        <pt x="422" y="1234" on="0"/>
        <pt x="564" y="1234" on="1"/>
        <pt x="788" y="1234" on="0"/>
        <pt x="1022" y="999" on="0"/>
        <pt x="1025" y="770" on="1"/>
        <pt x="1321" y="770" on="1"/>
        <pt x="1321" y="539" on="1"/>
        <pt x="1026" y="539" on="1"/>
        <pt x="1026" y="500" on="1"/>
        <pt x="1026" y="418" on="0"/>
        <pt x="958" y="337" on="0"/>
        <pt x="883" y="337" on="1"/>
        <pt x="828" y="337" on="0"/>
        <pt x="683" y="437" on="0"/>
        <pt x="587" y="581" on="0"/>
        <pt x="587" y="641" on="1"/>
        <pt x="587" y="708" on="0"/>
        <pt x="659" y="770" on="0"/>
        <pt x="732" y="770" on="1"/>
      </contour>
    </TTGlyph>
    <TTGlyph name="glyph00154" xMin="77" yMin="227" xMax="849" yMax="1212">
      <contour>
        <pt x="516" y="660" on="1"/>
        <pt x="849" y="660" on="1"/>
        <pt x="849" y="429" on="1"/>
        <pt x="516" y="429" on="1"/>
        <pt x="516" y="390" on="1"/>
        <pt x="516" y="308" on="0"/>
        <pt x="448" y="227" on="0"/>
        <pt x="373" y="227" on="1"/>
        <pt x="318" y="227" on="0"/>
        <pt x="173" y="327" on="0"/>
        <pt x="77" y="471" on="0"/>
        <pt x="77" y="531" on="1"/>
        <pt x="77" y="598" on="0"/>
        <pt x="149" y="660" on="0"/>
        <pt x="222" y="660" on="1"/>
        <pt x="242" y="660" on="1"/>
        <pt x="242" y="829" on="1"/>
        <pt x="242" y="880" on="0"/>
        <pt x="226" y="940" on="0"/>
        <pt x="189" y="971" on="0"/>
        <pt x="141" y="979" on="0"/>
        <pt x="83" y="979" on="1"/>
        <pt x="103" y="1212" on="1"/>
        <pt x="158" y="1212" on="1"/>
        <pt x="263" y="1212" on="0"/>
        <pt x="399" y="1172" on="0"/>
        <pt x="476" y="1090" on="0"/>
        <pt x="516" y="973" on="0"/>
        <pt x="516" y="858" on="1"/>
      </contour>
    </TTGlyph>
    <TTGlyph name="glyph00155" xMin="28" yMin="321" xMax="959" yMax="1234">
      <contour>
        <pt x="959" y="433" on="1"/>
        <pt x="874" y="373" on="0"/>
        <pt x="702" y="321" on="0"/>
        <pt x="600" y="321" on="1"/>
        <pt x="220" y="321" on="0"/>
        <pt x="82" y="721" on="1"/>
        <pt x="214" y="752" on="0"/>
        <pt x="339" y="844" on="0"/>
        <pt x="339" y="909" on="1"/>
        <pt x="339" y="957" on="0"/>
        <pt x="271" y="1008" on="0"/>
        <pt x="206" y="1008" on="1"/>
        <pt x="145" y="1008" on="0"/>
        <pt x="85" y="990" on="1"/>
        <pt x="28" y="1205" on="1"/>
        <pt x="118" y="1234" on="0"/>
        <pt x="225" y="1234" on="1"/>
        <pt x="410" y="1234" on="0"/>
        <pt x="611" y="1059" on="0"/>
        <pt x="611" y="910" on="1"/>
        <pt x="611" y="817" on="0"/>
        <pt x="525" y="676" on="0"/>
        <pt x="433" y="619" on="1"/>
        <pt x="501" y="554" on="0"/>
        <pt x="608" y="554" on="1"/>
        <pt x="673" y="554" on="0"/>
        <pt x="783" y="593" on="0"/>
        <pt x="847" y="644" on="1"/>
      </contour>
    </TTGlyph>
    <TTGlyph name="glyph00156" xMin="58" yMin="-548" xMax="1142" yMax="1234">
      <component glyphName="uni0AB0" x="0" y="0" flags="0x204"/>
      <component glyphName="uni0ACD" x="789" y="0" flags="0x4"/>
    </TTGlyph>
    <TTGlyph name="glyph00157" xMin="70" yMin="194" xMax="1020" yMax="1234">
      <contour>
        <pt x="723" y="995" on="1"/>
        <pt x="532" y="959" on="0"/>
        <pt x="348" y="802" on="0"/>
        <pt x="348" y="676" on="1"/>
        <pt x="348" y="557" on="0"/>
        <pt x="493" y="427" on="0"/>
        <pt x="622" y="427" on="1"/>
        <pt x="724" y="427" on="0"/>
        <pt x="804" y="462" on="1"/>
        <pt x="900" y="252" on="1"/>
        <pt x="840" y="225" on="0"/>
        <pt x="681" y="194" on="0"/>
        <pt x="606" y="194" on="1"/>
        <pt x="352" y="194" on="0"/>
        <pt x="70" y="455" on="0"/>
        <pt x="70" y="688" on="1"/>
        <pt x="70" y="896" on="0"/>
        <pt x="373" y="1182" on="0"/>
        <pt x="657" y="1234" on="1"/>
      </contour>
      <contour>
        <pt x="1020" y="654" on="1"/>
        <pt x="586" y="565" on="1"/>
        <pt x="529" y="796" on="1"/>
        <pt x="977" y="884" on="1"/>
      </contour>
    </TTGlyph>
    <TTGlyph name="glyph00158" xMin="70" yMin="267" xMax="1198" yMax="1234">
      <contour>
        <pt x="1138" y="872" on="1"/>
        <pt x="1104" y="884" on="0"/>
        <pt x="1061" y="884" on="1"/>
        <pt x="1024" y="884" on="0"/>
        <pt x="981" y="844" on="0"/>
        <pt x="981" y="772" on="1"/>
        <pt x="981" y="767" on="1"/>
        <pt x="981" y="578" on="0"/>
        <pt x="885" y="374" on="0"/>
        <pt x="692" y="267" on="0"/>
        <pt x="536" y="267" on="1"/>
        <pt x="326" y="267" on="0"/>
        <pt x="70" y="511" on="0"/>
        <pt x="70" y="718" on="1"/>
        <pt x="70" y="903" on="0"/>
        <pt x="324" y="1178" on="0"/>
        <pt x="554" y="1234" on="1"/>
        <pt x="618" y="998" on="1"/>
        <pt x="348" y="924" on="0"/>
        <pt x="348" y="716" on="1"/>
        <pt x="348" y="610" on="0"/>
        <pt x="445" y="500" on="0"/>
        <pt x="533" y="500" on="1"/>
        <pt x="603" y="500" on="0"/>
        <pt x="679" y="558" on="0"/>
        <pt x="707" y="659" on="0"/>
        <pt x="707" y="754" on="1"/>
        <pt x="707" y="772" on="1"/>
        <pt x="707" y="899" on="0"/>
        <pt x="787" y="1042" on="0"/>
        <pt x="942" y="1116" on="0"/>
        <pt x="1043" y="1116" on="1"/>
        <pt x="1125" y="1116" on="0"/>
        <pt x="1198" y="1095" on="1"/>
      </contour>
    </TTGlyph>
    <TTGlyph name="glyph00159" xMin="70" yMin="321" xMax="922" yMax="1116">
      <contour>
        <pt x="922" y="462" on="1"/>
        <pt x="815" y="384" on="0"/>
        <pt x="631" y="321" on="0"/>
        <pt x="515" y="321" on="1"/>
        <pt x="316" y="321" on="0"/>
        <pt x="70" y="536" on="0"/>
        <pt x="70" y="720" on="1"/>
        <pt x="70" y="901" on="0"/>
        <pt x="323" y="1116" on="0"/>
        <pt x="531" y="1116" on="1"/>
        <pt x="632" y="1116" on="0"/>
        <pt x="740" y="1100" on="1"/>
        <pt x="717" y="870" on="1"/>
        <pt x="663" y="883" on="0"/>
        <pt x="567" y="883" on="1"/>
        <pt x="460" y="883" on="0"/>
        <pt x="346" y="794" on="0"/>
        <pt x="346" y="713" on="1"/>
        <pt x="346" y="635" on="0"/>
        <pt x="441" y="554" on="0"/>
        <pt x="528" y="554" on="1"/>
        <pt x="605" y="554" on="0"/>
        <pt x="737" y="607" on="0"/>
        <pt x="808" y="669" on="1"/>
      </contour>
    </TTGlyph>
    <TTGlyph name="glyph00160" xMin="47" yMin="0" xMax="919" yMax="1234">
      <contour>
        <pt x="455" y="659" on="1"/>
        <pt x="113" y="724" on="0"/>
        <pt x="113" y="965" on="1"/>
        <pt x="113" y="1086" on="0"/>
        <pt x="303" y="1234" on="0"/>
        <pt x="468" y="1234" on="1"/>
        <pt x="674" y="1234" on="0"/>
        <pt x="919" y="1017" on="0"/>
        <pt x="919" y="825" on="1"/>
        <pt x="919" y="673" on="0"/>
        <pt x="743" y="436" on="0"/>
        <pt x="581" y="374" on="1"/>
        <pt x="652" y="301" on="0"/>
        <pt x="781" y="240" on="0"/>
        <pt x="864" y="240" on="1"/>
        <pt x="899" y="240" on="1"/>
        <pt x="872" y="0" on="1"/>
        <pt x="826" y="0" on="1"/>
        <pt x="669" y="0" on="0"/>
        <pt x="427" y="155" on="0"/>
        <pt x="305" y="321" on="1"/>
        <pt x="286" y="320" on="1"/>
        <pt x="234" y="317" on="0"/>
        <pt x="118" y="344" on="0"/>
        <pt x="47" y="424" on="0"/>
        <pt x="47" y="487" on="1"/>
        <pt x="47" y="556" on="0"/>
        <pt x="143" y="635" on="0"/>
        <pt x="225" y="635" on="1"/>
        <pt x="314" y="635" on="0"/>
        <pt x="407" y="560" on="1"/>
        <pt x="522" y="594" on="0"/>
        <pt x="650" y="745" on="0"/>
        <pt x="650" y="844" on="1"/>
        <pt x="650" y="930" on="0"/>
        <pt x="544" y="1030" on="0"/>
        <pt x="466" y="1030" on="1"/>
        <pt x="366" y="1030" on="0"/>
        <pt x="366" y="956" on="1"/>
        <pt x="366" y="873" on="0"/>
        <pt x="534" y="843" on="1"/>
      </contour>
    </TTGlyph>
    <TTGlyph name="glyph00161" xMin="13" yMin="321" xMax="922" yMax="1212">
      <contour>
        <pt x="922" y="452" on="1"/>
        <pt x="746" y="321" on="0"/>
        <pt x="543" y="321" on="1"/>
        <pt x="416" y="321" on="0"/>
        <pt x="246" y="419" on="0"/>
        <pt x="172" y="582" on="0"/>
        <pt x="172" y="743" on="1"/>
        <pt x="172" y="838" on="1"/>
        <pt x="172" y="919" on="0"/>
        <pt x="135" y="967" on="0"/>
        <pt x="89" y="979" on="0"/>
        <pt x="13" y="979" on="1"/>
        <pt x="33" y="1212" on="1"/>
        <pt x="88" y="1212" on="1"/>
        <pt x="252" y="1212" on="0"/>
        <pt x="331" y="1160" on="1"/>
        <pt x="756" y="875" on="1"/>
        <pt x="842" y="817" on="0"/>
        <pt x="922" y="751" on="1"/>
      </contour>
      <contour>
        <pt x="447" y="761" on="1"/>
        <pt x="447" y="676" on="0"/>
        <pt x="472" y="594" on="0"/>
        <pt x="535" y="554" on="0"/>
        <pt x="590" y="554" on="1"/>
        <pt x="713" y="554" on="0"/>
        <pt x="815" y="640" on="1"/>
        <pt x="622" y="769" on="1"/>
        <pt x="537" y="825" on="0"/>
        <pt x="442" y="903" on="1"/>
        <pt x="447" y="858" on="0"/>
        <pt x="447" y="795" on="1"/>
      </contour>
    </TTGlyph>
    <TTGlyph name="glyph00162" xMin="53" yMin="0" xMax="1130" yMax="1234">
      <contour>
        <pt x="750" y="546" on="1"/>
        <pt x="677" y="460" on="0"/>
        <pt x="577" y="413" on="1"/>
        <pt x="639" y="346" on="0"/>
        <pt x="752" y="271" on="0"/>
        <pt x="853" y="240" on="0"/>
        <pt x="924" y="240" on="1"/>
        <pt x="969" y="240" on="1"/>
        <pt x="951" y="0" on="1"/>
        <pt x="913" y="0" on="1"/>
        <pt x="709" y="0" on="0"/>
        <pt x="443" y="169" on="0"/>
        <pt x="314" y="349" on="1"/>
        <pt x="294" y="348" on="1"/>
        <pt x="187" y="343" on="0"/>
        <pt x="55" y="428" on="0"/>
        <pt x="55" y="515" on="1"/>
        <pt x="55" y="584" on="0"/>
        <pt x="147" y="663" on="0"/>
        <pt x="229" y="663" on="1"/>
        <pt x="313" y="663" on="0"/>
        <pt x="391" y="604" on="1"/>
        <pt x="475" y="636" on="0"/>
        <pt x="568" y="752" on="0"/>
        <pt x="568" y="828" on="1"/>
        <pt x="568" y="912" on="0"/>
        <pt x="463" y="1001" on="0"/>
        <pt x="365" y="1001" on="1"/>
        <pt x="238" y="1001" on="0"/>
        <pt x="130" y="949" on="1"/>
        <pt x="53" y="1165" on="1"/>
        <pt x="217" y="1234" on="0"/>
        <pt x="406" y="1234" on="1"/>
        <pt x="605" y="1234" on="0"/>
        <pt x="849" y="1017" on="0"/>
        <pt x="849" y="829" on="1"/>
        <pt x="849" y="796" on="0"/>
        <pt x="842" y="752" on="1"/>
        <pt x="881" y="741" on="0"/>
        <pt x="929" y="741" on="1"/>
        <pt x="1012" y="741" on="0"/>
        <pt x="1080" y="781" on="1"/>
        <pt x="1130" y="555" on="1"/>
        <pt x="1038" y="512" on="0"/>
        <pt x="928" y="512" on="1"/>
        <pt x="829" y="512" on="0"/>
      </contour>
    </TTGlyph>
    <TTGlyph name="glyph00163" xMin="74" yMin="-313" xMax="1095" yMax="1234">
      <contour>
        <pt x="779" y="984" on="1"/>
        <pt x="681" y="1003" on="0"/>
        <pt x="617" y="1003" on="1"/>
        <pt x="458" y="1003" on="0"/>
        <pt x="458" y="891" on="1"/>
        <pt x="458" y="825" on="0"/>
        <pt x="516" y="770" on="1"/>
        <pt x="607" y="789" on="0"/>
        <pt x="696" y="789" on="1"/>
        <pt x="913" y="789" on="0"/>
        <pt x="1095" y="715" on="1"/>
        <pt x="1007" y="491" on="1"/>
        <pt x="867" y="556" on="0"/>
        <pt x="704" y="556" on="1"/>
        <pt x="539" y="556" on="0"/>
        <pt x="352" y="394" on="0"/>
        <pt x="352" y="256" on="1"/>
        <pt x="352" y="144" on="0"/>
        <pt x="490" y="-24" on="0"/>
        <pt x="642" y="-95" on="1"/>
        <pt x="511" y="-313" on="1"/>
        <pt x="289" y="-204" on="0"/>
        <pt x="74" y="86" on="0"/>
        <pt x="74" y="276" on="1"/>
        <pt x="74" y="396" on="0"/>
        <pt x="178" y="599" on="0"/>
        <pt x="277" y="669" on="1"/>
        <pt x="180" y="781" on="0"/>
        <pt x="180" y="914" on="1"/>
        <pt x="180" y="1060" on="0"/>
        <pt x="397" y="1234" on="0"/>
        <pt x="587" y="1234" on="1"/>
        <pt x="716" y="1234" on="0"/>
        <pt x="826" y="1209" on="1"/>
      </contour>
    </TTGlyph>
    <TTGlyph name="glyph00164" xMin="75" yMin="-112" xMax="1136" yMax="1234">
      <contour>
        <pt x="1136" y="559" on="1"/>
        <pt x="1017" y="510" on="0"/>
        <pt x="823" y="510" on="1"/>
        <pt x="747" y="510" on="0"/>
        <pt x="590" y="539" on="0"/>
        <pt x="510" y="569" on="1"/>
        <pt x="436" y="535" on="0"/>
        <pt x="350" y="455" on="0"/>
        <pt x="350" y="399" on="1"/>
        <pt x="350" y="341" on="0"/>
        <pt x="453" y="279" on="0"/>
        <pt x="549" y="279" on="1"/>
        <pt x="580" y="279" on="0"/>
        <pt x="615" y="283" on="1"/>
        <pt x="615" y="293" on="1"/>
        <pt x="615" y="362" on="0"/>
        <pt x="699" y="441" on="0"/>
        <pt x="772" y="441" on="1"/>
        <pt x="844" y="441" on="0"/>
        <pt x="931" y="351" on="0"/>
        <pt x="931" y="285" on="1"/>
        <pt x="931" y="224" on="0"/>
        <pt x="899" y="176" on="1"/>
        <pt x="922" y="143" on="0"/>
        <pt x="978" y="114" on="0"/>
        <pt x="1035" y="114" on="1"/>
        <pt x="1071" y="114" on="1"/>
        <pt x="1044" y="-112" on="1"/>
        <pt x="1017" y="-112" on="1"/>
        <pt x="900" y="-112" on="0"/>
        <pt x="737" y="-28" on="0"/>
        <pt x="680" y="63" on="1"/>
        <pt x="627" y="53" on="0"/>
        <pt x="542" y="53" on="1"/>
        <pt x="320" y="53" on="0"/>
        <pt x="75" y="235" on="0"/>
        <pt x="75" y="387" on="1"/>
        <pt x="75" y="485" on="0"/>
        <pt x="176" y="622" on="0"/>
        <pt x="291" y="685" on="1"/>
        <pt x="216" y="742" on="0"/>
        <pt x="141" y="877" on="0"/>
        <pt x="141" y="956" on="1"/>
        <pt x="141" y="1078" on="0"/>
        <pt x="343" y="1234" on="0"/>
        <pt x="521" y="1234" on="1"/>
        <pt x="702" y="1234" on="0"/>
        <pt x="903" y="1095" on="0"/>
        <pt x="903" y="970" on="1"/>
        <pt x="903" y="906" on="0"/>
        <pt x="834" y="788" on="0"/>
        <pt x="765" y="733" on="1"/>
        <pt x="784" y="731" on="0"/>
        <pt x="828" y="731" on="1"/>
        <pt x="962" y="731" on="0"/>
        <pt x="1069" y="773" on="1"/>
      </contour>
      <contour>
        <pt x="515" y="793" on="1"/>
        <pt x="578" y="825" on="0"/>
        <pt x="641" y="895" on="0"/>
        <pt x="641" y="933" on="1"/>
        <pt x="641" y="976" on="0"/>
        <pt x="581" y="1026" on="0"/>
        <pt x="524" y="1026" on="1"/>
        <pt x="469" y="1026" on="0"/>
        <pt x="403" y="972" on="0"/>
        <pt x="403" y="927" on="1"/>
        <pt x="403" y="892" on="0"/>
        <pt x="460" y="822" on="0"/>
      </contour>
    </TTGlyph>
    <TTGlyph name="glyph00165" xMin="57" yMin="-132" xMax="1095" yMax="1196">
      <contour>
        <pt x="1095" y="796" on="1"/>
        <pt x="1046" y="784" on="0"/>
        <pt x="989" y="784" on="1"/>
        <pt x="931" y="784" on="0"/>
        <pt x="824" y="807" on="0"/>
        <pt x="725" y="852" on="0"/>
        <pt x="619" y="912" on="1"/>
        <pt x="525" y="964" on="0"/>
        <pt x="467" y="964" on="1"/>
        <pt x="380" y="964" on="0"/>
        <pt x="380" y="895" on="1"/>
        <pt x="380" y="853" on="0"/>
        <pt x="453" y="803" on="0"/>
        <pt x="572" y="780" on="1"/>
        <pt x="766" y="743" on="0"/>
        <pt x="944" y="585" on="0"/>
        <pt x="944" y="454" on="1"/>
        <pt x="944" y="320" on="0"/>
        <pt x="761" y="149" on="0"/>
        <pt x="595" y="128" on="1"/>
        <pt x="661" y="84" on="0"/>
        <pt x="761" y="84" on="1"/>
        <pt x="816" y="84" on="1"/>
        <pt x="787" y="-132" on="1"/>
        <pt x="748" y="-132" on="1"/>
        <pt x="610" y="-132" on="0"/>
        <pt x="387" y="-4" on="0"/>
        <pt x="286" y="136" on="1"/>
        <pt x="57" y="175" on="0"/>
        <pt x="57" y="327" on="1"/>
        <pt x="57" y="382" on="0"/>
        <pt x="138" y="457" on="0"/>
        <pt x="202" y="457" on="1"/>
        <pt x="261" y="457" on="0"/>
        <pt x="365" y="408" on="0"/>
        <pt x="432" y="340" on="1"/>
        <pt x="459" y="337" on="0"/>
        <pt x="489" y="337" on="1"/>
        <pt x="578" y="337" on="0"/>
        <pt x="672" y="394" on="0"/>
        <pt x="672" y="445" on="1"/>
        <pt x="672" y="496" on="0"/>
        <pt x="593" y="545" on="0"/>
        <pt x="506" y="561" on="1"/>
        <pt x="298" y="598" on="0"/>
        <pt x="112" y="766" on="0"/>
        <pt x="112" y="907" on="1"/>
        <pt x="112" y="1030" on="0"/>
        <pt x="298" y="1196" on="0"/>
        <pt x="457" y="1196" on="1"/>
        <pt x="597" y="1196" on="0"/>
        <pt x="760" y="1106" on="1"/>
        <pt x="844" y="1060" on="0"/>
        <pt x="955" y="1016" on="0"/>
        <pt x="1008" y="1016" on="1"/>
        <pt x="1061" y="1016" on="0"/>
        <pt x="1095" y="1029" on="1"/>
      </contour>
    </TTGlyph>
    <TTGlyph name="glyph00166" xMin="38" yMin="-428" xMax="1162" yMax="1234">
      <component glyphName="glyph00130" x="0" y="0" flags="0x204"/>
      <component glyphName="uni0ABC" x="1063" y="0" flags="0x4"/>
    </TTGlyph>
    <TTGlyph name="glyph00167" xMin="13" yMin="-117" xMax="1271" yMax="1212">
      <component glyphName="glyph00131" x="0" y="0" flags="0x204"/>
      <component glyphName="uni0ABC" x="1117" y="311" flags="0x4"/>
    </TTGlyph>
    <TTGlyph name="glyph00168" xMin="11" yMin="-97" xMax="871" yMax="1234">
      <component glyphName="glyph00132" x="0" y="0" flags="0x204"/>
      <component glyphName="uni0ABC" x="1010" y="331" flags="0x4"/>
    </TTGlyph>
    <TTGlyph name="glyph00169" xMin="70" yMin="-227" xMax="979" yMax="1234">
      <component glyphName="glyph00133" x="0" y="0" flags="0x204"/>
      <component glyphName="uni0ABC" x="1020" y="201" flags="0x4"/>
    </TTGlyph>
    <TTGlyph name="glyph00170" xMin="11" yMin="-548" xMax="1204" yMax="1234">
      <component glyphName="uni0A99" x="0" y="0" flags="0x204"/>
      <component glyphName="uni0ABC" x="754" y="0" flags="0x4"/>
      <component glyphName="uni0ACD" x="851" y="0" flags="0x4"/>
    </TTGlyph>
    <TTGlyph name="glyph00171" xMin="50" yMin="-187" xMax="1075" yMax="1234">
      <component glyphName="glyph00135" x="0" y="0" flags="0x204"/>
      <component glyphName="uni0ABC" x="1045" y="241" flags="0x4"/>
    </TTGlyph>
    <TTGlyph name="glyph00172" xMin="70" yMin="-548" xMax="1541" yMax="1234">
      <component glyphName="uni0A9B" x="0" y="0" flags="0x204"/>
      <component glyphName="uni0ABC" x="994" y="0" flags="0x4"/>
      <component glyphName="uni0ACD" x="1131" y="0" flags="0x4"/>
    </TTGlyph>
    <TTGlyph name="glyph00173" xMin="55" yMin="-428" xMax="1885" yMax="1234">
      <component glyphName="glyph00137" x="0" y="0" flags="0x204"/>
      <component glyphName="uni0ABC" x="1790" y="0" flags="0x4"/>
    </TTGlyph>
    <TTGlyph name="glyph00174" xMin="20" yMin="-428" xMax="1453" yMax="1234">
      <component glyphName="glyph00138" x="0" y="0" flags="0x204"/>
      <component glyphName="uni0ABC" x="1281" y="0" flags="0x4"/>
    </TTGlyph>
    <TTGlyph name="glyph00175" xMin="11" yMin="-97" xMax="1112" yMax="1234">
      <component glyphName="glyph00139" x="0" y="0" flags="0x204"/>
      <component glyphName="uni0ABC" x="1010" y="331" flags="0x4"/>
    </TTGlyph>
    <TTGlyph name="glyph00176" xMin="69" yMin="-548" xMax="1224" yMax="1234">
      <component glyphName="uni0A9F" x="0" y="0" flags="0x204"/>
      <component glyphName="uni0ABC" x="774" y="0" flags="0x4"/>
      <component glyphName="uni0ACD" x="871" y="0" flags="0x4"/>
    </TTGlyph>
    <TTGlyph name="glyph00177" xMin="67" yMin="-548" xMax="1244" yMax="1234">
      <component glyphName="uni0AA0" x="0" y="0" flags="0x204"/>
      <component glyphName="uni0ABC" x="794" y="0" flags="0x4"/>
      <component glyphName="uni0ACD" x="891" y="0" flags="0x4"/>
    </TTGlyph>
    <TTGlyph name="glyph00178" xMin="11" yMin="-548" xMax="1204" yMax="1234">
      <component glyphName="uni0AA1" x="0" y="0" flags="0x204"/>
      <component glyphName="uni0ABC" x="754" y="0" flags="0x4"/>
      <component glyphName="uni0ACD" x="851" y="0" flags="0x4"/>
    </TTGlyph>
    <TTGlyph name="glyph00179" xMin="70" yMin="-548" xMax="1204" yMax="1234">
      <component glyphName="uni0AA2" x="0" y="0" flags="0x204"/>
      <component glyphName="uni0ABC" x="754" y="0" flags="0x4"/>
      <component glyphName="uni0ACD" x="851" y="0" flags="0x4"/>
    </TTGlyph>
    <TTGlyph name="glyph00180" xMin="138" yMin="-428" xMax="1278" yMax="1234">
      <component glyphName="glyph00144" x="0" y="0" flags="0x204"/>
      <component glyphName="uni0ABC" x="970" y="0" flags="0x4"/>
    </TTGlyph>
    <TTGlyph name="glyph00181" xMin="70" yMin="-400" xMax="832" yMax="909">
      <component glyphName="glyph00145" x="0" y="0" flags="0x204"/>
      <component glyphName="uni0ABC" x="1025" y="28" flags="0x4"/>
    </TTGlyph>
    <TTGlyph name="glyph00182" xMin="74" yMin="-163" xMax="1053" yMax="1234">
      <component glyphName="glyph00146" x="0" y="0" flags="0x204"/>
      <component glyphName="uni0ABC" x="1044" y="265" flags="0x4"/>
    </TTGlyph>
    <TTGlyph name="glyph00183" xMin="70" yMin="-548" xMax="1284" yMax="1234">
      <component glyphName="uni0AA6" x="0" y="0" flags="0x204"/>
      <component glyphName="uni0ABC" x="834" y="0" flags="0x4"/>
      <component glyphName="uni0ACD" x="931" y="0" flags="0x4"/>
    </TTGlyph>
    <TTGlyph name="glyph00184" xMin="70" yMin="-227" xMax="955" yMax="1332">
      <component glyphName="glyph00148" x="0" y="0" flags="0x204"/>
      <component glyphName="uni0ABC" x="1020" y="201" flags="0x4"/>
    </TTGlyph>
    <TTGlyph name="glyph00185" xMin="43" yMin="-67" xMax="807" yMax="841">
      <component glyphName="glyph00149" x="0" y="0" flags="0x204"/>
      <component glyphName="uni0ABC" x="962" y="361" flags="0x4"/>
    </TTGlyph>
    <TTGlyph name="glyph00186" xMin="13" yMin="-128" xMax="859" yMax="1212">
      <component glyphName="glyph00150" x="0" y="0" flags="0x204"/>
      <component glyphName="uni0ABC" x="926" y="300" flags="0x4"/>
    </TTGlyph>
    <TTGlyph name="glyph00187" xMin="66" yMin="-537" xMax="1162" yMax="1234">
      <component glyphName="glyph00151" x="0" y="0" flags="0x204"/>
      <component glyphName="uni0ABC" x="800" y="-109" flags="0x4"/>
    </TTGlyph>
    <TTGlyph name="glyph00188" xMin="70" yMin="-137" xMax="1243" yMax="1234">
      <component glyphName="glyph00152" x="0" y="0" flags="0x204"/>
      <component glyphName="uni0ABC" x="1170" y="291" flags="0x4"/>
    </TTGlyph>
    <TTGlyph name="glyph00189" xMin="70" yMin="-137" xMax="1321" yMax="1234">
      <component glyphName="glyph00153" x="0" y="0" flags="0x204"/>
      <component glyphName="uni0ABC" x="1424" y="291" flags="0x4"/>
    </TTGlyph>
    <TTGlyph name="glyph00190" xMin="77" yMin="-218" xMax="849" yMax="1212">
      <component glyphName="glyph00154" x="0" y="0" flags="0x204"/>
      <component glyphName="uni0ABC" x="987" y="210" flags="0x4"/>
    </TTGlyph>
    <TTGlyph name="glyph00191" xMin="28" yMin="-128" xMax="959" yMax="1234">
      <component glyphName="glyph00155" x="0" y="0" flags="0x204"/>
      <component glyphName="uni0ABC" x="971" y="300" flags="0x4"/>
    </TTGlyph>
    <TTGlyph name="glyph00192" xMin="58" yMin="-548" xMax="1191" yMax="1234">
      <component glyphName="uni0AB0" x="0" y="0" flags="0x204"/>
      <component glyphName="uni0ABC" x="741" y="0" flags="0x4"/>
      <component glyphName="uni0ACD" x="838" y="0" flags="0x4"/>
    </TTGlyph>
    <TTGlyph name="glyph00193" xMin="70" yMin="-267" xMax="1020" yMax="1234">
      <component glyphName="glyph00157" x="0" y="0" flags="0x204"/>
      <component glyphName="uni0ABC" x="1078" y="161" flags="0x4"/>
    </TTGlyph>
    <TTGlyph name="glyph00194" xMin="70" yMin="-172" xMax="1198" yMax="1234">
      <component glyphName="glyph00158" x="0" y="0" flags="0x204"/>
      <component glyphName="uni0ABC" x="1199" y="256" flags="0x4"/>
    </TTGlyph>
    <TTGlyph name="glyph00195" xMin="70" yMin="-128" xMax="922" yMax="1116">
      <component glyphName="glyph00159" x="0" y="0" flags="0x204"/>
      <component glyphName="uni0ABC" x="967" y="300" flags="0x4"/>
    </TTGlyph>
    <TTGlyph name="glyph00196" xMin="47" yMin="-348" xMax="919" yMax="1234">
      <component glyphName="glyph00160" x="0" y="0" flags="0x204"/>
      <component glyphName="uni0ABC" x="967" y="80" flags="0x4"/>
    </TTGlyph>
    <TTGlyph name="glyph00197" xMin="13" yMin="-128" xMax="922" yMax="1212">
      <component glyphName="glyph00161" x="0" y="0" flags="0x204"/>
      <component glyphName="uni0ABC" x="935" y="300" flags="0x4"/>
    </TTGlyph>
    <TTGlyph name="glyph00198" xMin="53" yMin="-348" xMax="1130" yMax="1234">
      <component glyphName="glyph00162" x="0" y="0" flags="0x204"/>
      <component glyphName="uni0ABC" x="967" y="80" flags="0x4"/>
    </TTGlyph>
    <TTGlyph name="glyph00199" xMin="74" yMin="-554" xMax="1095" yMax="1234">
      <component glyphName="glyph00163" x="0" y="0" flags="0x204"/>
      <component glyphName="uni0ABC" x="762" y="-126" flags="0x4"/>
    </TTGlyph>
    <TTGlyph name="glyph00200" xMin="40" yMin="-21" xMax="1128" yMax="1234">
      <contour>
        <pt x="864" y="986" on="1"/>
        <pt x="775" y="1005" on="0"/>
        <pt x="684" y="1005" on="1"/>
        <pt x="509" y="1005" on="0"/>
        <pt x="509" y="906" on="1"/>
        <pt x="509" y="880" on="0"/>
        <pt x="544" y="830" on="0"/>
        <pt x="579" y="807" on="1"/>
        <pt x="1059" y="924" on="1"/>
        <pt x="1128" y="702" on="1"/>
        <pt x="835" y="641" on="1"/>
        <pt x="952" y="578" on="0"/>
        <pt x="1058" y="420" on="0"/>
        <pt x="1058" y="317" on="1"/>
        <pt x="1058" y="163" on="0"/>
        <pt x="805" y="-21" on="0"/>
        <pt x="561" y="-21" on="1"/>
        <pt x="266" y="-21" on="0"/>
        <pt x="40" y="112" on="1"/>
        <pt x="170" y="311" on="1"/>
        <pt x="281" y="258" on="0"/>
        <pt x="453" y="214" on="0"/>
        <pt x="542" y="214" on="1"/>
        <pt x="654" y="214" on="0"/>
        <pt x="777" y="281" on="0"/>
        <pt x="777" y="341" on="1"/>
        <pt x="777" y="393" on="0"/>
        <pt x="706" y="468" on="0"/>
        <pt x="651" y="499" on="1"/>
        <pt x="493" y="265" on="1"/>
        <pt x="265" y="354" on="1"/>
        <pt x="438" y="560" on="1"/>
        <pt x="125" y="471" on="1"/>
        <pt x="61" y="690" on="1"/>
        <pt x="313" y="746" on="1"/>
        <pt x="271" y="789" on="0"/>
        <pt x="230" y="882" on="0"/>
        <pt x="230" y="932" on="1"/>
        <pt x="230" y="1069" on="0"/>
        <pt x="469" y="1234" on="0"/>
        <pt x="672" y="1234" on="1"/>
        <pt x="810" y="1234" on="0"/>
        <pt x="910" y="1209" on="1"/>
      </contour>
      <contour>
        <pt x="624" y="1234" on="1"/>
      </contour>
      <contour>
        <pt x="607" y="0" on="1"/>
      </contour>
      <contour>
        <pt x="471" y="1234" on="1"/>
      </contour>
    </TTGlyph>
    <TTGlyph name="glyph00201" xMin="13" yMin="-35" xMax="1653" yMax="1234">
      <contour>
        <pt x="13" y="979" on="1"/>
        <pt x="33" y="1212" on="1"/>
        <pt x="88" y="1212" on="1"/>
        <pt x="198" y="1212" on="0"/>
        <pt x="338" y="1167" on="0"/>
        <pt x="416" y="1070" on="0"/>
        <pt x="447" y="947" on="0"/>
        <pt x="447" y="849" on="1"/>
        <pt x="447" y="737" on="1"/>
        <pt x="447" y="654" on="0"/>
        <pt x="479" y="585" on="0"/>
        <pt x="540" y="554" on="0"/>
        <pt x="575" y="554" on="1"/>
        <pt x="633" y="554" on="0"/>
        <pt x="694" y="596" on="0"/>
        <pt x="726" y="676" on="0"/>
        <pt x="726" y="754" on="1"/>
        <pt x="726" y="998" on="1"/>
        <pt x="1001" y="976" on="1"/>
        <pt x="1001" y="795" on="1"/>
        <pt x="1025" y="751" on="0"/>
        <pt x="1084" y="751" on="1"/>
        <pt x="1160" y="751" on="0"/>
        <pt x="1219" y="807" on="1"/>
        <pt x="1219" y="1234" on="1"/>
        <pt x="1494" y="1212" on="1"/>
        <pt x="1494" y="383" on="1"/>
        <pt x="1494" y="332" on="0"/>
        <pt x="1510" y="273" on="0"/>
        <pt x="1546" y="242" on="0"/>
        <pt x="1594" y="233" on="0"/>
        <pt x="1653" y="233" on="1"/>
        <pt x="1633" y="0" on="1"/>
        <pt x="1578" y="0" on="1"/>
        <pt x="1407" y="0" on="0"/>
        <pt x="1254" y="109" on="0"/>
        <pt x="1232" y="213" on="1"/>
        <pt x="817" y="-35" on="1"/>
        <pt x="677" y="179" on="1"/>
        <pt x="1219" y="447" on="1"/>
        <pt x="1219" y="549" on="1"/>
        <pt x="1162" y="518" on="0"/>
        <pt x="1083" y="518" on="1"/>
        <pt x="1012" y="518" on="0"/>
        <pt x="962" y="544" on="1"/>
        <pt x="922" y="429" on="0"/>
        <pt x="734" y="321" on="0"/>
        <pt x="572" y="321" on="1"/>
        <pt x="470" y="321" on="0"/>
        <pt x="318" y="371" on="0"/>
        <pt x="212" y="481" on="0"/>
        <pt x="172" y="624" on="0"/>
        <pt x="172" y="743" on="1"/>
        <pt x="172" y="829" on="1"/>
        <pt x="172" y="880" on="0"/>
        <pt x="156" y="940" on="0"/>
        <pt x="119" y="971" on="0"/>
        <pt x="71" y="979" on="0"/>
      </contour>
    </TTGlyph>
    <TTGlyph name="glyph00202" xMin="11" yMin="-35" xMax="1454" yMax="1234">
      <contour>
        <pt x="1033" y="213" on="1"/>
        <pt x="618" y="-35" on="1"/>
        <pt x="478" y="179" on="1"/>
        <pt x="1020" y="447" on="1"/>
        <pt x="1020" y="1234" on="1"/>
        <pt x="1295" y="1212" on="1"/>
        <pt x="1295" y="383" on="1"/>
        <pt x="1295" y="332" on="0"/>
        <pt x="1311" y="273" on="0"/>
        <pt x="1347" y="242" on="0"/>
        <pt x="1395" y="233" on="0"/>
        <pt x="1454" y="233" on="1"/>
        <pt x="1434" y="0" on="1"/>
        <pt x="1379" y="0" on="1"/>
        <pt x="1216" y="0" on="0"/>
        <pt x="1060" y="101" on="0"/>
      </contour>
      <contour>
        <pt x="11" y="618" on="1"/>
        <pt x="213" y="738" on="1"/>
        <pt x="269" y="650" on="0"/>
        <pt x="376" y="575" on="0"/>
        <pt x="440" y="575" on="1"/>
        <pt x="522" y="575" on="0"/>
        <pt x="596" y="673" on="0"/>
        <pt x="596" y="776" on="1"/>
        <pt x="596" y="892" on="0"/>
        <pt x="505" y="1003" on="0"/>
        <pt x="401" y="1003" on="1"/>
        <pt x="293" y="1003" on="0"/>
        <pt x="184" y="955" on="1"/>
        <pt x="109" y="1165" on="1"/>
        <pt x="257" y="1234" on="0"/>
        <pt x="434" y="1234" on="1"/>
        <pt x="639" y="1234" on="0"/>
        <pt x="871" y="988" on="0"/>
        <pt x="871" y="771" on="1"/>
        <pt x="871" y="560" on="0"/>
        <pt x="655" y="339" on="0"/>
        <pt x="467" y="339" on="1"/>
        <pt x="327" y="339" on="0"/>
        <pt x="104" y="474" on="0"/>
      </contour>
    </TTGlyph>
    <TTGlyph name="glyph00203" xMin="70" yMin="-104" xMax="1341" yMax="1234">
      <contour>
        <pt x="1182" y="1213" on="1"/>
        <pt x="1182" y="383" on="1"/>
        <pt x="1182" y="332" on="0"/>
        <pt x="1198" y="273" on="0"/>
        <pt x="1234" y="242" on="0"/>
        <pt x="1282" y="233" on="0"/>
        <pt x="1341" y="233" on="1"/>
        <pt x="1321" y="0" on="1"/>
        <pt x="1266" y="0" on="1"/>
        <pt x="1069" y="0" on="0"/>
        <pt x="913" y="153" on="0"/>
        <pt x="908" y="309" on="1"/>
        <pt x="303" y="-104" on="1"/>
        <pt x="143" y="97" on="1"/>
        <pt x="424" y="241" on="1"/>
        <pt x="293" y="266" on="0"/>
        <pt x="156" y="417" on="0"/>
        <pt x="156" y="534" on="1"/>
        <pt x="156" y="627" on="0"/>
        <pt x="203" y="698" on="1"/>
        <pt x="70" y="810" on="0"/>
        <pt x="70" y="958" on="1"/>
        <pt x="70" y="1086" on="0"/>
        <pt x="272" y="1234" on="0"/>
        <pt x="451" y="1234" on="1"/>
        <pt x="575" y="1234" on="0"/>
        <pt x="674" y="1211" on="1"/>
        <pt x="629" y="993" on="1"/>
        <pt x="577" y="1006" on="0"/>
        <pt x="486" y="1006" on="1"/>
        <pt x="412" y="1006" on="0"/>
        <pt x="341" y="962" on="0"/>
        <pt x="341" y="925" on="1"/>
        <pt x="341" y="870" on="0"/>
        <pt x="399" y="833" on="1"/>
        <pt x="469" y="852" on="0"/>
        <pt x="546" y="852" on="1"/>
        <pt x="628" y="852" on="0"/>
        <pt x="703" y="835" on="1"/>
        <pt x="668" y="613" on="1"/>
        <pt x="616" y="624" on="0"/>
        <pt x="555" y="624" on="1"/>
        <pt x="489" y="624" on="0"/>
        <pt x="424" y="577" on="0"/>
        <pt x="424" y="536" on="1"/>
        <pt x="424" y="441" on="0"/>
        <pt x="575" y="441" on="1"/>
        <pt x="753" y="441" on="0"/>
        <pt x="907" y="578" on="1"/>
        <pt x="907" y="1234" on="1"/>
      </contour>
    </TTGlyph>
    <TTGlyph name="glyph00204" xMin="11" yMin="-526" xMax="1084" yMax="1234">
      <component glyphName="uni0A99" x="0" y="0" flags="0x204"/>
      <component glyphName="glyph00129" x="1044" y="0" flags="0x4"/>
    </TTGlyph>
    <TTGlyph name="glyph00205" xMin="50" yMin="-93" xMax="1442" yMax="1234">
      <contour>
        <pt x="126" y="966" on="1"/>
        <pt x="50" y="1172" on="1"/>
        <pt x="204" y="1234" on="0"/>
        <pt x="348" y="1234" on="1"/>
        <pt x="551" y="1234" on="0"/>
        <pt x="778" y="1036" on="0"/>
        <pt x="778" y="864" on="1"/>
        <pt x="778" y="750" on="0"/>
        <pt x="669" y="569" on="0"/>
        <pt x="562" y="512" on="1"/>
        <pt x="629" y="466" on="0"/>
        <pt x="716" y="466" on="1"/>
        <pt x="881" y="466" on="0"/>
        <pt x="1008" y="596" on="1"/>
        <pt x="1008" y="1234" on="1"/>
        <pt x="1283" y="1212" on="1"/>
        <pt x="1283" y="383" on="1"/>
        <pt x="1283" y="332" on="0"/>
        <pt x="1299" y="273" on="0"/>
        <pt x="1335" y="242" on="0"/>
        <pt x="1383" y="233" on="0"/>
        <pt x="1442" y="233" on="1"/>
        <pt x="1422" y="0" on="1"/>
        <pt x="1367" y="0" on="1"/>
        <pt x="1167" y="0" on="0"/>
        <pt x="1014" y="156" on="0"/>
        <pt x="1009" y="319" on="1"/>
        <pt x="404" y="-93" on="1"/>
        <pt x="244" y="108" on="1"/>
        <pt x="551" y="266" on="1"/>
        <pt x="474" y="281" on="0"/>
        <pt x="345" y="371" on="0"/>
        <pt x="293" y="445" on="1"/>
        <pt x="262" y="445" on="1"/>
        <pt x="161" y="445" on="0"/>
        <pt x="54" y="528" on="0"/>
        <pt x="54" y="604" on="1"/>
        <pt x="54" y="671" on="0"/>
        <pt x="133" y="740" on="0"/>
        <pt x="209" y="740" on="1"/>
        <pt x="302" y="740" on="0"/>
        <pt x="382" y="670" on="1"/>
        <pt x="445" y="697" on="0"/>
        <pt x="513" y="789" on="0"/>
        <pt x="513" y="849" on="1"/>
        <pt x="513" y="926" on="0"/>
        <pt x="419" y="1007" on="0"/>
        <pt x="327" y="1007" on="1"/>
        <pt x="224" y="1007" on="0"/>
      </contour>
    </TTGlyph>
    <TTGlyph name="glyph00206" xMin="70" yMin="-526" xMax="1541" yMax="1234">
      <component glyphName="uni0A9B" x="0" y="0" flags="0x204"/>
      <component glyphName="glyph00129" x="1234" y="0" flags="0x4"/>
    </TTGlyph>
    <TTGlyph name="glyph00207" xMin="55" yMin="-526" xMax="1926" yMax="1234">
      <component glyphName="uni0A9C" x="0" y="0" flags="0x200"/>
      <component glyphName="glyph00129" x="1746" y="0" flags="0x0"/>
    </TTGlyph>
    <TTGlyph name="glyph00208" xMin="20" yMin="-20" xMax="1481" yMax="1234">
      <contour>
        <pt x="20" y="265" on="1"/>
        <pt x="226" y="388" on="1"/>
        <pt x="300" y="286" on="0"/>
        <pt x="407" y="217" on="0"/>
        <pt x="476" y="217" on="1"/>
        <pt x="565" y="217" on="0"/>
        <pt x="654" y="348" on="0"/>
        <pt x="654" y="479" on="1"/>
        <pt x="654" y="489" on="1"/>
        <pt x="399" y="337" on="1"/>
        <pt x="265" y="542" on="1"/>
        <pt x="597" y="706" on="1"/>
        <pt x="570" y="740" on="0"/>
        <pt x="490" y="774" on="0"/>
        <pt x="437" y="774" on="1"/>
        <pt x="314" y="774" on="0"/>
        <pt x="201" y="722" on="1"/>
        <pt x="124" y="938" on="1"/>
        <pt x="281" y="1007" on="0"/>
        <pt x="466" y="1007" on="1"/>
        <pt x="593" y="1007" on="0"/>
        <pt x="783" y="909" on="0"/>
        <pt x="845" y="812" on="1"/>
        <pt x="908" y="832" on="0"/>
        <pt x="970" y="839" on="1"/>
        <pt x="970" y="1234" on="1"/>
        <pt x="1245" y="1212" on="1"/>
        <pt x="1245" y="811" on="1"/>
        <pt x="1359" y="766" on="0"/>
        <pt x="1481" y="574" on="0"/>
        <pt x="1481" y="446" on="1"/>
        <pt x="1481" y="306" on="0"/>
        <pt x="1374" y="85" on="0"/>
        <pt x="1257" y="-20" on="1"/>
        <pt x="1054" y="161" on="1"/>
        <pt x="1206" y="285" on="0"/>
        <pt x="1206" y="430" on="1"/>
        <pt x="1206" y="516" on="0"/>
        <pt x="1114" y="613" on="0"/>
        <pt x="1031" y="613" on="1"/>
        <pt x="976" y="613" on="0"/>
        <pt x="922" y="587" on="1"/>
        <pt x="929" y="525" on="0"/>
        <pt x="929" y="476" on="1"/>
        <pt x="929" y="232" on="0"/>
        <pt x="702" y="-20" on="0"/>
        <pt x="499" y="-20" on="1"/>
        <pt x="349" y="-20" on="0"/>
        <pt x="121" y="116" on="0"/>
      </contour>
      <contour>
        <pt x="1042" y="0" on="1"/>
      </contour>
    </TTGlyph>
    <TTGlyph name="glyph00209" xMin="11" yMin="-35" xMax="1512" yMax="1234">
      <contour>
        <pt x="1091" y="213" on="1"/>
        <pt x="676" y="-35" on="1"/>
        <pt x="536" y="179" on="1"/>
        <pt x="1078" y="447" on="1"/>
        <pt x="1078" y="673" on="1"/>
        <pt x="1002" y="632" on="0"/>
        <pt x="895" y="632" on="1"/>
        <pt x="864" y="632" on="0"/>
        <pt x="852" y="634" on="1"/>
        <pt x="822" y="491" on="0"/>
        <pt x="620" y="339" on="0"/>
        <pt x="467" y="339" on="1"/>
        <pt x="327" y="339" on="0"/>
        <pt x="104" y="474" on="0"/>
        <pt x="11" y="618" on="1"/>
        <pt x="213" y="738" on="1"/>
        <pt x="269" y="650" on="0"/>
        <pt x="376" y="575" on="0"/>
        <pt x="440" y="575" on="1"/>
        <pt x="522" y="575" on="0"/>
        <pt x="596" y="674" on="0"/>
        <pt x="596" y="776" on="1"/>
        <pt x="596" y="895" on="0"/>
        <pt x="504" y="1003" on="0"/>
        <pt x="401" y="1003" on="1"/>
        <pt x="293" y="1003" on="0"/>
        <pt x="184" y="955" on="1"/>
        <pt x="109" y="1165" on="1"/>
        <pt x="257" y="1234" on="0"/>
        <pt x="434" y="1234" on="1"/>
        <pt x="611" y="1234" on="0"/>
        <pt x="835" y="1044" on="0"/>
        <pt x="860" y="862" on="1"/>
        <pt x="875" y="861" on="1"/>
        <pt x="915" y="858" on="0"/>
        <pt x="1028" y="882" on="0"/>
        <pt x="1078" y="926" on="1"/>
        <pt x="1078" y="1234" on="1"/>
        <pt x="1353" y="1212" on="1"/>
        <pt x="1353" y="383" on="1"/>
        <pt x="1353" y="332" on="0"/>
        <pt x="1369" y="273" on="0"/>
        <pt x="1405" y="242" on="0"/>
        <pt x="1453" y="233" on="0"/>
        <pt x="1512" y="233" on="1"/>
        <pt x="1492" y="0" on="1"/>
        <pt x="1437" y="0" on="1"/>
        <pt x="1274" y="0" on="0"/>
        <pt x="1118" y="101" on="0"/>
      </contour>
    </TTGlyph>
    <TTGlyph name="glyph00210" xMin="21" yMin="-526" xMax="1012" yMax="1234">
      <component glyphName="uni0A9F" x="0" y="0" flags="0x204"/>
      <component glyphName="glyph00129" x="1017" y="0" flags="0x4"/>
    </TTGlyph>
    <TTGlyph name="glyph00211" xMin="67" yMin="-526" xMax="1076" yMax="1234">
      <component glyphName="uni0AA0" x="0" y="0" flags="0x204"/>
      <component glyphName="glyph00129" x="1064" y="0" flags="0x4"/>
    </TTGlyph>
    <TTGlyph name="glyph00212" xMin="11" yMin="-526" xMax="1020" yMax="1234">
      <component glyphName="uni0AA1" x="0" y="0" flags="0x204"/>
      <component glyphName="glyph00129" x="1053" y="0" flags="0x4"/>
    </TTGlyph>
    <TTGlyph name="glyph00213" xMin="70" yMin="-526" xMax="1097" yMax="1234">
      <component glyphName="uni0AA2" x="0" y="0" flags="0x204"/>
      <component glyphName="glyph00129" x="1077" y="0" flags="0x4"/>
    </TTGlyph>
    <TTGlyph name="glyph00214" xMin="138" yMin="-327" xMax="1840" yMax="1234">
      <contour>
        <pt x="138" y="1234" on="1"/>
        <pt x="413" y="1212" on="1"/>
        <pt x="413" y="638" on="1"/>
        <pt x="413" y="547" on="0"/>
        <pt x="421" y="479" on="0"/>
        <pt x="455" y="422" on="0"/>
        <pt x="540" y="371" on="0"/>
        <pt x="706" y="302" on="1"/>
        <pt x="816" y="256" on="0"/>
        <pt x="955" y="174" on="0"/>
        <pt x="1024" y="97" on="0"/>
        <pt x="1052" y="21" on="0"/>
        <pt x="1052" y="-37" on="1"/>
        <pt x="1052" y="-104" on="0"/>
        <pt x="996" y="-229" on="0"/>
        <pt x="905" y="-327" on="1"/>
        <pt x="697" y="-175" on="1"/>
        <pt x="730" y="-147" on="0"/>
        <pt x="761" y="-89" on="0"/>
        <pt x="761" y="-68" on="1"/>
        <pt x="761" y="-38" on="0"/>
        <pt x="731" y="8" on="0"/>
        <pt x="636" y="64" on="0"/>
        <pt x="517" y="115" on="1"/>
        <pt x="368" y="178" on="0"/>
        <pt x="228" y="259" on="0"/>
        <pt x="163" y="343" on="0"/>
        <pt x="138" y="455" on="0"/>
        <pt x="138" y="568" on="1"/>
      </contour>
      <contour>
        <pt x="1411" y="257" on="1"/>
        <pt x="1138" y="92" on="1"/>
        <pt x="998" y="296" on="1"/>
        <pt x="1406" y="498" on="1"/>
        <pt x="1406" y="1234" on="1"/>
        <pt x="1681" y="1212" on="1"/>
        <pt x="1681" y="383" on="1"/>
        <pt x="1681" y="311" on="0"/>
        <pt x="1709" y="253" on="0"/>
        <pt x="1762" y="233" on="0"/>
        <pt x="1840" y="233" on="1"/>
        <pt x="1820" y="0" on="1"/>
        <pt x="1765" y="0" on="1"/>
        <pt x="1582" y="0" on="0"/>
        <pt x="1427" y="128" on="0"/>
      </contour>
      <contour>
        <pt x="495" y="664" on="1"/>
        <pt x="683" y="784" on="1"/>
        <pt x="734" y="704" on="0"/>
        <pt x="824" y="638" on="0"/>
        <pt x="875" y="638" on="1"/>
        <pt x="945" y="638" on="0"/>
        <pt x="1004" y="719" on="0"/>
        <pt x="1004" y="811" on="1"/>
        <pt x="1004" y="910" on="0"/>
        <pt x="927" y="1007" on="0"/>
        <pt x="846" y="1007" on="1"/>
        <pt x="801" y="1007" on="0"/>
        <pt x="723" y="991" on="0"/>
        <pt x="662" y="966" on="1"/>
        <pt x="583" y="1170" on="1"/>
        <pt x="729" y="1234" on="0"/>
        <pt x="886" y="1234" on="1"/>
        <pt x="1068" y="1234" on="0"/>
        <pt x="1278" y="1004" on="0"/>
        <pt x="1278" y="806" on="1"/>
        <pt x="1278" y="612" on="0"/>
        <pt x="1083" y="406" on="0"/>
        <pt x="912" y="406" on="1"/>
        <pt x="783" y="406" on="0"/>
        <pt x="571" y="537" on="0"/>
      </contour>
    </TTGlyph>
    <TTGlyph name="glyph00215" xMin="20" yMin="0" xMax="1290" yMax="1234">
      <contour>
        <pt x="20" y="1041" on="1"/>
        <pt x="116" y="1083" on="0"/>
        <pt x="267" y="1120" on="0"/>
        <pt x="346" y="1120" on="1"/>
        <pt x="446" y="1120" on="0"/>
        <pt x="597" y="1069" on="0"/>
        <pt x="749" y="946" on="0"/>
        <pt x="844" y="832" on="1"/>
        <pt x="856" y="839" on="1"/>
        <pt x="856" y="1234" on="1"/>
        <pt x="1131" y="1212" on="1"/>
        <pt x="1131" y="383" on="1"/>
        <pt x="1131" y="332" on="0"/>
        <pt x="1147" y="273" on="0"/>
        <pt x="1183" y="242" on="0"/>
        <pt x="1231" y="233" on="0"/>
        <pt x="1290" y="233" on="1"/>
        <pt x="1270" y="0" on="1"/>
        <pt x="1215" y="0" on="1"/>
        <pt x="1073" y="0" on="0"/>
        <pt x="929" y="71" on="0"/>
        <pt x="856" y="216" on="0"/>
        <pt x="856" y="362" on="1"/>
        <pt x="856" y="575" on="1"/>
        <pt x="337" y="228" on="1"/>
        <pt x="186" y="457" on="1"/>
        <pt x="642" y="717" on="1"/>
        <pt x="574" y="800" on="0"/>
        <pt x="430" y="885" on="0"/>
        <pt x="340" y="885" on="1"/>
        <pt x="280" y="885" on="0"/>
        <pt x="169" y="855" on="0"/>
        <pt x="107" y="824" on="1"/>
      </contour>
    </TTGlyph>
    <TTGlyph name="glyph00216" xMin="74" yMin="-35" xMax="1403" yMax="1234">
      <contour>
        <pt x="969" y="377" on="1"/>
        <pt x="365" y="-35" on="1"/>
        <pt x="205" y="166" on="1"/>
        <pt x="483" y="309" on="1"/>
        <pt x="337" y="331" on="0"/>
        <pt x="141" y="503" on="0"/>
        <pt x="83" y="663" on="1"/>
        <pt x="279" y="716" on="0"/>
        <pt x="503" y="872" on="0"/>
        <pt x="503" y="961" on="1"/>
        <pt x="503" y="998" on="0"/>
        <pt x="461" y="1044" on="0"/>
        <pt x="420" y="1044" on="1"/>
        <pt x="383" y="1044" on="0"/>
        <pt x="340" y="1005" on="0"/>
        <pt x="340" y="973" on="1"/>
        <pt x="340" y="922" on="0"/>
        <pt x="394" y="881" on="1"/>
        <pt x="178" y="771" on="1"/>
        <pt x="74" y="853" on="0"/>
        <pt x="74" y="985" on="1"/>
        <pt x="74" y="1090" on="0"/>
        <pt x="259" y="1234" on="0"/>
        <pt x="415" y="1234" on="1"/>
        <pt x="587" y="1234" on="0"/>
        <pt x="764" y="1083" on="0"/>
        <pt x="764" y="960" on="1"/>
        <pt x="764" y="707" on="0"/>
        <pt x="439" y="564" on="1"/>
        <pt x="517" y="510" on="0"/>
        <pt x="637" y="510" on="1"/>
        <pt x="728" y="510" on="0"/>
        <pt x="902" y="583" on="0"/>
        <pt x="969" y="654" on="1"/>
        <pt x="969" y="1234" on="1"/>
        <pt x="1244" y="1212" on="1"/>
        <pt x="1244" y="383" on="1"/>
        <pt x="1244" y="332" on="0"/>
        <pt x="1260" y="273" on="0"/>
        <pt x="1296" y="242" on="0"/>
        <pt x="1344" y="233" on="0"/>
        <pt x="1403" y="233" on="1"/>
        <pt x="1383" y="0" on="1"/>
        <pt x="1328" y="0" on="1"/>
        <pt x="1186" y="0" on="0"/>
        <pt x="1042" y="71" on="0"/>
        <pt x="969" y="216" on="0"/>
        <pt x="969" y="362" on="1"/>
      </contour>
    </TTGlyph>
    <TTGlyph name="glyph00217" xMin="69" yMin="-252" xMax="1172" yMax="1234">
      <contour>
        <pt x="789" y="106" on="1"/>
        <pt x="282" y="-252" on="1"/>
        <pt x="135" y="-42" on="1"/>
        <pt x="304" y="53" on="1"/>
        <pt x="346" y="77" on="0"/>
        <pt x="410" y="108" on="1"/>
        <pt x="246" y="134" on="0"/>
        <pt x="69" y="313" on="0"/>
        <pt x="69" y="447" on="1"/>
        <pt x="69" y="542" on="0"/>
        <pt x="148" y="680" on="0"/>
        <pt x="303" y="795" on="0"/>
        <pt x="450" y="866" on="1"/>
        <pt x="520" y="900" on="0"/>
        <pt x="601" y="950" on="0"/>
        <pt x="640" y="997" on="0"/>
        <pt x="640" y="1028" on="1"/>
        <pt x="640" y="1074" on="0"/>
        <pt x="603" y="1114" on="1"/>
        <pt x="819" y="1234" on="1"/>
        <pt x="870" y="1181" on="0"/>
        <pt x="921" y="1062" on="0"/>
        <pt x="921" y="1006" on="1"/>
        <pt x="921" y="937" on="0"/>
        <pt x="871" y="832" on="0"/>
        <pt x="726" y="717" on="0"/>
        <pt x="577" y="642" on="1"/>
        <pt x="473" y="590" on="0"/>
        <pt x="386" y="535" on="0"/>
        <pt x="347" y="480" on="0"/>
        <pt x="347" y="446" on="1"/>
        <pt x="347" y="386" on="0"/>
        <pt x="450" y="323" on="0"/>
        <pt x="538" y="323" on="1"/>
        <pt x="629" y="323" on="0"/>
        <pt x="696" y="336" on="1"/>
        <pt x="693" y="354" on="0"/>
        <pt x="693" y="371" on="1"/>
        <pt x="693" y="443" on="0"/>
        <pt x="786" y="527" on="0"/>
        <pt x="860" y="527" on="1"/>
        <pt x="938" y="527" on="0"/>
        <pt x="1033" y="434" on="0"/>
        <pt x="1033" y="358" on="1"/>
        <pt x="1033" y="266" on="0"/>
        <pt x="968" y="205" on="1"/>
        <pt x="1172" y="-101" on="1"/>
        <pt x="973" y="-208" on="1"/>
      </contour>
      <contour>
        <pt x="640" y="1234" on="1"/>
      </contour>
      <contour>
        <pt x="912" y="0" on="1"/>
      </contour>
      <contour>
        <pt x="502" y="1234" on="1"/>
      </contour>
    </TTGlyph>
    <TTGlyph name="glyph00218" xMin="70" yMin="-104" xMax="1321" yMax="1332">
      <contour>
        <pt x="1162" y="1213" on="1"/>
        <pt x="1162" y="383" on="1"/>
        <pt x="1162" y="332" on="0"/>
        <pt x="1178" y="273" on="0"/>
        <pt x="1214" y="242" on="0"/>
        <pt x="1262" y="233" on="0"/>
        <pt x="1321" y="233" on="1"/>
        <pt x="1301" y="0" on="1"/>
        <pt x="1246" y="0" on="1"/>
        <pt x="1049" y="0" on="0"/>
        <pt x="893" y="153" on="0"/>
        <pt x="888" y="309" on="1"/>
        <pt x="283" y="-104" on="1"/>
        <pt x="123" y="97" on="1"/>
        <pt x="403" y="241" on="1"/>
        <pt x="284" y="269" on="0"/>
        <pt x="155" y="420" on="0"/>
        <pt x="155" y="534" on="1"/>
        <pt x="155" y="628" on="0"/>
        <pt x="202" y="699" on="1"/>
        <pt x="70" y="811" on="0"/>
        <pt x="70" y="959" on="1"/>
        <pt x="70" y="1219" on="0"/>
        <pt x="464" y="1332" on="1"/>
        <pt x="564" y="1107" on="1"/>
        <pt x="462" y="1081" on="0"/>
        <pt x="344" y="1010" on="0"/>
        <pt x="344" y="949" on="1"/>
        <pt x="344" y="880" on="0"/>
        <pt x="406" y="835" on="1"/>
        <pt x="469" y="852" on="0"/>
        <pt x="545" y="852" on="1"/>
        <pt x="627" y="852" on="0"/>
        <pt x="702" y="835" on="1"/>
        <pt x="667" y="613" on="1"/>
        <pt x="615" y="624" on="0"/>
        <pt x="554" y="624" on="1"/>
        <pt x="488" y="624" on="0"/>
        <pt x="423" y="577" on="0"/>
        <pt x="423" y="536" on="1"/>
        <pt x="423" y="441" on="0"/>
        <pt x="574" y="441" on="1"/>
        <pt x="732" y="441" on="0"/>
        <pt x="887" y="582" on="1"/>
        <pt x="887" y="1234" on="1"/>
      </contour>
    </TTGlyph>
    <TTGlyph name="glyph00219" xMin="43" yMin="-35" xMax="1241" yMax="1234">
      <contour>
        <pt x="807" y="841" on="1"/>
        <pt x="807" y="1234" on="1"/>
        <pt x="1082" y="1212" on="1"/>
        <pt x="1082" y="383" on="1"/>
        <pt x="1082" y="332" on="0"/>
        <pt x="1098" y="273" on="0"/>
        <pt x="1134" y="242" on="0"/>
        <pt x="1182" y="233" on="0"/>
        <pt x="1241" y="233" on="1"/>
        <pt x="1221" y="0" on="1"/>
        <pt x="1166" y="0" on="1"/>
        <pt x="995" y="0" on="0"/>
        <pt x="842" y="109" on="0"/>
        <pt x="820" y="213" on="1"/>
        <pt x="405" y="-35" on="1"/>
        <pt x="265" y="179" on="1"/>
        <pt x="807" y="447" on="1"/>
        <pt x="807" y="608" on="1"/>
        <pt x="482" y="608" on="1"/>
        <pt x="482" y="547" on="1"/>
        <pt x="482" y="465" on="0"/>
        <pt x="416" y="386" on="0"/>
        <pt x="347" y="386" on="1"/>
        <pt x="287" y="386" on="0"/>
        <pt x="140" y="487" on="0"/>
        <pt x="43" y="636" on="0"/>
        <pt x="43" y="699" on="1"/>
        <pt x="43" y="773" on="0"/>
        <pt x="116" y="841" on="0"/>
        <pt x="187" y="841" on="1"/>
      </contour>
    </TTGlyph>
    <TTGlyph name="glyph00220" xMin="13" yMin="-35" xMax="1237" yMax="1234">
      <contour>
        <pt x="803" y="371" on="1"/>
        <pt x="249" y="-35" on="1"/>
        <pt x="89" y="156" on="1"/>
        <pt x="417" y="353" on="1"/>
        <pt x="325" y="367" on="0"/>
        <pt x="211" y="483" on="0"/>
        <pt x="172" y="629" on="0"/>
        <pt x="172" y="743" on="1"/>
        <pt x="172" y="829" on="1"/>
        <pt x="172" y="880" on="0"/>
        <pt x="156" y="940" on="0"/>
        <pt x="119" y="971" on="0"/>
        <pt x="71" y="979" on="0"/>
        <pt x="13" y="979" on="1"/>
        <pt x="33" y="1212" on="1"/>
        <pt x="88" y="1212" on="1"/>
        <pt x="198" y="1212" on="0"/>
        <pt x="338" y="1167" on="0"/>
        <pt x="416" y="1070" on="0"/>
        <pt x="447" y="947" on="0"/>
        <pt x="447" y="849" on="1"/>
        <pt x="447" y="761" on="1"/>
        <pt x="447" y="676" on="0"/>
        <pt x="472" y="594" on="0"/>
        <pt x="535" y="554" on="0"/>
        <pt x="590" y="554" on="1"/>
        <pt x="700" y="554" on="0"/>
        <pt x="803" y="646" on="1"/>
        <pt x="803" y="1234" on="1"/>
        <pt x="1078" y="1212" on="1"/>
        <pt x="1078" y="383" on="1"/>
        <pt x="1078" y="332" on="0"/>
        <pt x="1094" y="273" on="0"/>
        <pt x="1130" y="242" on="0"/>
        <pt x="1178" y="233" on="0"/>
        <pt x="1237" y="233" on="1"/>
        <pt x="1217" y="0" on="1"/>
        <pt x="1162" y="0" on="1"/>
        <pt x="1054" y="0" on="0"/>
        <pt x="914" y="43" on="0"/>
        <pt x="834" y="138" on="0"/>
        <pt x="803" y="252" on="0"/>
        <pt x="803" y="350" on="1"/>
      </contour>
    </TTGlyph>
    <TTGlyph name="glyph00221" xMin="61" yMin="-330" xMax="1128" yMax="1234">
      <contour>
        <pt x="61" y="690" on="1"/>
        <pt x="313" y="746" on="1"/>
        <pt x="271" y="789" on="0"/>
        <pt x="230" y="882" on="0"/>
        <pt x="230" y="932" on="1"/>
        <pt x="230" y="1069" on="0"/>
        <pt x="469" y="1234" on="0"/>
        <pt x="672" y="1234" on="1"/>
        <pt x="810" y="1234" on="0"/>
        <pt x="910" y="1209" on="1"/>
        <pt x="864" y="986" on="1"/>
        <pt x="775" y="1005" on="0"/>
        <pt x="684" y="1005" on="1"/>
        <pt x="509" y="1005" on="0"/>
        <pt x="509" y="906" on="1"/>
        <pt x="509" y="880" on="0"/>
        <pt x="544" y="830" on="0"/>
        <pt x="579" y="807" on="1"/>
        <pt x="1059" y="924" on="1"/>
        <pt x="1128" y="702" on="1"/>
        <pt x="835" y="641" on="1"/>
        <pt x="952" y="578" on="0"/>
        <pt x="1058" y="420" on="0"/>
        <pt x="1058" y="317" on="1"/>
        <pt x="1058" y="170" on="0"/>
        <pt x="837" y="-9" on="0"/>
        <pt x="622" y="-19" on="1"/>
        <pt x="666" y="-55" on="0"/>
        <pt x="767" y="-90" on="0"/>
        <pt x="850" y="-90" on="1"/>
        <pt x="893" y="-90" on="1"/>
        <pt x="866" y="-330" on="1"/>
        <pt x="820" y="-330" on="1"/>
        <pt x="648" y="-330" on="0"/>
        <pt x="399" y="-167" on="0"/>
        <pt x="291" y="-6" on="1"/>
        <pt x="180" y="12" on="0"/>
        <pt x="69" y="103" on="0"/>
        <pt x="69" y="183" on="1"/>
        <pt x="69" y="239" on="0"/>
        <pt x="151" y="309" on="0"/>
        <pt x="214" y="309" on="1"/>
        <pt x="325" y="309" on="0"/>
        <pt x="428" y="215" on="1"/>
        <pt x="463" y="210" on="0"/>
        <pt x="522" y="210" on="1"/>
        <pt x="646" y="210" on="0"/>
        <pt x="777" y="276" on="0"/>
        <pt x="777" y="341" on="1"/>
        <pt x="777" y="393" on="0"/>
        <pt x="706" y="468" on="0"/>
        <pt x="651" y="499" on="1"/>
        <pt x="503" y="279" on="1"/>
        <pt x="275" y="368" on="1"/>
        <pt x="437" y="559" on="1"/>
        <pt x="125" y="471" on="1"/>
      </contour>
      <contour>
        <pt x="624" y="1234" on="1"/>
      </contour>
      <contour>
        <pt x="471" y="1234" on="1"/>
      </contour>
    </TTGlyph>
    <TTGlyph name="glyph00222" xMin="70" yMin="-35" xMax="1625" yMax="1234">
      <contour>
        <pt x="554" y="1234" on="1"/>
        <pt x="618" y="998" on="1"/>
        <pt x="348" y="931" on="0"/>
        <pt x="348" y="733" on="1"/>
        <pt x="348" y="636" on="0"/>
        <pt x="440" y="538" on="0"/>
        <pt x="530" y="538" on="1"/>
        <pt x="592" y="538" on="0"/>
        <pt x="667" y="587" on="0"/>
        <pt x="698" y="673" on="0"/>
        <pt x="698" y="780" on="1"/>
        <pt x="698" y="926" on="1"/>
        <pt x="973" y="904" on="1"/>
        <pt x="973" y="731" on="1"/>
        <pt x="997" y="687" on="0"/>
        <pt x="1056" y="687" on="1"/>
        <pt x="1132" y="687" on="0"/>
        <pt x="1191" y="743" on="1"/>
        <pt x="1191" y="1234" on="1"/>
        <pt x="1466" y="1212" on="1"/>
        <pt x="1466" y="383" on="1"/>
        <pt x="1466" y="332" on="0"/>
        <pt x="1482" y="273" on="0"/>
        <pt x="1518" y="242" on="0"/>
        <pt x="1566" y="233" on="0"/>
        <pt x="1625" y="233" on="1"/>
        <pt x="1605" y="0" on="1"/>
        <pt x="1550" y="0" on="1"/>
        <pt x="1379" y="0" on="0"/>
        <pt x="1226" y="109" on="0"/>
        <pt x="1204" y="213" on="1"/>
        <pt x="789" y="-35" on="1"/>
        <pt x="649" y="179" on="1"/>
        <pt x="1191" y="447" on="1"/>
        <pt x="1191" y="485" on="1"/>
        <pt x="1134" y="454" on="0"/>
        <pt x="1055" y="454" on="1"/>
        <pt x="969" y="454" on="0"/>
        <pt x="914" y="492" on="1"/>
        <pt x="866" y="398" on="0"/>
        <pt x="677" y="305" on="0"/>
        <pt x="527" y="305" on="1"/>
        <pt x="320" y="305" on="0"/>
        <pt x="70" y="536" on="0"/>
        <pt x="70" y="731" on="1"/>
        <pt x="70" y="916" on="0"/>
        <pt x="323" y="1181" on="0"/>
      </contour>
    </TTGlyph>
    <TTGlyph name="glyph00223" xMin="70" yMin="-35" xMax="1755" yMax="1234">
      <contour>
        <pt x="751" y="770" on="1"/>
        <pt x="751" y="786" on="1"/>
        <pt x="751" y="1001" on="0"/>
        <pt x="578" y="1001" on="1"/>
        <pt x="468" y="1001" on="0"/>
        <pt x="348" y="866" on="0"/>
        <pt x="348" y="756" on="1"/>
        <pt x="348" y="625" on="0"/>
        <pt x="479" y="398" on="0"/>
        <pt x="621" y="277" on="1"/>
        <pt x="435" y="103" on="1"/>
        <pt x="244" y="277" on="0"/>
        <pt x="70" y="598" on="0"/>
        <pt x="70" y="767" on="1"/>
        <pt x="70" y="901" on="0"/>
        <pt x="195" y="1116" on="0"/>
        <pt x="422" y="1234" on="0"/>
        <pt x="564" y="1234" on="1"/>
        <pt x="788" y="1234" on="0"/>
        <pt x="1022" y="999" on="0"/>
        <pt x="1025" y="770" on="1"/>
        <pt x="1321" y="770" on="1"/>
        <pt x="1321" y="1234" on="1"/>
        <pt x="1596" y="1212" on="1"/>
        <pt x="1596" y="383" on="1"/>
        <pt x="1596" y="332" on="0"/>
        <pt x="1612" y="273" on="0"/>
        <pt x="1648" y="242" on="0"/>
        <pt x="1696" y="233" on="0"/>
        <pt x="1755" y="233" on="1"/>
        <pt x="1735" y="0" on="1"/>
        <pt x="1680" y="0" on="1"/>
        <pt x="1509" y="0" on="0"/>
        <pt x="1356" y="109" on="0"/>
        <pt x="1334" y="213" on="1"/>
        <pt x="919" y="-35" on="1"/>
        <pt x="779" y="179" on="1"/>
        <pt x="1321" y="447" on="1"/>
        <pt x="1321" y="539" on="1"/>
        <pt x="1026" y="539" on="1"/>
        <pt x="1026" y="500" on="1"/>
        <pt x="1026" y="418" on="0"/>
        <pt x="958" y="337" on="0"/>
        <pt x="883" y="337" on="1"/>
        <pt x="828" y="337" on="0"/>
        <pt x="683" y="437" on="0"/>
        <pt x="587" y="581" on="0"/>
        <pt x="587" y="641" on="1"/>
        <pt x="587" y="708" on="0"/>
        <pt x="659" y="770" on="0"/>
        <pt x="732" y="770" on="1"/>
      </contour>
    </TTGlyph>
    <TTGlyph name="glyph00224" xMin="77" yMin="-35" xMax="1283" yMax="1234">
      <contour>
        <pt x="516" y="730" on="1"/>
        <pt x="849" y="730" on="1"/>
        <pt x="849" y="1234" on="1"/>
        <pt x="1124" y="1212" on="1"/>
        <pt x="1124" y="383" on="1"/>
        <pt x="1124" y="332" on="0"/>
        <pt x="1140" y="273" on="0"/>
        <pt x="1176" y="242" on="0"/>
        <pt x="1224" y="233" on="0"/>
        <pt x="1283" y="233" on="1"/>
        <pt x="1263" y="0" on="1"/>
        <pt x="1208" y="0" on="1"/>
        <pt x="1037" y="0" on="0"/>
        <pt x="884" y="109" on="0"/>
        <pt x="862" y="213" on="1"/>
        <pt x="447" y="-35" on="1"/>
        <pt x="307" y="179" on="1"/>
        <pt x="849" y="447" on="1"/>
        <pt x="849" y="499" on="1"/>
        <pt x="516" y="499" on="1"/>
        <pt x="516" y="480" on="1"/>
        <pt x="516" y="398" on="0"/>
        <pt x="448" y="317" on="0"/>
        <pt x="373" y="317" on="1"/>
        <pt x="310" y="317" on="0"/>
        <pt x="168" y="406" on="0"/>
        <pt x="77" y="541" on="0"/>
        <pt x="77" y="601" on="1"/>
        <pt x="77" y="668" on="0"/>
        <pt x="149" y="730" on="0"/>
        <pt x="222" y="730" on="1"/>
        <pt x="242" y="730" on="1"/>
        <pt x="242" y="829" on="1"/>
        <pt x="242" y="880" on="0"/>
        <pt x="226" y="940" on="0"/>
        <pt x="189" y="971" on="0"/>
        <pt x="141" y="979" on="0"/>
        <pt x="83" y="979" on="1"/>
        <pt x="103" y="1212" on="1"/>
        <pt x="158" y="1212" on="1"/>
        <pt x="263" y="1212" on="0"/>
        <pt x="399" y="1172" on="0"/>
        <pt x="476" y="1090" on="0"/>
        <pt x="516" y="973" on="0"/>
        <pt x="516" y="858" on="1"/>
      </contour>
    </TTGlyph>
    <TTGlyph name="glyph00225" xMin="28" yMin="-35" xMax="1320" yMax="1234">
      <contour>
        <pt x="886" y="401" on="1"/>
        <pt x="291" y="-35" on="1"/>
        <pt x="131" y="156" on="1"/>
        <pt x="453" y="349" on="1"/>
        <pt x="322" y="376" on="0"/>
        <pt x="136" y="562" on="0"/>
        <pt x="82" y="721" on="1"/>
        <pt x="214" y="752" on="0"/>
        <pt x="339" y="844" on="0"/>
        <pt x="339" y="909" on="1"/>
        <pt x="339" y="957" on="0"/>
        <pt x="271" y="1008" on="0"/>
        <pt x="206" y="1008" on="1"/>
        <pt x="145" y="1008" on="0"/>
        <pt x="85" y="990" on="1"/>
        <pt x="28" y="1205" on="1"/>
        <pt x="118" y="1234" on="0"/>
        <pt x="225" y="1234" on="1"/>
        <pt x="410" y="1234" on="0"/>
        <pt x="611" y="1059" on="0"/>
        <pt x="611" y="910" on="1"/>
        <pt x="611" y="817" on="0"/>
        <pt x="525" y="676" on="0"/>
        <pt x="433" y="619" on="1"/>
        <pt x="501" y="554" on="0"/>
        <pt x="608" y="554" on="1"/>
        <pt x="688" y="554" on="0"/>
        <pt x="821" y="615" on="0"/>
        <pt x="886" y="681" on="1"/>
        <pt x="886" y="1234" on="1"/>
        <pt x="1161" y="1212" on="1"/>
        <pt x="1161" y="383" on="1"/>
        <pt x="1161" y="332" on="0"/>
        <pt x="1177" y="273" on="0"/>
        <pt x="1213" y="242" on="0"/>
        <pt x="1261" y="233" on="0"/>
        <pt x="1320" y="233" on="1"/>
        <pt x="1300" y="0" on="1"/>
        <pt x="1245" y="0" on="1"/>
        <pt x="1103" y="0" on="0"/>
        <pt x="959" y="71" on="0"/>
        <pt x="886" y="216" on="0"/>
        <pt x="886" y="362" on="1"/>
      </contour>
    </TTGlyph>
    <TTGlyph name="glyph00226" xMin="10" yMin="-526" xMax="974" yMax="1234">
      <component glyphName="uni0AB0" x="0" y="0" flags="0x204"/>
      <component glyphName="glyph00129" x="1006" y="0" flags="0x4"/>
    </TTGlyph>
    <TTGlyph name="glyph00227" xMin="70" yMin="-85" xMax="1430" yMax="1234">
      <contour>
        <pt x="723" y="995" on="1"/>
        <pt x="534" y="962" on="0"/>
        <pt x="348" y="816" on="0"/>
        <pt x="348" y="698" on="1"/>
        <pt x="348" y="587" on="0"/>
        <pt x="494" y="467" on="0"/>
        <pt x="622" y="467" on="1"/>
        <pt x="679" y="467" on="0"/>
        <pt x="729" y="478" on="1"/>
        <pt x="772" y="334" on="1"/>
        <pt x="996" y="447" on="1"/>
        <pt x="996" y="669" on="1"/>
        <pt x="586" y="585" on="1"/>
        <pt x="529" y="816" on="1"/>
        <pt x="996" y="908" on="1"/>
        <pt x="996" y="1234" on="1"/>
        <pt x="1271" y="1212" on="1"/>
        <pt x="1271" y="383" on="1"/>
        <pt x="1271" y="332" on="0"/>
        <pt x="1287" y="273" on="0"/>
        <pt x="1323" y="242" on="0"/>
        <pt x="1371" y="233" on="0"/>
        <pt x="1430" y="233" on="1"/>
        <pt x="1410" y="0" on="1"/>
        <pt x="1355" y="0" on="1"/>
        <pt x="1184" y="0" on="0"/>
        <pt x="1031" y="109" on="0"/>
        <pt x="1009" y="213" on="1"/>
        <pt x="499" y="-85" on="1"/>
        <pt x="359" y="129" on="1"/>
        <pt x="594" y="238" on="1"/>
        <pt x="338" y="242" on="0"/>
        <pt x="70" y="488" on="0"/>
        <pt x="70" y="709" on="1"/>
        <pt x="70" y="909" on="0"/>
        <pt x="373" y="1184" on="0"/>
        <pt x="657" y="1234" on="1"/>
      </contour>
    </TTGlyph>
    <TTGlyph name="glyph00228" xMin="70" yMin="-35" xMax="1631" yMax="1234">
      <contour>
        <pt x="1472" y="383" on="1"/>
        <pt x="1472" y="332" on="0"/>
        <pt x="1488" y="273" on="0"/>
        <pt x="1524" y="242" on="0"/>
        <pt x="1572" y="233" on="0"/>
        <pt x="1631" y="233" on="1"/>
        <pt x="1611" y="0" on="1"/>
        <pt x="1556" y="0" on="1"/>
        <pt x="1396" y="0" on="0"/>
        <pt x="1241" y="96" on="0"/>
        <pt x="1213" y="198" on="1"/>
        <pt x="828" y="-35" on="1"/>
        <pt x="688" y="179" on="1"/>
        <pt x="1197" y="431" on="1"/>
        <pt x="1197" y="774" on="1"/>
        <pt x="1197" y="861" on="0"/>
        <pt x="1177" y="945" on="0"/>
        <pt x="1126" y="985" on="0"/>
        <pt x="1086" y="985" on="1"/>
        <pt x="1034" y="985" on="0"/>
        <pt x="981" y="918" on="0"/>
        <pt x="981" y="807" on="1"/>
        <pt x="981" y="767" on="1"/>
        <pt x="981" y="578" on="0"/>
        <pt x="885" y="374" on="0"/>
        <pt x="692" y="267" on="0"/>
        <pt x="536" y="267" on="1"/>
        <pt x="326" y="267" on="0"/>
        <pt x="70" y="511" on="0"/>
        <pt x="70" y="718" on="1"/>
        <pt x="70" y="903" on="0"/>
        <pt x="324" y="1178" on="0"/>
        <pt x="554" y="1234" on="1"/>
        <pt x="618" y="998" on="1"/>
        <pt x="348" y="924" on="0"/>
        <pt x="348" y="716" on="1"/>
        <pt x="348" y="610" on="0"/>
        <pt x="445" y="500" on="0"/>
        <pt x="533" y="500" on="1"/>
        <pt x="603" y="500" on="0"/>
        <pt x="679" y="558" on="0"/>
        <pt x="707" y="659" on="0"/>
        <pt x="707" y="754" on="1"/>
        <pt x="707" y="799" on="1"/>
        <pt x="707" y="954" on="0"/>
        <pt x="778" y="1113" on="0"/>
        <pt x="938" y="1212" on="0"/>
        <pt x="1080" y="1212" on="1"/>
        <pt x="1210" y="1212" on="0"/>
        <pt x="1384" y="1113" on="0"/>
        <pt x="1472" y="938" on="0"/>
        <pt x="1472" y="776" on="1"/>
      </contour>
      <contour>
        <pt x="1034" y="1234" on="1"/>
      </contour>
    </TTGlyph>
    <TTGlyph name="glyph00229" xMin="70" yMin="-35" xMax="1260" yMax="1234">
      <contour>
        <pt x="1101" y="1213" on="1"/>
        <pt x="1101" y="383" on="1"/>
        <pt x="1101" y="332" on="0"/>
        <pt x="1117" y="273" on="0"/>
        <pt x="1153" y="242" on="0"/>
        <pt x="1201" y="233" on="0"/>
        <pt x="1260" y="233" on="1"/>
        <pt x="1240" y="0" on="1"/>
        <pt x="1185" y="0" on="1"/>
        <pt x="1043" y="0" on="0"/>
        <pt x="899" y="71" on="0"/>
        <pt x="826" y="215" on="0"/>
        <pt x="826" y="362" on="1"/>
        <pt x="826" y="415" on="1"/>
        <pt x="260" y="-35" on="1"/>
        <pt x="100" y="156" on="1"/>
        <pt x="376" y="346" on="1"/>
        <pt x="231" y="377" on="0"/>
        <pt x="70" y="573" on="0"/>
        <pt x="70" y="720" on="1"/>
        <pt x="70" y="901" on="0"/>
        <pt x="323" y="1116" on="0"/>
        <pt x="531" y="1116" on="1"/>
        <pt x="632" y="1116" on="0"/>
        <pt x="740" y="1100" on="1"/>
        <pt x="717" y="870" on="1"/>
        <pt x="663" y="883" on="0"/>
        <pt x="567" y="883" on="1"/>
        <pt x="460" y="883" on="0"/>
        <pt x="346" y="794" on="0"/>
        <pt x="346" y="713" on="1"/>
        <pt x="346" y="635" on="0"/>
        <pt x="441" y="554" on="0"/>
        <pt x="528" y="554" on="1"/>
        <pt x="612" y="554" on="0"/>
        <pt x="749" y="614" on="0"/>
        <pt x="826" y="685" on="1"/>
        <pt x="826" y="1234" on="1"/>
      </contour>
    </TTGlyph>
    <TTGlyph name="glyph00230" xMin="20" yMin="0" xMax="1547" yMax="1234">
      <contour>
        <pt x="1114" y="316" on="1"/>
        <pt x="630" y="28" on="1"/>
        <pt x="490" y="242" on="1"/>
        <pt x="794" y="393" on="1"/>
        <pt x="834" y="413" on="0"/>
        <pt x="893" y="440" on="1"/>
        <pt x="815" y="455" on="0"/>
        <pt x="654" y="500" on="0"/>
        <pt x="572" y="531" on="1"/>
        <pt x="424" y="439" on="0"/>
        <pt x="150" y="300" on="1"/>
        <pt x="20" y="514" on="1"/>
        <pt x="179" y="582" on="0"/>
        <pt x="326" y="654" on="1"/>
        <pt x="233" y="707" on="0"/>
        <pt x="141" y="852" on="0"/>
        <pt x="141" y="943" on="1"/>
        <pt x="141" y="1072" on="0"/>
        <pt x="345" y="1234" on="0"/>
        <pt x="517" y="1234" on="1"/>
        <pt x="690" y="1234" on="0"/>
        <pt x="893" y="1070" on="0"/>
        <pt x="893" y="930" on="1"/>
        <pt x="893" y="862" on="0"/>
        <pt x="831" y="744" on="0"/>
        <pt x="764" y="686" on="1"/>
        <pt x="828" y="666" on="0"/>
        <pt x="1003" y="626" on="0"/>
        <pt x="1113" y="606" on="1"/>
        <pt x="1113" y="1234" on="1"/>
        <pt x="1388" y="1212" on="1"/>
        <pt x="1388" y="383" on="1"/>
        <pt x="1388" y="332" on="0"/>
        <pt x="1404" y="273" on="0"/>
        <pt x="1440" y="242" on="0"/>
        <pt x="1488" y="233" on="0"/>
        <pt x="1547" y="233" on="1"/>
        <pt x="1527" y="0" on="1"/>
        <pt x="1472" y="0" on="1"/>
        <pt x="1272" y="0" on="0"/>
        <pt x="1119" y="157" on="0"/>
      </contour>
      <contour>
        <pt x="527" y="772" on="1"/>
        <pt x="584" y="810" on="0"/>
        <pt x="635" y="883" on="0"/>
        <pt x="635" y="925" on="1"/>
        <pt x="635" y="975" on="0"/>
        <pt x="576" y="1024" on="0"/>
        <pt x="522" y="1024" on="1"/>
        <pt x="468" y="1024" on="0"/>
        <pt x="399" y="967" on="0"/>
        <pt x="399" y="919" on="1"/>
        <pt x="399" y="874" on="0"/>
        <pt x="463" y="801" on="0"/>
      </contour>
    </TTGlyph>
    <TTGlyph name="glyph00231" xMin="13" yMin="-35" xMax="1252" yMax="1234">
      <contour>
        <pt x="818" y="380" on="1"/>
        <pt x="252" y="-35" on="1"/>
        <pt x="92" y="156" on="1"/>
        <pt x="420" y="353" on="1"/>
        <pt x="326" y="368" on="0"/>
        <pt x="211" y="484" on="0"/>
        <pt x="172" y="627" on="0"/>
        <pt x="172" y="743" on="1"/>
        <pt x="172" y="838" on="1"/>
        <pt x="172" y="919" on="0"/>
        <pt x="135" y="967" on="0"/>
        <pt x="89" y="979" on="0"/>
        <pt x="13" y="979" on="1"/>
        <pt x="33" y="1212" on="1"/>
        <pt x="88" y="1212" on="1"/>
        <pt x="252" y="1212" on="0"/>
        <pt x="331" y="1160" on="1"/>
        <pt x="756" y="875" on="1"/>
        <pt x="784" y="856" on="0"/>
        <pt x="818" y="829" on="1"/>
        <pt x="818" y="1234" on="1"/>
        <pt x="1093" y="1212" on="1"/>
        <pt x="1093" y="383" on="1"/>
        <pt x="1093" y="332" on="0"/>
        <pt x="1109" y="273" on="0"/>
        <pt x="1145" y="242" on="0"/>
        <pt x="1193" y="233" on="0"/>
        <pt x="1252" y="233" on="1"/>
        <pt x="1232" y="0" on="1"/>
        <pt x="1177" y="0" on="1"/>
        <pt x="1069" y="0" on="0"/>
        <pt x="929" y="43" on="0"/>
        <pt x="849" y="138" on="0"/>
        <pt x="818" y="252" on="0"/>
        <pt x="818" y="350" on="1"/>
      </contour>
      <contour>
        <pt x="447" y="761" on="1"/>
        <pt x="447" y="676" on="0"/>
        <pt x="472" y="594" on="0"/>
        <pt x="535" y="554" on="0"/>
        <pt x="590" y="554" on="1"/>
        <pt x="713" y="554" on="0"/>
        <pt x="815" y="640" on="1"/>
        <pt x="622" y="769" on="1"/>
        <pt x="537" y="825" on="0"/>
        <pt x="442" y="903" on="1"/>
        <pt x="447" y="858" on="0"/>
        <pt x="447" y="795" on="1"/>
      </contour>
    </TTGlyph>
    <TTGlyph name="glyph00232" xMin="53" yMin="0" xMax="1624" yMax="1234">
      <contour>
        <pt x="1190" y="349" on="1"/>
        <pt x="932" y="193" on="1"/>
        <pt x="798" y="397" on="1"/>
        <pt x="1190" y="585" on="1"/>
        <pt x="1190" y="633" on="1"/>
        <pt x="1099" y="582" on="0"/>
        <pt x="971" y="582" on="1"/>
        <pt x="873" y="582" on="0"/>
        <pt x="793" y="610" on="1"/>
        <pt x="719" y="477" on="0"/>
        <pt x="568" y="408" on="1"/>
        <pt x="631" y="335" on="0"/>
        <pt x="768" y="240" on="0"/>
        <pt x="845" y="240" on="1"/>
        <pt x="859" y="240" on="1"/>
        <pt x="841" y="0" on="1"/>
        <pt x="819" y="0" on="1"/>
        <pt x="663" y="0" on="0"/>
        <pt x="426" y="175" on="0"/>
        <pt x="304" y="348" on="1"/>
        <pt x="273" y="348" on="1"/>
        <pt x="169" y="348" on="0"/>
        <pt x="55" y="435" on="0"/>
        <pt x="55" y="515" on="1"/>
        <pt x="55" y="584" on="0"/>
        <pt x="147" y="663" on="0"/>
        <pt x="229" y="663" on="1"/>
        <pt x="313" y="663" on="0"/>
        <pt x="391" y="604" on="1"/>
        <pt x="475" y="636" on="0"/>
        <pt x="568" y="752" on="0"/>
        <pt x="568" y="828" on="1"/>
        <pt x="568" y="912" on="0"/>
        <pt x="463" y="1001" on="0"/>
        <pt x="365" y="1001" on="1"/>
        <pt x="238" y="1001" on="0"/>
        <pt x="130" y="949" on="1"/>
        <pt x="53" y="1165" on="1"/>
        <pt x="217" y="1234" on="0"/>
        <pt x="406" y="1234" on="1"/>
        <pt x="605" y="1234" on="0"/>
        <pt x="848" y="1017" on="0"/>
        <pt x="849" y="831" on="1"/>
        <pt x="902" y="811" on="0"/>
        <pt x="973" y="811" on="1"/>
        <pt x="1101" y="811" on="0"/>
        <pt x="1190" y="891" on="1"/>
        <pt x="1190" y="1234" on="1"/>
        <pt x="1465" y="1212" on="1"/>
        <pt x="1465" y="383" on="1"/>
        <pt x="1465" y="332" on="0"/>
        <pt x="1481" y="273" on="0"/>
        <pt x="1517" y="242" on="0"/>
        <pt x="1565" y="233" on="0"/>
        <pt x="1624" y="233" on="1"/>
        <pt x="1604" y="0" on="1"/>
        <pt x="1549" y="0" on="1"/>
        <pt x="1427" y="0" on="0"/>
        <pt x="1274" y="58" on="0"/>
        <pt x="1190" y="209" on="0"/>
      </contour>
    </TTGlyph>
    <TTGlyph name="glyph00233" xMin="74" yMin="-313" xMax="1287" yMax="1234">
      <contour>
        <pt x="779" y="984" on="1"/>
        <pt x="681" y="1003" on="0"/>
        <pt x="617" y="1003" on="1"/>
        <pt x="458" y="1003" on="0"/>
        <pt x="458" y="891" on="1"/>
        <pt x="458" y="825" on="0"/>
        <pt x="517" y="769" on="1"/>
        <pt x="606" y="789" on="0"/>
        <pt x="704" y="789" on="1"/>
        <pt x="974" y="789" on="0"/>
        <pt x="1287" y="525" on="0"/>
        <pt x="1287" y="300" on="1"/>
        <pt x="1287" y="222" on="0"/>
        <pt x="1256" y="51" on="0"/>
        <pt x="1227" y="-20" on="1"/>
        <pt x="962" y="49" on="1"/>
        <pt x="1016" y="165" on="0"/>
        <pt x="1016" y="293" on="1"/>
        <pt x="1016" y="325" on="0"/>
        <pt x="1012" y="343" on="1"/>
        <pt x="631" y="97" on="1"/>
        <pt x="491" y="311" on="1"/>
        <pt x="892" y="518" on="1"/>
        <pt x="817" y="558" on="0"/>
        <pt x="704" y="558" on="1"/>
        <pt x="540" y="558" on="0"/>
        <pt x="352" y="395" on="0"/>
        <pt x="352" y="256" on="1"/>
        <pt x="352" y="144" on="0"/>
        <pt x="490" y="-24" on="0"/>
        <pt x="642" y="-95" on="1"/>
        <pt x="511" y="-313" on="1"/>
        <pt x="289" y="-204" on="0"/>
        <pt x="74" y="86" on="0"/>
        <pt x="74" y="276" on="1"/>
        <pt x="74" y="395" on="0"/>
        <pt x="176" y="597" on="0"/>
        <pt x="278" y="669" on="1"/>
        <pt x="180" y="779" on="0"/>
        <pt x="180" y="914" on="1"/>
        <pt x="180" y="1060" on="0"/>
        <pt x="397" y="1234" on="0"/>
        <pt x="587" y="1234" on="1"/>
        <pt x="716" y="1234" on="0"/>
        <pt x="826" y="1209" on="1"/>
      </contour>
      <contour>
        <pt x="647" y="1234" on="1"/>
      </contour>
      <contour>
        <pt x="509" y="1234" on="1"/>
      </contour>
    </TTGlyph>
    <TTGlyph name="glyph00234" xMin="75" yMin="-112" xMax="1682" yMax="1234">
      <contour>
        <pt x="1248" y="830" on="1"/>
        <pt x="1248" y="1234" on="1"/>
        <pt x="1523" y="1212" on="1"/>
        <pt x="1523" y="383" on="1"/>
        <pt x="1523" y="332" on="0"/>
        <pt x="1539" y="273" on="0"/>
        <pt x="1575" y="242" on="0"/>
        <pt x="1623" y="233" on="0"/>
        <pt x="1682" y="233" on="1"/>
        <pt x="1662" y="0" on="1"/>
        <pt x="1607" y="0" on="1"/>
        <pt x="1407" y="0" on="0"/>
        <pt x="1255" y="156" on="0"/>
        <pt x="1250" y="282" on="1"/>
        <pt x="1029" y="150" on="1"/>
        <pt x="898" y="349" on="1"/>
        <pt x="1248" y="522" on="1"/>
        <pt x="1248" y="584" on="1"/>
        <pt x="1163" y="548" on="0"/>
        <pt x="949" y="510" on="0"/>
        <pt x="843" y="510" on="1"/>
        <pt x="753" y="510" on="0"/>
        <pt x="586" y="539" on="0"/>
        <pt x="509" y="568" on="1"/>
        <pt x="431" y="532" on="0"/>
        <pt x="350" y="453" on="0"/>
        <pt x="350" y="399" on="1"/>
        <pt x="350" y="342" on="0"/>
        <pt x="443" y="279" on="0"/>
        <pt x="524" y="279" on="1"/>
        <pt x="545" y="279" on="1"/>
        <pt x="545" y="293" on="1"/>
        <pt x="545" y="362" on="0"/>
        <pt x="629" y="441" on="0"/>
        <pt x="702" y="441" on="1"/>
        <pt x="774" y="441" on="0"/>
        <pt x="861" y="351" on="0"/>
        <pt x="861" y="285" on="1"/>
        <pt x="861" y="223" on="0"/>
        <pt x="829" y="175" on="1"/>
        <pt x="852" y="143" on="0"/>
        <pt x="908" y="114" on="0"/>
        <pt x="965" y="114" on="1"/>
        <pt x="1001" y="114" on="1"/>
        <pt x="974" y="-112" on="1"/>
        <pt x="947" y="-112" on="1"/>
        <pt x="831" y="-112" on="0"/>
        <pt x="669" y="-29" on="0"/>
        <pt x="613" y="59" on="1"/>
        <pt x="570" y="53" on="0"/>
        <pt x="518" y="53" on="1"/>
        <pt x="310" y="53" on="0"/>
        <pt x="75" y="238" on="0"/>
        <pt x="75" y="387" on="1"/>
        <pt x="75" y="485" on="0"/>
        <pt x="176" y="622" on="0"/>
        <pt x="291" y="685" on="1"/>
        <pt x="216" y="742" on="0"/>
        <pt x="141" y="877" on="0"/>
        <pt x="141" y="956" on="1"/>
        <pt x="141" y="1078" on="0"/>
        <pt x="343" y="1234" on="0"/>
        <pt x="521" y="1234" on="1"/>
        <pt x="702" y="1234" on="0"/>
        <pt x="903" y="1095" on="0"/>
        <pt x="903" y="970" on="1"/>
        <pt x="903" y="905" on="0"/>
        <pt x="834" y="787" on="0"/>
        <pt x="765" y="733" on="1"/>
        <pt x="806" y="731" on="0"/>
        <pt x="848" y="731" on="1"/>
        <pt x="1073" y="731" on="0"/>
      </contour>
      <contour>
        <pt x="515" y="793" on="1"/>
        <pt x="578" y="825" on="0"/>
        <pt x="641" y="895" on="0"/>
        <pt x="641" y="933" on="1"/>
        <pt x="641" y="976" on="0"/>
        <pt x="581" y="1026" on="0"/>
        <pt x="524" y="1026" on="1"/>
        <pt x="469" y="1026" on="0"/>
        <pt x="403" y="972" on="0"/>
        <pt x="403" y="927" on="1"/>
        <pt x="403" y="892" on="0"/>
        <pt x="460" y="822" on="0"/>
      </contour>
    </TTGlyph>
    <TTGlyph name="glyph00235" xMin="57" yMin="-132" xMax="1589" yMax="1234">
      <contour>
        <pt x="1155" y="815" on="1"/>
        <pt x="1073" y="784" on="0"/>
        <pt x="989" y="784" on="1"/>
        <pt x="931" y="784" on="0"/>
        <pt x="824" y="807" on="0"/>
        <pt x="725" y="852" on="0"/>
        <pt x="619" y="912" on="1"/>
        <pt x="525" y="964" on="0"/>
        <pt x="467" y="964" on="1"/>
        <pt x="380" y="964" on="0"/>
        <pt x="380" y="895" on="1"/>
        <pt x="380" y="853" on="0"/>
        <pt x="453" y="803" on="0"/>
        <pt x="572" y="780" on="1"/>
        <pt x="766" y="743" on="0"/>
        <pt x="944" y="585" on="0"/>
        <pt x="944" y="454" on="1"/>
        <pt x="944" y="317" on="0"/>
        <pt x="757" y="147" on="0"/>
        <pt x="590" y="127" on="1"/>
        <pt x="651" y="84" on="0"/>
        <pt x="748" y="84" on="1"/>
        <pt x="776" y="84" on="1"/>
        <pt x="747" y="-132" on="1"/>
        <pt x="727" y="-132" on="1"/>
        <pt x="596" y="-132" on="0"/>
        <pt x="382" y="-2" on="0"/>
        <pt x="286" y="136" on="1"/>
        <pt x="57" y="175" on="0"/>
        <pt x="57" y="327" on="1"/>
        <pt x="57" y="382" on="0"/>
        <pt x="138" y="457" on="0"/>
        <pt x="202" y="457" on="1"/>
        <pt x="261" y="457" on="0"/>
        <pt x="365" y="408" on="0"/>
        <pt x="432" y="340" on="1"/>
        <pt x="459" y="337" on="0"/>
        <pt x="489" y="337" on="1"/>
        <pt x="578" y="337" on="0"/>
        <pt x="672" y="394" on="0"/>
        <pt x="672" y="445" on="1"/>
        <pt x="672" y="496" on="0"/>
        <pt x="593" y="545" on="0"/>
        <pt x="506" y="561" on="1"/>
        <pt x="298" y="598" on="0"/>
        <pt x="112" y="766" on="0"/>
        <pt x="112" y="907" on="1"/>
        <pt x="112" y="1030" on="0"/>
        <pt x="298" y="1196" on="0"/>
        <pt x="457" y="1196" on="1"/>
        <pt x="597" y="1196" on="0"/>
        <pt x="760" y="1106" on="1"/>
        <pt x="844" y="1060" on="0"/>
        <pt x="955" y="1016" on="0"/>
        <pt x="1008" y="1016" on="1"/>
        <pt x="1052" y="1016" on="0"/>
        <pt x="1114" y="1034" on="0"/>
        <pt x="1155" y="1056" on="1"/>
        <pt x="1155" y="1234" on="1"/>
        <pt x="1430" y="1212" on="1"/>
        <pt x="1430" y="383" on="1"/>
        <pt x="1430" y="332" on="0"/>
        <pt x="1446" y="273" on="0"/>
        <pt x="1482" y="242" on="0"/>
        <pt x="1530" y="233" on="0"/>
        <pt x="1589" y="233" on="1"/>
        <pt x="1569" y="0" on="1"/>
        <pt x="1514" y="0" on="1"/>
        <pt x="1403" y="0" on="0"/>
        <pt x="1260" y="46" on="0"/>
        <pt x="1218" y="101" on="1"/>
        <pt x="1216" y="104" on="0"/>
        <pt x="1214" y="106" on="1"/>
        <pt x="1213" y="109" on="0"/>
        <pt x="1210" y="112" on="1"/>
        <pt x="929" y="-70" on="1"/>
        <pt x="798" y="129" on="1"/>
        <pt x="1155" y="326" on="1"/>
      </contour>
    </TTGlyph>
    <TTGlyph name="glyph00236" xMin="40" yMin="-428" xMax="1128" yMax="1234">
      <component glyphName="glyph00200" x="0" y="0" flags="0x204"/>
      <component glyphName="uni0ABC" x="1088" y="0" flags="0x4"/>
    </TTGlyph>
    <TTGlyph name="glyph00237" xMin="13" yMin="-428" xMax="1653" yMax="1234">
      <component glyphName="glyph00201" x="0" y="0" flags="0x204"/>
      <component glyphName="uni0ABC" x="1153" y="0" flags="0x4"/>
    </TTGlyph>
    <TTGlyph name="glyph00238" xMin="11" yMin="-428" xMax="1454" yMax="1234">
      <component glyphName="glyph00202" x="0" y="0" flags="0x204"/>
      <component glyphName="uni0ABC" x="1011" y="0" flags="0x4"/>
    </TTGlyph>
    <TTGlyph name="glyph00239" xMin="70" yMin="-428" xMax="1341" yMax="1234">
      <component glyphName="glyph00203" x="0" y="0" flags="0x204"/>
      <component glyphName="uni0ABC" x="981" y="0" flags="0x4"/>
    </TTGlyph>
    <TTGlyph name="glyph00240" xMin="11" yMin="-550" xMax="1084" yMax="1234">
      <component glyphName="uni0A99" x="0" y="0" flags="0x204"/>
      <component glyphName="glyph00129" x="1124" y="-24" flags="0x4"/>
      <component glyphName="glyph00641" x="672" y="165" flags="0x4"/>
    </TTGlyph>
    <TTGlyph name="glyph00241" xMin="50" yMin="-457" xMax="1442" yMax="1234">
      <component glyphName="glyph00205" x="0" y="0" flags="0x204"/>
      <component glyphName="uni0ABC" x="1044" y="-29" flags="0x4"/>
    </TTGlyph>
    <TTGlyph name="glyph00242" xMin="70" yMin="-550" xMax="1541" yMax="1234">
      <component glyphName="uni0A9B" x="0" y="0" flags="0x204"/>
      <component glyphName="glyph00129" x="1404" y="-24" flags="0x4"/>
      <component glyphName="glyph00641" x="802" y="115" flags="0x4"/>
    </TTGlyph>
    <TTGlyph name="glyph00243" xMin="55" yMin="-526" xMax="1926" yMax="1234">
      <component glyphName="uni0A9C" x="0" y="0" flags="0x204"/>
      <component glyphName="glyph00129" x="1746" y="0" flags="0x4"/>
      <component glyphName="uni0ABC" x="1233" y="252" flags="0x4"/>
    </TTGlyph>
    <TTGlyph name="glyph00244" xMin="20" yMin="-428" xMax="1481" yMax="1234">
      <component glyphName="glyph00208" x="0" y="0" flags="0x204"/>
      <component glyphName="uni0ABC" x="1281" y="0" flags="0x4"/>
    </TTGlyph>
    <TTGlyph name="glyph00245" xMin="11" yMin="-428" xMax="1512" yMax="1234">
      <component glyphName="glyph00209" x="0" y="0" flags="0x204"/>
      <component glyphName="uni0ABC" x="1061" y="0" flags="0x4"/>
    </TTGlyph>
    <TTGlyph name="glyph00246" xMin="25" yMin="-550" xMax="1073" yMax="1234">
      <component glyphName="uni0A9F" x="0" y="0" flags="0x204"/>
      <component glyphName="glyph00129" x="1114" y="-24" flags="0x4"/>
      <component glyphName="glyph00641" x="662" y="165" flags="0x4"/>
    </TTGlyph>
    <TTGlyph name="glyph00247" xMin="35" yMin="-550" xMax="1083" yMax="1234">
      <component glyphName="uni0AA0" x="0" y="0" flags="0x204"/>
      <component glyphName="glyph00129" x="1124" y="-24" flags="0x4"/>
      <component glyphName="glyph00641" x="672" y="165" flags="0x4"/>
    </TTGlyph>
    <TTGlyph name="glyph00248" xMin="11" yMin="-550" xMax="1083" yMax="1234">
      <component glyphName="uni0AA1" x="0" y="0" flags="0x204"/>
      <component glyphName="glyph00129" x="1124" y="-24" flags="0x4"/>
      <component glyphName="glyph00641" x="672" y="165" flags="0x4"/>
    </TTGlyph>
    <TTGlyph name="glyph00249" xMin="50" yMin="-550" xMax="1098" yMax="1234">
      <component glyphName="uni0AA2" x="0" y="0" flags="0x204"/>
      <component glyphName="glyph00129" x="1139" y="-24" flags="0x4"/>
      <component glyphName="glyph00641" x="687" y="165" flags="0x4"/>
    </TTGlyph>
    <TTGlyph name="glyph00250" xMin="138" yMin="-428" xMax="1840" yMax="1234">
      <component glyphName="glyph00214" x="0" y="0" flags="0x204"/>
      <component glyphName="uni0ABC" x="970" y="0" flags="0x4"/>
    </TTGlyph>
    <TTGlyph name="glyph00251" xMin="20" yMin="-190" xMax="1290" yMax="1234">
      <component glyphName="glyph00215" x="0" y="0" flags="0x204"/>
      <component glyphName="uni0ABC" x="970" y="238" flags="0x4"/>
    </TTGlyph>
    <TTGlyph name="glyph00252" xMin="74" yMin="-428" xMax="1403" yMax="1234">
      <component glyphName="glyph00216" x="0" y="0" flags="0x204"/>
      <component glyphName="uni0ABC" x="1020" y="0" flags="0x4"/>
    </TTGlyph>
    <TTGlyph name="glyph00253" xMin="69" yMin="-516" xMax="1172" yMax="1234">
      <component glyphName="glyph00217" x="0" y="0" flags="0x204"/>
      <component glyphName="uni0ABC" x="1143" y="-88" flags="0x4"/>
    </TTGlyph>
    <TTGlyph name="glyph00254" xMin="70" yMin="-467" xMax="1321" yMax="1332">
      <component glyphName="glyph00218" x="0" y="0" flags="0x204"/>
      <component glyphName="uni0ABC" x="978" y="-39" flags="0x4"/>
    </TTGlyph>
    <TTGlyph name="glyph00255" xMin="43" yMin="-428" xMax="1241" yMax="1234">
      <component glyphName="glyph00219" x="0" y="0" flags="0x204"/>
      <component glyphName="uni0ABC" x="933" y="0" flags="0x4"/>
    </TTGlyph>
    <TTGlyph name="glyph00256" xMin="13" yMin="-428" xMax="1237" yMax="1234">
      <component glyphName="glyph00220" x="0" y="0" flags="0x204"/>
      <component glyphName="uni0ABC" x="970" y="0" flags="0x4"/>
    </TTGlyph>
    <TTGlyph name="glyph00257" xMin="61" yMin="-537" xMax="1128" yMax="1234">
      <component glyphName="glyph00221" x="0" y="0" flags="0x204"/>
      <component glyphName="uni0ABC" x="800" y="-109" flags="0x4"/>
    </TTGlyph>
    <TTGlyph name="glyph00258" xMin="70" yMin="-428" xMax="1625" yMax="1234">
      <component glyphName="glyph00222" x="0" y="0" flags="0x204"/>
      <component glyphName="uni0ABC" x="1132" y="0" flags="0x4"/>
    </TTGlyph>
    <TTGlyph name="glyph00259" xMin="70" yMin="-428" xMax="1755" yMax="1234">
      <component glyphName="glyph00223" x="0" y="0" flags="0x204"/>
      <component glyphName="uni0ABC" x="1241" y="0" flags="0x4"/>
    </TTGlyph>
    <TTGlyph name="glyph00260" xMin="77" yMin="-428" xMax="1283" yMax="1234">
      <component glyphName="glyph00224" x="0" y="0" flags="0x204"/>
      <component glyphName="uni0ABC" x="996" y="0" flags="0x4"/>
    </TTGlyph>
    <TTGlyph name="glyph00261" xMin="28" yMin="-428" xMax="1320" yMax="1234">
      <component glyphName="glyph00225" x="0" y="0" flags="0x204"/>
      <component glyphName="uni0ABC" x="973" y="0" flags="0x4"/>
    </TTGlyph>
    <TTGlyph name="glyph00262" xMin="10" yMin="-549" xMax="974" yMax="1234">
      <component glyphName="uni0AB0" x="0" y="0" flags="0x204"/>
      <component glyphName="uni0ABC" x="729" y="329" flags="0x4"/>
      <component glyphName="glyph00129" x="1006" y="-23" flags="0x4"/>
    </TTGlyph>
    <TTGlyph name="glyph00263" xMin="70" yMin="-479" xMax="1430" yMax="1234">
      <component glyphName="glyph00227" x="0" y="0" flags="0x204"/>
      <component glyphName="uni0ABC" x="1028" y="-51" flags="0x4"/>
    </TTGlyph>
    <TTGlyph name="glyph00264" xMin="70" yMin="-428" xMax="1631" yMax="1234">
      <component glyphName="glyph00228" x="0" y="0" flags="0x204"/>
      <component glyphName="uni0ABC" x="1134" y="0" flags="0x4"/>
    </TTGlyph>
    <TTGlyph name="glyph00265" xMin="70" yMin="-428" xMax="1260" yMax="1234">
      <component glyphName="glyph00229" x="0" y="0" flags="0x204"/>
      <component glyphName="uni0ABC" x="941" y="0" flags="0x4"/>
    </TTGlyph>
    <TTGlyph name="glyph00266" xMin="20" yMin="-428" xMax="1547" yMax="1234">
      <component glyphName="glyph00230" x="0" y="0" flags="0x204"/>
      <component glyphName="uni0ABC" x="1063" y="0" flags="0x4"/>
    </TTGlyph>
    <TTGlyph name="glyph00267" xMin="13" yMin="-428" xMax="1252" yMax="1234">
      <component glyphName="glyph00231" x="0" y="0" flags="0x204"/>
      <component glyphName="uni0ABC" x="962" y="0" flags="0x4"/>
    </TTGlyph>
    <TTGlyph name="glyph00268" xMin="53" yMin="-428" xMax="1624" yMax="1234">
      <component glyphName="glyph00232" x="0" y="0" flags="0x204"/>
      <component glyphName="uni0ABC" x="1137" y="0" flags="0x4"/>
    </TTGlyph>
    <TTGlyph name="glyph00269" xMin="74" yMin="-554" xMax="1287" yMax="1234">
      <component glyphName="glyph00233" x="0" y="0" flags="0x204"/>
      <component glyphName="uni0ABC" x="762" y="-126" flags="0x4"/>
    </TTGlyph>
    <TTGlyph name="glyph00270" xMin="40" yMin="-21" xMax="1202" yMax="1234">
      <contour>
        <pt x="61" y="690" on="1"/>
        <pt x="316" y="747" on="1"/>
        <pt x="273" y="791" on="0"/>
        <pt x="230" y="884" on="0"/>
        <pt x="230" y="932" on="1"/>
        <pt x="230" y="1069" on="0"/>
        <pt x="469" y="1234" on="0"/>
        <pt x="672" y="1234" on="1"/>
        <pt x="810" y="1234" on="0"/>
        <pt x="910" y="1209" on="1"/>
        <pt x="864" y="986" on="1"/>
        <pt x="775" y="1005" on="0"/>
        <pt x="684" y="1005" on="1"/>
        <pt x="509" y="1005" on="0"/>
        <pt x="509" y="906" on="1"/>
        <pt x="509" y="880" on="0"/>
        <pt x="544" y="830" on="0"/>
        <pt x="579" y="807" on="1"/>
        <pt x="1202" y="807" on="1"/>
        <pt x="1202" y="579" on="1"/>
        <pt x="1100" y="579" on="1"/>
        <pt x="953" y="579" on="0"/>
        <pt x="886" y="588" on="1"/>
        <pt x="980" y="532" on="0"/>
        <pt x="1058" y="403" on="0"/>
        <pt x="1058" y="317" on="1"/>
        <pt x="1058" y="163" on="0"/>
        <pt x="805" y="-21" on="0"/>
        <pt x="561" y="-21" on="1"/>
        <pt x="266" y="-21" on="0"/>
        <pt x="40" y="112" on="1"/>
        <pt x="170" y="311" on="1"/>
        <pt x="281" y="258" on="0"/>
        <pt x="453" y="214" on="0"/>
        <pt x="542" y="214" on="1"/>
        <pt x="654" y="214" on="0"/>
        <pt x="777" y="281" on="0"/>
        <pt x="777" y="341" on="1"/>
        <pt x="777" y="393" on="0"/>
        <pt x="706" y="468" on="0"/>
        <pt x="651" y="499" on="1"/>
        <pt x="493" y="265" on="1"/>
        <pt x="265" y="354" on="1"/>
        <pt x="438" y="560" on="1"/>
        <pt x="125" y="471" on="1"/>
      </contour>
    </TTGlyph>
    <TTGlyph name="glyph00271" xMin="13" yMin="-35" xMax="1271" yMax="1212">
      <contour>
        <pt x="1271" y="573" on="1"/>
        <pt x="1221" y="540" on="0"/>
        <pt x="1137" y="518" on="0"/>
        <pt x="1083" y="518" on="1"/>
        <pt x="1012" y="518" on="0"/>
        <pt x="962" y="544" on="1"/>
        <pt x="922" y="429" on="0"/>
        <pt x="734" y="321" on="0"/>
        <pt x="572" y="321" on="1"/>
        <pt x="470" y="321" on="0"/>
        <pt x="318" y="371" on="0"/>
        <pt x="212" y="481" on="0"/>
        <pt x="172" y="624" on="0"/>
        <pt x="172" y="743" on="1"/>
        <pt x="172" y="829" on="1"/>
        <pt x="172" y="880" on="0"/>
        <pt x="156" y="940" on="0"/>
        <pt x="119" y="971" on="0"/>
        <pt x="71" y="979" on="0"/>
        <pt x="13" y="979" on="1"/>
        <pt x="33" y="1212" on="1"/>
        <pt x="88" y="1212" on="1"/>
        <pt x="198" y="1212" on="0"/>
        <pt x="338" y="1167" on="0"/>
        <pt x="416" y="1070" on="0"/>
        <pt x="447" y="947" on="0"/>
        <pt x="447" y="849" on="1"/>
        <pt x="447" y="737" on="1"/>
        <pt x="447" y="654" on="0"/>
        <pt x="479" y="585" on="0"/>
        <pt x="540" y="554" on="0"/>
        <pt x="575" y="554" on="1"/>
        <pt x="633" y="554" on="0"/>
        <pt x="694" y="596" on="0"/>
        <pt x="726" y="676" on="0"/>
        <pt x="726" y="754" on="1"/>
        <pt x="726" y="998" on="1"/>
        <pt x="1001" y="976" on="1"/>
        <pt x="1001" y="795" on="1"/>
        <pt x="1025" y="751" on="0"/>
        <pt x="1084" y="751" on="1"/>
        <pt x="1142" y="751" on="0"/>
        <pt x="1188" y="782" on="1"/>
      </contour>
      <contour>
        <pt x="1219" y="198" on="1"/>
        <pt x="817" y="-35" on="1"/>
        <pt x="677" y="179" on="1"/>
        <pt x="1219" y="447" on="1"/>
      </contour>
    </TTGlyph>
    <TTGlyph name="glyph00272" xMin="11" yMin="-35" xMax="1020" yMax="1234">
      <contour>
        <pt x="11" y="618" on="1"/>
        <pt x="213" y="738" on="1"/>
        <pt x="269" y="650" on="0"/>
        <pt x="376" y="575" on="0"/>
        <pt x="440" y="575" on="1"/>
        <pt x="522" y="575" on="0"/>
        <pt x="596" y="673" on="0"/>
        <pt x="596" y="776" on="1"/>
        <pt x="596" y="892" on="0"/>
        <pt x="505" y="1003" on="0"/>
        <pt x="401" y="1003" on="1"/>
        <pt x="293" y="1003" on="0"/>
        <pt x="184" y="955" on="1"/>
        <pt x="109" y="1165" on="1"/>
        <pt x="257" y="1234" on="0"/>
        <pt x="434" y="1234" on="1"/>
        <pt x="639" y="1234" on="0"/>
        <pt x="871" y="988" on="0"/>
        <pt x="871" y="771" on="1"/>
        <pt x="871" y="560" on="0"/>
        <pt x="655" y="339" on="0"/>
        <pt x="467" y="339" on="1"/>
        <pt x="327" y="339" on="0"/>
        <pt x="104" y="474" on="0"/>
      </contour>
      <contour>
        <pt x="1020" y="197" on="1"/>
        <pt x="618" y="-35" on="1"/>
        <pt x="478" y="179" on="1"/>
        <pt x="1020" y="447" on="1"/>
      </contour>
    </TTGlyph>
    <TTGlyph name="glyph00273" xMin="70" yMin="-104" xMax="977" yMax="1234">
      <contour>
        <pt x="977" y="336" on="1"/>
        <pt x="303" y="-104" on="1"/>
        <pt x="143" y="97" on="1"/>
        <pt x="424" y="241" on="1"/>
        <pt x="293" y="266" on="0"/>
        <pt x="156" y="417" on="0"/>
        <pt x="156" y="534" on="1"/>
        <pt x="156" y="627" on="0"/>
        <pt x="203" y="698" on="1"/>
        <pt x="70" y="810" on="0"/>
        <pt x="70" y="958" on="1"/>
        <pt x="70" y="1086" on="0"/>
        <pt x="272" y="1234" on="0"/>
        <pt x="451" y="1234" on="1"/>
        <pt x="575" y="1234" on="0"/>
        <pt x="674" y="1211" on="1"/>
        <pt x="629" y="993" on="1"/>
        <pt x="577" y="1006" on="0"/>
        <pt x="486" y="1006" on="1"/>
        <pt x="412" y="1006" on="0"/>
        <pt x="341" y="962" on="0"/>
        <pt x="341" y="925" on="1"/>
        <pt x="341" y="870" on="0"/>
        <pt x="399" y="833" on="1"/>
        <pt x="469" y="852" on="0"/>
        <pt x="546" y="852" on="1"/>
        <pt x="628" y="852" on="0"/>
        <pt x="703" y="835" on="1"/>
        <pt x="668" y="613" on="1"/>
        <pt x="616" y="624" on="0"/>
        <pt x="555" y="624" on="1"/>
        <pt x="489" y="624" on="0"/>
        <pt x="424" y="577" on="0"/>
        <pt x="424" y="536" on="1"/>
        <pt x="424" y="441" on="0"/>
        <pt x="575" y="441" on="1"/>
        <pt x="658" y="441" on="0"/>
        <pt x="804" y="495" on="0"/>
        <pt x="881" y="553" on="1"/>
      </contour>
    </TTGlyph>
    <TTGlyph name="glyph00274" xMin="11" yMin="-806" xMax="1109" yMax="1234">
      <component glyphName="uni0A99" x="0" y="0" flags="0x204"/>
      <component glyphName="glyph00632" x="1044" y="0" flags="0x4"/>
    </TTGlyph>
    <TTGlyph name="glyph00275" xMin="11" yMin="-548" xMax="1128" yMax="1234">
      <component glyphName="glyph00588" x="0" y="0" flags="0x204"/>
      <component glyphName="glyph00631" x="1043" y="0" flags="0x4"/>
    </TTGlyph>
    <TTGlyph name="glyph00276" xMin="50" yMin="-93" xMax="1072" yMax="1234">
      <contour>
        <pt x="126" y="966" on="1"/>
        <pt x="50" y="1172" on="1"/>
        <pt x="204" y="1234" on="0"/>
        <pt x="348" y="1234" on="1"/>
        <pt x="551" y="1234" on="0"/>
        <pt x="778" y="1036" on="0"/>
        <pt x="778" y="864" on="1"/>
        <pt x="778" y="750" on="0"/>
        <pt x="669" y="569" on="0"/>
        <pt x="562" y="512" on="1"/>
        <pt x="629" y="466" on="0"/>
        <pt x="716" y="466" on="1"/>
        <pt x="789" y="466" on="0"/>
        <pt x="909" y="512" on="0"/>
        <pt x="966" y="557" on="1"/>
        <pt x="1072" y="355" on="1"/>
        <pt x="404" y="-93" on="1"/>
        <pt x="244" y="108" on="1"/>
        <pt x="551" y="266" on="1"/>
        <pt x="474" y="281" on="0"/>
        <pt x="345" y="371" on="0"/>
        <pt x="293" y="445" on="1"/>
        <pt x="262" y="445" on="1"/>
        <pt x="161" y="445" on="0"/>
        <pt x="54" y="528" on="0"/>
        <pt x="54" y="604" on="1"/>
        <pt x="54" y="671" on="0"/>
        <pt x="133" y="740" on="0"/>
        <pt x="209" y="740" on="1"/>
        <pt x="302" y="740" on="0"/>
        <pt x="382" y="670" on="1"/>
        <pt x="445" y="697" on="0"/>
        <pt x="513" y="789" on="0"/>
        <pt x="513" y="849" on="1"/>
        <pt x="513" y="926" on="0"/>
        <pt x="419" y="1007" on="0"/>
        <pt x="327" y="1007" on="1"/>
        <pt x="224" y="1007" on="0"/>
      </contour>
    </TTGlyph>
    <TTGlyph name="glyph00277" xMin="70" yMin="-806" xMax="1541" yMax="1234">
      <component glyphName="uni0A9B" x="0" y="0" flags="0x204"/>
      <component glyphName="glyph00632" x="1235" y="0" flags="0x4"/>
    </TTGlyph>
    <TTGlyph name="glyph00278" xMin="70" yMin="-548" xMax="1521" yMax="1234">
      <component glyphName="glyph00589" x="0" y="0" flags="0x204"/>
      <component glyphName="glyph00631" x="1248" y="0" flags="0x4"/>
    </TTGlyph>
    <TTGlyph name="glyph00279" xMin="55" yMin="-526" xMax="1885" yMax="1234">
      <component glyphName="glyph00137" x="0" y="0" flags="0x204"/>
      <component glyphName="glyph00129" x="1746" y="0" flags="0x4"/>
    </TTGlyph>
    <TTGlyph name="glyph00280" xMin="20" yMin="-20" xMax="1453" yMax="1234">
      <contour>
        <pt x="1219" y="502" on="1"/>
        <pt x="1173" y="562" on="0"/>
        <pt x="1094" y="613" on="0"/>
        <pt x="1031" y="613" on="1"/>
        <pt x="976" y="613" on="0"/>
        <pt x="922" y="587" on="1"/>
        <pt x="929" y="525" on="0"/>
        <pt x="929" y="476" on="1"/>
        <pt x="929" y="232" on="0"/>
        <pt x="702" y="-20" on="0"/>
        <pt x="499" y="-20" on="1"/>
        <pt x="349" y="-20" on="0"/>
        <pt x="121" y="116" on="0"/>
        <pt x="20" y="265" on="1"/>
        <pt x="226" y="388" on="1"/>
        <pt x="300" y="286" on="0"/>
        <pt x="407" y="217" on="0"/>
        <pt x="476" y="217" on="1"/>
        <pt x="565" y="217" on="0"/>
        <pt x="654" y="348" on="0"/>
        <pt x="654" y="479" on="1"/>
        <pt x="654" y="489" on="1"/>
        <pt x="399" y="337" on="1"/>
        <pt x="265" y="542" on="1"/>
        <pt x="597" y="706" on="1"/>
        <pt x="570" y="740" on="0"/>
        <pt x="490" y="774" on="0"/>
        <pt x="437" y="774" on="1"/>
        <pt x="314" y="774" on="0"/>
        <pt x="201" y="722" on="1"/>
        <pt x="124" y="938" on="1"/>
        <pt x="281" y="1007" on="0"/>
        <pt x="466" y="1007" on="1"/>
        <pt x="593" y="1007" on="0"/>
        <pt x="783" y="909" on="0"/>
        <pt x="846" y="812" on="1"/>
        <pt x="903" y="830" on="0"/>
        <pt x="970" y="838" on="1"/>
        <pt x="970" y="1234" on="1"/>
        <pt x="1245" y="1212" on="1"/>
        <pt x="1245" y="814" on="1"/>
        <pt x="1304" y="793" on="0"/>
        <pt x="1408" y="715" on="0"/>
        <pt x="1453" y="658" on="1"/>
      </contour>
    </TTGlyph>
    <TTGlyph name="glyph00281" xMin="11" yMin="-35" xMax="1112" yMax="1234">
      <contour>
        <pt x="1112" y="680" on="1"/>
        <pt x="1066" y="655" on="0"/>
        <pt x="969" y="632" on="0"/>
        <pt x="903" y="632" on="1"/>
        <pt x="874" y="632" on="0"/>
        <pt x="853" y="634" on="1"/>
        <pt x="823" y="490" on="0"/>
        <pt x="620" y="339" on="0"/>
        <pt x="467" y="339" on="1"/>
        <pt x="327" y="339" on="0"/>
        <pt x="104" y="474" on="0"/>
        <pt x="11" y="618" on="1"/>
        <pt x="213" y="738" on="1"/>
        <pt x="269" y="650" on="0"/>
        <pt x="376" y="575" on="0"/>
        <pt x="440" y="575" on="1"/>
        <pt x="522" y="575" on="0"/>
        <pt x="596" y="674" on="0"/>
        <pt x="596" y="776" on="1"/>
        <pt x="596" y="895" on="0"/>
        <pt x="504" y="1003" on="0"/>
        <pt x="401" y="1003" on="1"/>
        <pt x="293" y="1003" on="0"/>
        <pt x="184" y="955" on="1"/>
        <pt x="109" y="1165" on="1"/>
        <pt x="257" y="1234" on="0"/>
        <pt x="434" y="1234" on="1"/>
        <pt x="611" y="1234" on="0"/>
        <pt x="835" y="1044" on="0"/>
        <pt x="860" y="862" on="1"/>
        <pt x="875" y="861" on="1"/>
        <pt x="917" y="858" on="0"/>
        <pt x="1012" y="879" on="0"/>
        <pt x="1047" y="902" on="1"/>
      </contour>
      <contour>
        <pt x="1078" y="198" on="1"/>
        <pt x="676" y="-35" on="1"/>
        <pt x="536" y="179" on="1"/>
        <pt x="1078" y="447" on="1"/>
      </contour>
    </TTGlyph>
    <TTGlyph name="glyph00282" xMin="22" yMin="-806" xMax="1083" yMax="1234">
      <component glyphName="uni0A9F" x="0" y="0" flags="0x204"/>
      <component glyphName="glyph00632" x="1018" y="0" flags="0x4"/>
    </TTGlyph>
    <TTGlyph name="glyph00283" xMin="4" yMin="-548" xMax="1039" yMax="1234">
      <component glyphName="glyph00591" x="0" y="0" flags="0x204"/>
      <component glyphName="glyph00631" x="1000" y="0" flags="0x4"/>
    </TTGlyph>
    <TTGlyph name="glyph00284" xMin="67" yMin="-806" xMax="1129" yMax="1234">
      <component glyphName="uni0AA0" x="0" y="0" flags="0x204"/>
      <component glyphName="glyph00632" x="1064" y="0" flags="0x4"/>
    </TTGlyph>
    <TTGlyph name="glyph00285" xMin="58" yMin="-548" xMax="1093" yMax="1234">
      <component glyphName="glyph00592" x="0" y="0" flags="0x204"/>
      <component glyphName="glyph00631" x="1054" y="0" flags="0x4"/>
    </TTGlyph>
    <TTGlyph name="glyph00286" xMin="11" yMin="-806" xMax="1118" yMax="1234">
      <component glyphName="uni0AA1" x="0" y="0" flags="0x204"/>
      <component glyphName="glyph00632" x="1053" y="0" flags="0x4"/>
    </TTGlyph>
    <TTGlyph name="glyph00287" xMin="11" yMin="-548" xMax="1082" yMax="1234">
      <component glyphName="glyph00593" x="0" y="0" flags="0x204"/>
      <component glyphName="glyph00631" x="1043" y="0" flags="0x4"/>
    </TTGlyph>
    <TTGlyph name="glyph00288" xMin="70" yMin="-806" xMax="1142" yMax="1234">
      <component glyphName="uni0AA2" x="0" y="0" flags="0x204"/>
      <component glyphName="glyph00632" x="1077" y="0" flags="0x4"/>
    </TTGlyph>
    <TTGlyph name="glyph00289" xMin="70" yMin="-548" xMax="1110" yMax="1234">
      <component glyphName="glyph00594" x="0" y="0" flags="0x204"/>
      <component glyphName="glyph00631" x="1071" y="0" flags="0x4"/>
    </TTGlyph>
    <TTGlyph name="glyph00290" xMin="138" yMin="-327" xMax="1406" yMax="1234">
      <contour>
        <pt x="138" y="1234" on="1"/>
        <pt x="413" y="1212" on="1"/>
        <pt x="413" y="638" on="1"/>
        <pt x="413" y="547" on="0"/>
        <pt x="421" y="479" on="0"/>
        <pt x="455" y="422" on="0"/>
        <pt x="540" y="371" on="0"/>
        <pt x="706" y="302" on="1"/>
        <pt x="816" y="256" on="0"/>
        <pt x="955" y="174" on="0"/>
        <pt x="1024" y="97" on="0"/>
        <pt x="1052" y="21" on="0"/>
        <pt x="1052" y="-37" on="1"/>
        <pt x="1052" y="-104" on="0"/>
        <pt x="996" y="-229" on="0"/>
        <pt x="905" y="-327" on="1"/>
        <pt x="697" y="-175" on="1"/>
        <pt x="730" y="-147" on="0"/>
        <pt x="761" y="-89" on="0"/>
        <pt x="761" y="-68" on="1"/>
        <pt x="761" y="-38" on="0"/>
        <pt x="731" y="8" on="0"/>
        <pt x="636" y="64" on="0"/>
        <pt x="517" y="115" on="1"/>
        <pt x="368" y="178" on="0"/>
        <pt x="228" y="259" on="0"/>
        <pt x="163" y="343" on="0"/>
        <pt x="138" y="455" on="0"/>
        <pt x="138" y="568" on="1"/>
      </contour>
      <contour>
        <pt x="495" y="664" on="1"/>
        <pt x="683" y="784" on="1"/>
        <pt x="734" y="704" on="0"/>
        <pt x="824" y="638" on="0"/>
        <pt x="875" y="638" on="1"/>
        <pt x="945" y="638" on="0"/>
        <pt x="1004" y="719" on="0"/>
        <pt x="1004" y="811" on="1"/>
        <pt x="1004" y="910" on="0"/>
        <pt x="927" y="1007" on="0"/>
        <pt x="846" y="1007" on="1"/>
        <pt x="801" y="1007" on="0"/>
        <pt x="723" y="991" on="0"/>
        <pt x="662" y="966" on="1"/>
        <pt x="583" y="1170" on="1"/>
        <pt x="729" y="1234" on="0"/>
        <pt x="886" y="1234" on="1"/>
        <pt x="1068" y="1234" on="0"/>
        <pt x="1278" y="1004" on="0"/>
        <pt x="1278" y="806" on="1"/>
        <pt x="1278" y="612" on="0"/>
        <pt x="1083" y="406" on="0"/>
        <pt x="912" y="406" on="1"/>
        <pt x="783" y="406" on="0"/>
        <pt x="571" y="537" on="0"/>
      </contour>
      <contour>
        <pt x="1406" y="246" on="1"/>
        <pt x="1138" y="92" on="1"/>
        <pt x="998" y="296" on="1"/>
        <pt x="1406" y="498" on="1"/>
      </contour>
    </TTGlyph>
    <TTGlyph name="glyph00291" xMin="20" yMin="228" xMax="844" yMax="1120">
      <contour>
        <pt x="20" y="1041" on="1"/>
        <pt x="116" y="1083" on="0"/>
        <pt x="267" y="1120" on="0"/>
        <pt x="346" y="1120" on="1"/>
        <pt x="446" y="1120" on="0"/>
        <pt x="596" y="1070" on="0"/>
        <pt x="749" y="947" on="0"/>
        <pt x="844" y="833" on="1"/>
        <pt x="844" y="563" on="1"/>
        <pt x="337" y="228" on="1"/>
        <pt x="186" y="457" on="1"/>
        <pt x="642" y="717" on="1"/>
        <pt x="574" y="800" on="0"/>
        <pt x="430" y="885" on="0"/>
        <pt x="340" y="885" on="1"/>
        <pt x="280" y="885" on="0"/>
        <pt x="169" y="855" on="0"/>
        <pt x="107" y="824" on="1"/>
      </contour>
    </TTGlyph>
    <TTGlyph name="glyph00292" xMin="74" yMin="-35" xMax="1051" yMax="1234">
      <contour>
        <pt x="1051" y="421" on="1"/>
        <pt x="365" y="-35" on="1"/>
        <pt x="205" y="166" on="1"/>
        <pt x="483" y="309" on="1"/>
        <pt x="337" y="331" on="0"/>
        <pt x="141" y="503" on="0"/>
        <pt x="83" y="663" on="1"/>
        <pt x="279" y="716" on="0"/>
        <pt x="503" y="872" on="0"/>
        <pt x="503" y="961" on="1"/>
        <pt x="503" y="998" on="0"/>
        <pt x="461" y="1044" on="0"/>
        <pt x="420" y="1044" on="1"/>
        <pt x="383" y="1044" on="0"/>
        <pt x="340" y="1005" on="0"/>
        <pt x="340" y="973" on="1"/>
        <pt x="340" y="922" on="0"/>
        <pt x="394" y="881" on="1"/>
        <pt x="178" y="771" on="1"/>
        <pt x="74" y="853" on="0"/>
        <pt x="74" y="985" on="1"/>
        <pt x="74" y="1090" on="0"/>
        <pt x="259" y="1234" on="0"/>
        <pt x="415" y="1234" on="1"/>
        <pt x="587" y="1234" on="0"/>
        <pt x="764" y="1083" on="0"/>
        <pt x="764" y="960" on="1"/>
        <pt x="764" y="707" on="0"/>
        <pt x="439" y="564" on="1"/>
        <pt x="517" y="510" on="0"/>
        <pt x="637" y="510" on="1"/>
        <pt x="801" y="510" on="0"/>
        <pt x="933" y="620" on="1"/>
      </contour>
    </TTGlyph>
    <TTGlyph name="glyph00293" xMin="69" yMin="-728" xMax="1443" yMax="1234">
      <component glyphName="glyph00217" x="0" y="0" flags="0x204"/>
      <component glyphName="glyph00640" x="1090" y="0" flags="0x4"/>
    </TTGlyph>
    <TTGlyph name="glyph00294" xMin="69" yMin="-548" xMax="1443" yMax="1236">
      <component glyphName="glyph00600" x="0" y="0" flags="0x204"/>
      <component glyphName="uni0ACD" x="1090" y="0" flags="0x4"/>
    </TTGlyph>
    <TTGlyph name="glyph00295" xMin="70" yMin="-104" xMax="953" yMax="1332">
      <contour>
        <pt x="953" y="324" on="1"/>
        <pt x="283" y="-104" on="1"/>
        <pt x="123" y="97" on="1"/>
        <pt x="403" y="241" on="1"/>
        <pt x="284" y="269" on="0"/>
        <pt x="155" y="420" on="0"/>
        <pt x="155" y="534" on="1"/>
        <pt x="155" y="628" on="0"/>
        <pt x="202" y="699" on="1"/>
        <pt x="70" y="811" on="0"/>
        <pt x="70" y="959" on="1"/>
        <pt x="70" y="1219" on="0"/>
        <pt x="464" y="1332" on="1"/>
        <pt x="564" y="1107" on="1"/>
        <pt x="462" y="1081" on="0"/>
        <pt x="344" y="1010" on="0"/>
        <pt x="344" y="949" on="1"/>
        <pt x="344" y="880" on="0"/>
        <pt x="406" y="835" on="1"/>
        <pt x="469" y="852" on="0"/>
        <pt x="545" y="852" on="1"/>
        <pt x="627" y="852" on="0"/>
        <pt x="702" y="835" on="1"/>
        <pt x="667" y="613" on="1"/>
        <pt x="615" y="624" on="0"/>
        <pt x="554" y="624" on="1"/>
        <pt x="488" y="624" on="0"/>
        <pt x="423" y="577" on="0"/>
        <pt x="423" y="536" on="1"/>
        <pt x="423" y="441" on="0"/>
        <pt x="574" y="441" on="1"/>
        <pt x="730" y="441" on="0"/>
        <pt x="861" y="540" on="1"/>
      </contour>
    </TTGlyph>
    <TTGlyph name="glyph00296" xMin="43" yMin="-35" xMax="807" yMax="841">
      <contour>
        <pt x="807" y="608" on="1"/>
        <pt x="482" y="608" on="1"/>
        <pt x="482" y="547" on="1"/>
        <pt x="482" y="465" on="0"/>
        <pt x="416" y="386" on="0"/>
        <pt x="347" y="386" on="1"/>
        <pt x="287" y="386" on="0"/>
        <pt x="140" y="487" on="0"/>
        <pt x="43" y="636" on="0"/>
        <pt x="43" y="699" on="1"/>
        <pt x="43" y="773" on="0"/>
        <pt x="116" y="841" on="0"/>
        <pt x="187" y="841" on="1"/>
        <pt x="807" y="841" on="1"/>
      </contour>
      <contour>
        <pt x="807" y="197" on="1"/>
        <pt x="405" y="-35" on="1"/>
        <pt x="265" y="179" on="1"/>
        <pt x="807" y="447" on="1"/>
      </contour>
    </TTGlyph>
    <TTGlyph name="glyph00297" xMin="13" yMin="-35" xMax="857" yMax="1212">
      <contour>
        <pt x="857" y="408" on="1"/>
        <pt x="249" y="-35" on="1"/>
        <pt x="89" y="156" on="1"/>
        <pt x="417" y="353" on="1"/>
        <pt x="325" y="367" on="0"/>
        <pt x="211" y="483" on="0"/>
        <pt x="172" y="629" on="0"/>
        <pt x="172" y="743" on="1"/>
        <pt x="172" y="829" on="1"/>
        <pt x="172" y="880" on="0"/>
        <pt x="156" y="940" on="0"/>
        <pt x="119" y="971" on="0"/>
        <pt x="71" y="979" on="0"/>
        <pt x="13" y="979" on="1"/>
        <pt x="33" y="1212" on="1"/>
        <pt x="88" y="1212" on="1"/>
        <pt x="198" y="1212" on="0"/>
        <pt x="338" y="1167" on="0"/>
        <pt x="416" y="1070" on="0"/>
        <pt x="447" y="947" on="0"/>
        <pt x="447" y="849" on="1"/>
        <pt x="447" y="761" on="1"/>
        <pt x="447" y="676" on="0"/>
        <pt x="472" y="594" on="0"/>
        <pt x="535" y="554" on="0"/>
        <pt x="590" y="554" on="1"/>
        <pt x="687" y="554" on="0"/>
        <pt x="778" y="625" on="1"/>
      </contour>
    </TTGlyph>
    <TTGlyph name="glyph00298" xMin="61" yMin="-330" xMax="1202" yMax="1234">
      <contour>
        <pt x="61" y="690" on="1"/>
        <pt x="316" y="746" on="1"/>
        <pt x="277" y="787" on="0"/>
        <pt x="230" y="877" on="0"/>
        <pt x="230" y="932" on="1"/>
        <pt x="230" y="1069" on="0"/>
        <pt x="469" y="1234" on="0"/>
        <pt x="672" y="1234" on="1"/>
        <pt x="810" y="1234" on="0"/>
        <pt x="910" y="1209" on="1"/>
        <pt x="864" y="986" on="1"/>
        <pt x="775" y="1005" on="0"/>
        <pt x="684" y="1005" on="1"/>
        <pt x="509" y="1005" on="0"/>
        <pt x="509" y="906" on="1"/>
        <pt x="509" y="880" on="0"/>
        <pt x="544" y="830" on="0"/>
        <pt x="579" y="807" on="1"/>
        <pt x="1202" y="807" on="1"/>
        <pt x="1202" y="579" on="1"/>
        <pt x="1100" y="579" on="1"/>
        <pt x="952" y="579" on="0"/>
        <pt x="885" y="588" on="1"/>
        <pt x="979" y="533" on="0"/>
        <pt x="1058" y="403" on="0"/>
        <pt x="1058" y="317" on="1"/>
        <pt x="1058" y="170" on="0"/>
        <pt x="837" y="-9" on="0"/>
        <pt x="622" y="-19" on="1"/>
        <pt x="666" y="-55" on="0"/>
        <pt x="767" y="-90" on="0"/>
        <pt x="850" y="-90" on="1"/>
        <pt x="893" y="-90" on="1"/>
        <pt x="866" y="-330" on="1"/>
        <pt x="820" y="-330" on="1"/>
        <pt x="648" y="-330" on="0"/>
        <pt x="399" y="-167" on="0"/>
        <pt x="291" y="-6" on="1"/>
        <pt x="180" y="12" on="0"/>
        <pt x="69" y="103" on="0"/>
        <pt x="69" y="183" on="1"/>
        <pt x="69" y="239" on="0"/>
        <pt x="151" y="309" on="0"/>
        <pt x="214" y="309" on="1"/>
        <pt x="325" y="309" on="0"/>
        <pt x="428" y="215" on="1"/>
        <pt x="463" y="210" on="0"/>
        <pt x="522" y="210" on="1"/>
        <pt x="646" y="210" on="0"/>
        <pt x="777" y="276" on="0"/>
        <pt x="777" y="341" on="1"/>
        <pt x="777" y="393" on="0"/>
        <pt x="706" y="468" on="0"/>
        <pt x="651" y="499" on="1"/>
        <pt x="503" y="279" on="1"/>
        <pt x="275" y="368" on="1"/>
        <pt x="437" y="559" on="1"/>
        <pt x="125" y="471" on="1"/>
      </contour>
    </TTGlyph>
    <TTGlyph name="glyph00299" xMin="70" yMin="-35" xMax="1243" yMax="1234">
      <contour>
        <pt x="1243" y="509" on="1"/>
        <pt x="1193" y="476" on="0"/>
        <pt x="1109" y="454" on="0"/>
        <pt x="1055" y="454" on="1"/>
        <pt x="969" y="454" on="0"/>
        <pt x="914" y="492" on="1"/>
        <pt x="866" y="398" on="0"/>
        <pt x="677" y="305" on="0"/>
        <pt x="527" y="305" on="1"/>
        <pt x="320" y="305" on="0"/>
        <pt x="70" y="536" on="0"/>
        <pt x="70" y="731" on="1"/>
        <pt x="70" y="916" on="0"/>
        <pt x="323" y="1181" on="0"/>
        <pt x="554" y="1234" on="1"/>
        <pt x="618" y="998" on="1"/>
        <pt x="348" y="931" on="0"/>
        <pt x="348" y="733" on="1"/>
        <pt x="348" y="636" on="0"/>
        <pt x="440" y="538" on="0"/>
        <pt x="530" y="538" on="1"/>
        <pt x="592" y="538" on="0"/>
        <pt x="667" y="587" on="0"/>
        <pt x="698" y="673" on="0"/>
        <pt x="698" y="780" on="1"/>
        <pt x="698" y="926" on="1"/>
        <pt x="973" y="904" on="1"/>
        <pt x="973" y="731" on="1"/>
        <pt x="997" y="687" on="0"/>
        <pt x="1056" y="687" on="1"/>
        <pt x="1114" y="687" on="0"/>
        <pt x="1160" y="718" on="1"/>
      </contour>
      <contour>
        <pt x="1191" y="196" on="1"/>
        <pt x="789" y="-35" on="1"/>
        <pt x="649" y="179" on="1"/>
        <pt x="1191" y="447" on="1"/>
      </contour>
    </TTGlyph>
    <TTGlyph name="glyph00300" xMin="70" yMin="-35" xMax="1321" yMax="1234">
      <contour>
        <pt x="751" y="770" on="1"/>
        <pt x="751" y="786" on="1"/>
        <pt x="751" y="1001" on="0"/>
        <pt x="578" y="1001" on="1"/>
        <pt x="468" y="1001" on="0"/>
        <pt x="348" y="866" on="0"/>
        <pt x="348" y="756" on="1"/>
        <pt x="348" y="625" on="0"/>
        <pt x="479" y="398" on="0"/>
        <pt x="621" y="277" on="1"/>
        <pt x="435" y="103" on="1"/>
        <pt x="244" y="277" on="0"/>
        <pt x="70" y="598" on="0"/>
        <pt x="70" y="767" on="1"/>
        <pt x="70" y="901" on="0"/>
        <pt x="195" y="1116" on="0"/>
        <pt x="422" y="1234" on="0"/>
        <pt x="564" y="1234" on="1"/>
        <pt x="788" y="1234" on="0"/>
        <pt x="1022" y="999" on="0"/>
        <pt x="1025" y="770" on="1"/>
        <pt x="1321" y="770" on="1"/>
        <pt x="1321" y="539" on="1"/>
        <pt x="1026" y="539" on="1"/>
        <pt x="1026" y="500" on="1"/>
        <pt x="1026" y="418" on="0"/>
        <pt x="958" y="337" on="0"/>
        <pt x="883" y="337" on="1"/>
        <pt x="828" y="337" on="0"/>
        <pt x="683" y="437" on="0"/>
        <pt x="587" y="581" on="0"/>
        <pt x="587" y="641" on="1"/>
        <pt x="587" y="708" on="0"/>
        <pt x="659" y="770" on="0"/>
        <pt x="732" y="770" on="1"/>
      </contour>
      <contour>
        <pt x="1321" y="197" on="1"/>
        <pt x="919" y="-35" on="1"/>
        <pt x="779" y="179" on="1"/>
        <pt x="1321" y="447" on="1"/>
      </contour>
    </TTGlyph>
    <TTGlyph name="glyph00301" xMin="77" yMin="-35" xMax="849" yMax="1212">
      <contour>
        <pt x="516" y="730" on="1"/>
        <pt x="849" y="730" on="1"/>
        <pt x="849" y="499" on="1"/>
        <pt x="516" y="499" on="1"/>
        <pt x="516" y="480" on="1"/>
        <pt x="516" y="398" on="0"/>
        <pt x="448" y="317" on="0"/>
        <pt x="373" y="317" on="1"/>
        <pt x="310" y="317" on="0"/>
        <pt x="168" y="406" on="0"/>
        <pt x="77" y="541" on="0"/>
        <pt x="77" y="601" on="1"/>
        <pt x="77" y="668" on="0"/>
        <pt x="149" y="730" on="0"/>
        <pt x="222" y="730" on="1"/>
        <pt x="242" y="730" on="1"/>
        <pt x="242" y="829" on="1"/>
        <pt x="242" y="880" on="0"/>
        <pt x="226" y="940" on="0"/>
        <pt x="189" y="971" on="0"/>
        <pt x="141" y="979" on="0"/>
        <pt x="83" y="979" on="1"/>
        <pt x="103" y="1212" on="1"/>
        <pt x="158" y="1212" on="1"/>
        <pt x="263" y="1212" on="0"/>
        <pt x="399" y="1172" on="0"/>
        <pt x="476" y="1090" on="0"/>
        <pt x="516" y="973" on="0"/>
        <pt x="516" y="858" on="1"/>
      </contour>
      <contour>
        <pt x="849" y="198" on="1"/>
        <pt x="447" y="-35" on="1"/>
        <pt x="307" y="179" on="1"/>
        <pt x="849" y="447" on="1"/>
      </contour>
    </TTGlyph>
    <TTGlyph name="glyph00302" xMin="28" yMin="-35" xMax="956" yMax="1234">
      <contour>
        <pt x="956" y="438" on="1"/>
        <pt x="291" y="-35" on="1"/>
        <pt x="131" y="156" on="1"/>
        <pt x="453" y="349" on="1"/>
        <pt x="322" y="376" on="0"/>
        <pt x="136" y="562" on="0"/>
        <pt x="82" y="721" on="1"/>
        <pt x="214" y="752" on="0"/>
        <pt x="339" y="844" on="0"/>
        <pt x="339" y="909" on="1"/>
        <pt x="339" y="957" on="0"/>
        <pt x="271" y="1008" on="0"/>
        <pt x="206" y="1008" on="1"/>
        <pt x="145" y="1008" on="0"/>
        <pt x="85" y="990" on="1"/>
        <pt x="28" y="1205" on="1"/>
        <pt x="118" y="1234" on="0"/>
        <pt x="225" y="1234" on="1"/>
        <pt x="410" y="1234" on="0"/>
        <pt x="611" y="1059" on="0"/>
        <pt x="611" y="910" on="1"/>
        <pt x="611" y="817" on="0"/>
        <pt x="525" y="676" on="0"/>
        <pt x="433" y="619" on="1"/>
        <pt x="501" y="554" on="0"/>
        <pt x="608" y="554" on="1"/>
        <pt x="673" y="554" on="0"/>
        <pt x="783" y="593" on="0"/>
        <pt x="847" y="644" on="1"/>
      </contour>
    </TTGlyph>
    <TTGlyph name="glyph00303" xMin="10" yMin="-806" xMax="1071" yMax="1234">
      <component glyphName="uni0AB0" x="0" y="0" flags="0x204"/>
      <component glyphName="glyph00632" x="1006" y="0" flags="0x4"/>
    </TTGlyph>
    <TTGlyph name="glyph00304" xMin="14" yMin="-548" xMax="1049" yMax="1234">
      <component glyphName="glyph00605" x="0" y="0" flags="0x204"/>
      <component glyphName="glyph00631" x="1010" y="0" flags="0x4"/>
    </TTGlyph>
    <TTGlyph name="glyph00305" xMin="70" yMin="-85" xMax="1020" yMax="1234">
      <contour>
        <pt x="723" y="995" on="1"/>
        <pt x="534" y="962" on="0"/>
        <pt x="348" y="816" on="0"/>
        <pt x="348" y="698" on="1"/>
        <pt x="348" y="587" on="0"/>
        <pt x="494" y="467" on="0"/>
        <pt x="622" y="467" on="1"/>
        <pt x="679" y="467" on="0"/>
        <pt x="729" y="478" on="1"/>
        <pt x="772" y="334" on="1"/>
        <pt x="996" y="447" on="1"/>
        <pt x="996" y="195" on="1"/>
        <pt x="499" y="-85" on="1"/>
        <pt x="359" y="129" on="1"/>
        <pt x="594" y="238" on="1"/>
        <pt x="338" y="242" on="0"/>
        <pt x="70" y="488" on="0"/>
        <pt x="70" y="709" on="1"/>
        <pt x="70" y="909" on="0"/>
        <pt x="373" y="1184" on="0"/>
        <pt x="657" y="1234" on="1"/>
      </contour>
      <contour>
        <pt x="1020" y="674" on="1"/>
        <pt x="586" y="585" on="1"/>
        <pt x="529" y="816" on="1"/>
        <pt x="977" y="904" on="1"/>
      </contour>
    </TTGlyph>
    <TTGlyph name="glyph00306" xMin="70" yMin="-35" xMax="1198" yMax="1234">
      <contour>
        <pt x="1138" y="872" on="1"/>
        <pt x="1104" y="884" on="0"/>
        <pt x="1061" y="884" on="1"/>
        <pt x="1024" y="884" on="0"/>
        <pt x="981" y="844" on="0"/>
        <pt x="981" y="772" on="1"/>
        <pt x="981" y="767" on="1"/>
        <pt x="981" y="578" on="0"/>
        <pt x="885" y="374" on="0"/>
        <pt x="692" y="267" on="0"/>
        <pt x="536" y="267" on="1"/>
        <pt x="326" y="267" on="0"/>
        <pt x="70" y="511" on="0"/>
        <pt x="70" y="718" on="1"/>
        <pt x="70" y="903" on="0"/>
        <pt x="324" y="1178" on="0"/>
        <pt x="554" y="1234" on="1"/>
        <pt x="618" y="998" on="1"/>
        <pt x="348" y="924" on="0"/>
        <pt x="348" y="716" on="1"/>
        <pt x="348" y="610" on="0"/>
        <pt x="445" y="500" on="0"/>
        <pt x="533" y="500" on="1"/>
        <pt x="603" y="500" on="0"/>
        <pt x="679" y="558" on="0"/>
        <pt x="707" y="659" on="0"/>
        <pt x="707" y="754" on="1"/>
        <pt x="707" y="772" on="1"/>
        <pt x="707" y="899" on="0"/>
        <pt x="787" y="1042" on="0"/>
        <pt x="942" y="1116" on="0"/>
        <pt x="1043" y="1116" on="1"/>
        <pt x="1125" y="1116" on="0"/>
        <pt x="1198" y="1095" on="1"/>
      </contour>
      <contour>
        <pt x="1197" y="177" on="1"/>
        <pt x="828" y="-35" on="1"/>
        <pt x="688" y="179" on="1"/>
        <pt x="1197" y="431" on="1"/>
      </contour>
    </TTGlyph>
    <TTGlyph name="glyph00307" xMin="70" yMin="-35" xMax="919" yMax="1116">
      <contour>
        <pt x="919" y="467" on="1"/>
        <pt x="260" y="-35" on="1"/>
        <pt x="100" y="156" on="1"/>
        <pt x="376" y="346" on="1"/>
        <pt x="231" y="377" on="0"/>
        <pt x="70" y="573" on="0"/>
        <pt x="70" y="720" on="1"/>
        <pt x="70" y="901" on="0"/>
        <pt x="323" y="1116" on="0"/>
        <pt x="531" y="1116" on="1"/>
        <pt x="632" y="1116" on="0"/>
        <pt x="740" y="1100" on="1"/>
        <pt x="717" y="870" on="1"/>
        <pt x="663" y="883" on="0"/>
        <pt x="567" y="883" on="1"/>
        <pt x="460" y="883" on="0"/>
        <pt x="346" y="794" on="0"/>
        <pt x="346" y="713" on="1"/>
        <pt x="346" y="635" on="0"/>
        <pt x="441" y="554" on="0"/>
        <pt x="528" y="554" on="1"/>
        <pt x="605" y="554" on="0"/>
        <pt x="737" y="607" on="0"/>
        <pt x="808" y="669" on="1"/>
      </contour>
    </TTGlyph>
    <TTGlyph name="glyph00308" xMin="20" yMin="28" xMax="1113" yMax="1234">
      <contour>
        <pt x="1113" y="311" on="1"/>
        <pt x="630" y="28" on="1"/>
        <pt x="490" y="242" on="1"/>
        <pt x="794" y="393" on="1"/>
        <pt x="834" y="413" on="0"/>
        <pt x="893" y="440" on="1"/>
        <pt x="815" y="455" on="0"/>
        <pt x="654" y="500" on="0"/>
        <pt x="572" y="531" on="1"/>
        <pt x="424" y="439" on="0"/>
        <pt x="150" y="300" on="1"/>
        <pt x="20" y="514" on="1"/>
        <pt x="179" y="582" on="0"/>
        <pt x="326" y="654" on="1"/>
        <pt x="233" y="707" on="0"/>
        <pt x="141" y="852" on="0"/>
        <pt x="141" y="943" on="1"/>
        <pt x="141" y="1072" on="0"/>
        <pt x="345" y="1234" on="0"/>
        <pt x="517" y="1234" on="1"/>
        <pt x="690" y="1234" on="0"/>
        <pt x="893" y="1070" on="0"/>
        <pt x="893" y="930" on="1"/>
        <pt x="893" y="862" on="0"/>
        <pt x="831" y="744" on="0"/>
        <pt x="764" y="686" on="1"/>
        <pt x="828" y="666" on="0"/>
        <pt x="1003" y="626" on="0"/>
        <pt x="1113" y="606" on="1"/>
      </contour>
      <contour>
        <pt x="527" y="772" on="1"/>
        <pt x="584" y="810" on="0"/>
        <pt x="635" y="883" on="0"/>
        <pt x="635" y="925" on="1"/>
        <pt x="635" y="975" on="0"/>
        <pt x="576" y="1024" on="0"/>
        <pt x="522" y="1024" on="1"/>
        <pt x="468" y="1024" on="0"/>
        <pt x="399" y="967" on="0"/>
        <pt x="399" y="919" on="1"/>
        <pt x="399" y="874" on="0"/>
        <pt x="463" y="801" on="0"/>
      </contour>
    </TTGlyph>
    <TTGlyph name="glyph00309" xMin="13" yMin="-35" xMax="922" yMax="1212">
      <contour>
        <pt x="922" y="457" on="1"/>
        <pt x="252" y="-35" on="1"/>
        <pt x="92" y="156" on="1"/>
        <pt x="420" y="353" on="1"/>
        <pt x="326" y="368" on="0"/>
        <pt x="211" y="484" on="0"/>
        <pt x="172" y="627" on="0"/>
        <pt x="172" y="743" on="1"/>
        <pt x="172" y="838" on="1"/>
        <pt x="172" y="919" on="0"/>
        <pt x="135" y="967" on="0"/>
        <pt x="89" y="979" on="0"/>
        <pt x="13" y="979" on="1"/>
        <pt x="33" y="1212" on="1"/>
        <pt x="88" y="1212" on="1"/>
        <pt x="254" y="1212" on="0"/>
        <pt x="334" y="1158" on="1"/>
        <pt x="756" y="875" on="1"/>
        <pt x="782" y="857" on="0"/>
        <pt x="888" y="780" on="0"/>
        <pt x="922" y="751" on="1"/>
      </contour>
      <contour>
        <pt x="447" y="761" on="1"/>
        <pt x="447" y="676" on="0"/>
        <pt x="472" y="594" on="0"/>
        <pt x="535" y="554" on="0"/>
        <pt x="590" y="554" on="1"/>
        <pt x="713" y="554" on="0"/>
        <pt x="815" y="640" on="1"/>
        <pt x="622" y="769" on="1"/>
        <pt x="537" y="825" on="0"/>
        <pt x="442" y="903" on="1"/>
        <pt x="447" y="858" on="0"/>
        <pt x="447" y="795" on="1"/>
      </contour>
    </TTGlyph>
    <TTGlyph name="glyph00310" xMin="53" yMin="0" xMax="1195" yMax="1234">
      <contour>
        <pt x="1195" y="625" on="1"/>
        <pt x="1096" y="582" on="0"/>
        <pt x="959" y="582" on="1"/>
        <pt x="868" y="582" on="0"/>
        <pt x="790" y="605" on="1"/>
        <pt x="715" y="477" on="0"/>
        <pt x="568" y="408" on="1"/>
        <pt x="631" y="335" on="0"/>
        <pt x="768" y="240" on="0"/>
        <pt x="845" y="240" on="1"/>
        <pt x="859" y="240" on="1"/>
        <pt x="841" y="0" on="1"/>
        <pt x="819" y="0" on="1"/>
        <pt x="663" y="0" on="0"/>
        <pt x="426" y="175" on="0"/>
        <pt x="304" y="348" on="1"/>
        <pt x="273" y="348" on="1"/>
        <pt x="169" y="348" on="0"/>
        <pt x="55" y="435" on="0"/>
        <pt x="55" y="515" on="1"/>
        <pt x="55" y="584" on="0"/>
        <pt x="147" y="663" on="0"/>
        <pt x="229" y="663" on="1"/>
        <pt x="313" y="663" on="0"/>
        <pt x="391" y="604" on="1"/>
        <pt x="475" y="636" on="0"/>
        <pt x="568" y="752" on="0"/>
        <pt x="568" y="828" on="1"/>
        <pt x="568" y="912" on="0"/>
        <pt x="463" y="1001" on="0"/>
        <pt x="365" y="1001" on="1"/>
        <pt x="238" y="1001" on="0"/>
        <pt x="130" y="949" on="1"/>
        <pt x="53" y="1165" on="1"/>
        <pt x="217" y="1234" on="0"/>
        <pt x="406" y="1234" on="1"/>
        <pt x="605" y="1234" on="0"/>
        <pt x="849" y="1017" on="0"/>
        <pt x="849" y="829" on="1"/>
        <pt x="849" y="824" on="1"/>
        <pt x="893" y="811" on="0"/>
        <pt x="977" y="811" on="1"/>
        <pt x="1072" y="811" on="0"/>
        <pt x="1145" y="851" on="1"/>
      </contour>
      <contour>
        <pt x="1190" y="342" on="1"/>
        <pt x="932" y="193" on="1"/>
        <pt x="798" y="397" on="1"/>
        <pt x="1190" y="585" on="1"/>
      </contour>
    </TTGlyph>
    <TTGlyph name="glyph00311" xMin="74" yMin="-548" xMax="1580" yMax="1234">
      <component glyphName="glyph00233" x="0" y="0" flags="0x204"/>
      <component glyphName="uni0ACD" x="1227" y="0" flags="0x4"/>
    </TTGlyph>
</ttFont>
